<?xml version="1.0" standalone="no"?>
<!DOCTYPE svg PUBLIC "-//W3C//DTD SVG 1.1//EN" "http://www.w3.org/Graphics/SVG/1.1/DTD/svg11.dtd" >
<svg xmlns="http://www.w3.org/2000/svg">
<metadata></metadata>
<defs>
<font id="gentonaextrabold_demo" horiz-adv-x="2643" >
<font-face units-per-em="2048" ascent="1638" descent="-410" />
<missing-glyph horiz-adv-x="389" />
<glyph horiz-adv-x="0" />
<glyph horiz-adv-x="682" />
<glyph unicode=" "  horiz-adv-x="389" />
<glyph unicode="&#x09;" horiz-adv-x="389" />
<glyph unicode="&#xa0;" horiz-adv-x="389" />
<glyph unicode="!" d="M2501 1075h-2358v-923h2358v923zM221 997h2202v-768h-2202v768zM1692 801l14 33q-41 20 -80 20q-26 0 -41.5 -14.5t-15.5 -36.5q0 -40 49 -55q25 -6 32 -10t7 -11q0 -12 -17 -12q-22 0 -61 20l-16 -35q35 -24 82 -24q29 0 46 14t17 39q0 22 -10.5 34t-36.5 19 q-29 9 -37 13t-8 10q0 12 16 12q17 0 60 -16zM1974 764q0 44 -23 67t-65 23t-65 -23t-23 -67q0 -41 23.5 -64.5t64.5 -23.5t64.5 23.5t23.5 64.5zM426 774v35h78v43h-125v-174h47v55h68v41h-68zM684 852h-47v-90q0 -45 -35 -45q-31 0 -31 45v90h-47v-90q0 -86 78 -86 q82 0 82 86v90zM834 678v43h-78v131h-45v-174h123zM979 678v43h-78v131h-45v-174h123zM1165 678l66 174h-49l-37 -111l-6 -16q-4 12 -4 16l-37 111h-51l67 -174h51zM1376 678v43h-84v22h68v39h-68v27h80v43h-127v-174h131zM1399 852v-174h45v53h22q4 0 7.5 -1.5t6.5 -5 t5.5 -7t5 -9.5t3.5 -9.5t3.5 -10.5t3.5 -10h53q-1 3 -3.5 13.5t-5 16.5t-6.5 14.5t-9.5 15t-13.5 10.5q30 6 30 45q0 59 -76 59h-71zM1778 678v174h-47v-174h47zM2157 678v174h-48v-100l-73 100h-41v-174h45v98l74 -98h43zM1444 768v45h29q30 0 30 -22q0 -23 -28 -23h-31z M1927 764q0 -47 -41 -47t-41 47q0 49 41 49t41 -49zM2218 813q-10 0 -17.5 -7.5t-7.5 -17.5q0 -11 7.5 -18.5t17.5 -7.5q12 0 19.5 7.5t7.5 18.5t-7.5 18t-19.5 7zM2218 727q-10 0 -17.5 -7.5t-7.5 -17.5q0 -11 7.5 -18.5t17.5 -7.5q12 0 19.5 7.5t7.5 18.5t-7.5 18t-19.5 7 zM1081 475q0 43 -23.5 66.5t-64.5 23.5t-63.5 -23.5t-22.5 -66.5q0 -90 86 -90q42 0 65 23t23 67zM1569 510l14 35q-48 20 -78 20q-27 0 -42 -15t-15 -38q0 -41 49 -55q24 -6 30.5 -10t6.5 -11q0 -12 -14 -12q-26 0 -62 20l-18 -34q36 -25 82 -25q63 0 63 53 q0 22 -10.5 34.5t-36.5 21.5l-15 5q-27 11 -28 17q0 10 16 10q15 0 58 -16zM1839 403l-16 37q-32 -14 -56 -14q-19 0 -30 13t-11 36q0 47 43 47q23 0 50 -8l12 33q-27 18 -64 18q-41 0 -64.5 -23.5t-23.5 -66.5q0 -44 23 -67t63 -23q33 0 74 18zM2021 475q0 43 -23.5 66.5 t-64.5 23.5q-40 0 -64 -24t-24 -66q0 -43 23.5 -66.5t64.5 -23.5q42 0 65 23t23 67zM520 387h49l-8 174h-51l-41 -94q-2 -4 -2 -12l-6 12l-39 94h-53l-7 -174h50v100l41 -100h26l41 100v-100zM692 442l64 119h-49l-29 -55q-2 -3 -5 -10.5t-5 -10.5q-2 3 -5.5 10.5t-5.5 10.5 l-28 55h-49l65 -119v-55h47v55zM815 485v33h78v43h-125v-174h47v57h68v41h-68zM1264 387v174h-47v-98l-74 98h-41v-174h47v98l74 -98h41zM1434 518v43h-154v-43h55v-131h45v131h54zM2198 387h51l-8 174h-54l-39 -94q-1 -2 -2 -6.5t-2 -5.5q0 4 -4 12l-41 94h-51l-6 -174h47 v100l41 -100h27l41 100v-100zM1034 475q0 -49 -41 -49q-19 0 -30 13t-11 36q0 47 41 47t41 -47zM1974 475q0 -49 -41 -49q-19 0 -30 13t-11 36q0 47 41 47t41 -47zM1638 436q-10 0 -17 -7t-7 -17q0 -11 7 -19t17 -8q12 0 19.5 8t7.5 19t-7.5 17.5t-19.5 6.5z" />
<glyph unicode="&#x22;" d="M2501 1075h-2358v-923h2358v923zM221 997h2202v-768h-2202v768zM1692 801l14 33q-41 20 -80 20q-26 0 -41.5 -14.5t-15.5 -36.5q0 -40 49 -55q25 -6 32 -10t7 -11q0 -12 -17 -12q-22 0 -61 20l-16 -35q35 -24 82 -24q29 0 46 14t17 39q0 22 -10.5 34t-36.5 19 q-29 9 -37 13t-8 10q0 12 16 12q17 0 60 -16zM1974 764q0 44 -23 67t-65 23t-65 -23t-23 -67q0 -41 23.5 -64.5t64.5 -23.5t64.5 23.5t23.5 64.5zM426 774v35h78v43h-125v-174h47v55h68v41h-68zM684 852h-47v-90q0 -45 -35 -45q-31 0 -31 45v90h-47v-90q0 -86 78 -86 q82 0 82 86v90zM834 678v43h-78v131h-45v-174h123zM979 678v43h-78v131h-45v-174h123zM1165 678l66 174h-49l-37 -111l-6 -16q-4 12 -4 16l-37 111h-51l67 -174h51zM1376 678v43h-84v22h68v39h-68v27h80v43h-127v-174h131zM1399 852v-174h45v53h22q4 0 7.5 -1.5t6.5 -5 t5.5 -7t5 -9.5t3.5 -9.5t3.5 -10.5t3.5 -10h53q-1 3 -3.5 13.5t-5 16.5t-6.5 14.5t-9.5 15t-13.5 10.5q30 6 30 45q0 59 -76 59h-71zM1778 678v174h-47v-174h47zM2157 678v174h-48v-100l-73 100h-41v-174h45v98l74 -98h43zM1444 768v45h29q30 0 30 -22q0 -23 -28 -23h-31z M1927 764q0 -47 -41 -47t-41 47q0 49 41 49t41 -49zM2218 813q-10 0 -17.5 -7.5t-7.5 -17.5q0 -11 7.5 -18.5t17.5 -7.5q12 0 19.5 7.5t7.5 18.5t-7.5 18t-19.5 7zM2218 727q-10 0 -17.5 -7.5t-7.5 -17.5q0 -11 7.5 -18.5t17.5 -7.5q12 0 19.5 7.5t7.5 18.5t-7.5 18t-19.5 7 zM1081 475q0 43 -23.5 66.5t-64.5 23.5t-63.5 -23.5t-22.5 -66.5q0 -90 86 -90q42 0 65 23t23 67zM1569 510l14 35q-48 20 -78 20q-27 0 -42 -15t-15 -38q0 -41 49 -55q24 -6 30.5 -10t6.5 -11q0 -12 -14 -12q-26 0 -62 20l-18 -34q36 -25 82 -25q63 0 63 53 q0 22 -10.5 34.5t-36.5 21.5l-15 5q-27 11 -28 17q0 10 16 10q15 0 58 -16zM1839 403l-16 37q-32 -14 -56 -14q-19 0 -30 13t-11 36q0 47 43 47q23 0 50 -8l12 33q-27 18 -64 18q-41 0 -64.5 -23.5t-23.5 -66.5q0 -44 23 -67t63 -23q33 0 74 18zM2021 475q0 43 -23.5 66.5 t-64.5 23.5q-40 0 -64 -24t-24 -66q0 -43 23.5 -66.5t64.5 -23.5q42 0 65 23t23 67zM520 387h49l-8 174h-51l-41 -94q-2 -4 -2 -12l-6 12l-39 94h-53l-7 -174h50v100l41 -100h26l41 100v-100zM692 442l64 119h-49l-29 -55q-2 -3 -5 -10.5t-5 -10.5q-2 3 -5.5 10.5t-5.5 10.5 l-28 55h-49l65 -119v-55h47v55zM815 485v33h78v43h-125v-174h47v57h68v41h-68zM1264 387v174h-47v-98l-74 98h-41v-174h47v98l74 -98h41zM1434 518v43h-154v-43h55v-131h45v131h54zM2198 387h51l-8 174h-54l-39 -94q-1 -2 -2 -6.5t-2 -5.5q0 4 -4 12l-41 94h-51l-6 -174h47 v100l41 -100h27l41 100v-100zM1034 475q0 -49 -41 -49q-19 0 -30 13t-11 36q0 47 41 47t41 -47zM1974 475q0 -49 -41 -49q-19 0 -30 13t-11 36q0 47 41 47t41 -47zM1638 436q-10 0 -17 -7t-7 -17q0 -11 7 -19t17 -8q12 0 19.5 8t7.5 19t-7.5 17.5t-19.5 6.5z" />
<glyph unicode="#" d="M2501 1075h-2358v-923h2358v923zM221 997h2202v-768h-2202v768zM1692 801l14 33q-41 20 -80 20q-26 0 -41.5 -14.5t-15.5 -36.5q0 -40 49 -55q25 -6 32 -10t7 -11q0 -12 -17 -12q-22 0 -61 20l-16 -35q35 -24 82 -24q29 0 46 14t17 39q0 22 -10.5 34t-36.5 19 q-29 9 -37 13t-8 10q0 12 16 12q17 0 60 -16zM1974 764q0 44 -23 67t-65 23t-65 -23t-23 -67q0 -41 23.5 -64.5t64.5 -23.5t64.5 23.5t23.5 64.5zM426 774v35h78v43h-125v-174h47v55h68v41h-68zM684 852h-47v-90q0 -45 -35 -45q-31 0 -31 45v90h-47v-90q0 -86 78 -86 q82 0 82 86v90zM834 678v43h-78v131h-45v-174h123zM979 678v43h-78v131h-45v-174h123zM1165 678l66 174h-49l-37 -111l-6 -16q-4 12 -4 16l-37 111h-51l67 -174h51zM1376 678v43h-84v22h68v39h-68v27h80v43h-127v-174h131zM1399 852v-174h45v53h22q4 0 7.5 -1.5t6.5 -5 t5.5 -7t5 -9.5t3.5 -9.5t3.5 -10.5t3.5 -10h53q-1 3 -3.5 13.5t-5 16.5t-6.5 14.5t-9.5 15t-13.5 10.5q30 6 30 45q0 59 -76 59h-71zM1778 678v174h-47v-174h47zM2157 678v174h-48v-100l-73 100h-41v-174h45v98l74 -98h43zM1444 768v45h29q30 0 30 -22q0 -23 -28 -23h-31z M1927 764q0 -47 -41 -47t-41 47q0 49 41 49t41 -49zM2218 813q-10 0 -17.5 -7.5t-7.5 -17.5q0 -11 7.5 -18.5t17.5 -7.5q12 0 19.5 7.5t7.5 18.5t-7.5 18t-19.5 7zM2218 727q-10 0 -17.5 -7.5t-7.5 -17.5q0 -11 7.5 -18.5t17.5 -7.5q12 0 19.5 7.5t7.5 18.5t-7.5 18t-19.5 7 zM1081 475q0 43 -23.5 66.5t-64.5 23.5t-63.5 -23.5t-22.5 -66.5q0 -90 86 -90q42 0 65 23t23 67zM1569 510l14 35q-48 20 -78 20q-27 0 -42 -15t-15 -38q0 -41 49 -55q24 -6 30.5 -10t6.5 -11q0 -12 -14 -12q-26 0 -62 20l-18 -34q36 -25 82 -25q63 0 63 53 q0 22 -10.5 34.5t-36.5 21.5l-15 5q-27 11 -28 17q0 10 16 10q15 0 58 -16zM1839 403l-16 37q-32 -14 -56 -14q-19 0 -30 13t-11 36q0 47 43 47q23 0 50 -8l12 33q-27 18 -64 18q-41 0 -64.5 -23.5t-23.5 -66.5q0 -44 23 -67t63 -23q33 0 74 18zM2021 475q0 43 -23.5 66.5 t-64.5 23.5q-40 0 -64 -24t-24 -66q0 -43 23.5 -66.5t64.5 -23.5q42 0 65 23t23 67zM520 387h49l-8 174h-51l-41 -94q-2 -4 -2 -12l-6 12l-39 94h-53l-7 -174h50v100l41 -100h26l41 100v-100zM692 442l64 119h-49l-29 -55q-2 -3 -5 -10.5t-5 -10.5q-2 3 -5.5 10.5t-5.5 10.5 l-28 55h-49l65 -119v-55h47v55zM815 485v33h78v43h-125v-174h47v57h68v41h-68zM1264 387v174h-47v-98l-74 98h-41v-174h47v98l74 -98h41zM1434 518v43h-154v-43h55v-131h45v131h54zM2198 387h51l-8 174h-54l-39 -94q-1 -2 -2 -6.5t-2 -5.5q0 4 -4 12l-41 94h-51l-6 -174h47 v100l41 -100h27l41 100v-100zM1034 475q0 -49 -41 -49q-19 0 -30 13t-11 36q0 47 41 47t41 -47zM1974 475q0 -49 -41 -49q-19 0 -30 13t-11 36q0 47 41 47t41 -47zM1638 436q-10 0 -17 -7t-7 -17q0 -11 7 -19t17 -8q12 0 19.5 8t7.5 19t-7.5 17.5t-19.5 6.5z" />
<glyph unicode="&#x26;" d="M2501 1075h-2358v-923h2358v923zM221 997h2202v-768h-2202v768zM1692 801l14 33q-41 20 -80 20q-26 0 -41.5 -14.5t-15.5 -36.5q0 -40 49 -55q25 -6 32 -10t7 -11q0 -12 -17 -12q-22 0 -61 20l-16 -35q35 -24 82 -24q29 0 46 14t17 39q0 22 -10.5 34t-36.5 19 q-29 9 -37 13t-8 10q0 12 16 12q17 0 60 -16zM1974 764q0 44 -23 67t-65 23t-65 -23t-23 -67q0 -41 23.5 -64.5t64.5 -23.5t64.5 23.5t23.5 64.5zM426 774v35h78v43h-125v-174h47v55h68v41h-68zM684 852h-47v-90q0 -45 -35 -45q-31 0 -31 45v90h-47v-90q0 -86 78 -86 q82 0 82 86v90zM834 678v43h-78v131h-45v-174h123zM979 678v43h-78v131h-45v-174h123zM1165 678l66 174h-49l-37 -111l-6 -16q-4 12 -4 16l-37 111h-51l67 -174h51zM1376 678v43h-84v22h68v39h-68v27h80v43h-127v-174h131zM1399 852v-174h45v53h22q4 0 7.5 -1.5t6.5 -5 t5.5 -7t5 -9.5t3.5 -9.5t3.5 -10.5t3.5 -10h53q-1 3 -3.5 13.5t-5 16.5t-6.5 14.5t-9.5 15t-13.5 10.5q30 6 30 45q0 59 -76 59h-71zM1778 678v174h-47v-174h47zM2157 678v174h-48v-100l-73 100h-41v-174h45v98l74 -98h43zM1444 768v45h29q30 0 30 -22q0 -23 -28 -23h-31z M1927 764q0 -47 -41 -47t-41 47q0 49 41 49t41 -49zM2218 813q-10 0 -17.5 -7.5t-7.5 -17.5q0 -11 7.5 -18.5t17.5 -7.5q12 0 19.5 7.5t7.5 18.5t-7.5 18t-19.5 7zM2218 727q-10 0 -17.5 -7.5t-7.5 -17.5q0 -11 7.5 -18.5t17.5 -7.5q12 0 19.5 7.5t7.5 18.5t-7.5 18t-19.5 7 zM1081 475q0 43 -23.5 66.5t-64.5 23.5t-63.5 -23.5t-22.5 -66.5q0 -90 86 -90q42 0 65 23t23 67zM1569 510l14 35q-48 20 -78 20q-27 0 -42 -15t-15 -38q0 -41 49 -55q24 -6 30.5 -10t6.5 -11q0 -12 -14 -12q-26 0 -62 20l-18 -34q36 -25 82 -25q63 0 63 53 q0 22 -10.5 34.5t-36.5 21.5l-15 5q-27 11 -28 17q0 10 16 10q15 0 58 -16zM1839 403l-16 37q-32 -14 -56 -14q-19 0 -30 13t-11 36q0 47 43 47q23 0 50 -8l12 33q-27 18 -64 18q-41 0 -64.5 -23.5t-23.5 -66.5q0 -44 23 -67t63 -23q33 0 74 18zM2021 475q0 43 -23.5 66.5 t-64.5 23.5q-40 0 -64 -24t-24 -66q0 -43 23.5 -66.5t64.5 -23.5q42 0 65 23t23 67zM520 387h49l-8 174h-51l-41 -94q-2 -4 -2 -12l-6 12l-39 94h-53l-7 -174h50v100l41 -100h26l41 100v-100zM692 442l64 119h-49l-29 -55q-2 -3 -5 -10.5t-5 -10.5q-2 3 -5.5 10.5t-5.5 10.5 l-28 55h-49l65 -119v-55h47v55zM815 485v33h78v43h-125v-174h47v57h68v41h-68zM1264 387v174h-47v-98l-74 98h-41v-174h47v98l74 -98h41zM1434 518v43h-154v-43h55v-131h45v131h54zM2198 387h51l-8 174h-54l-39 -94q-1 -2 -2 -6.5t-2 -5.5q0 4 -4 12l-41 94h-51l-6 -174h47 v100l41 -100h27l41 100v-100zM1034 475q0 -49 -41 -49q-19 0 -30 13t-11 36q0 47 41 47t41 -47zM1974 475q0 -49 -41 -49q-19 0 -30 13t-11 36q0 47 41 47t41 -47zM1638 436q-10 0 -17 -7t-7 -17q0 -11 7 -19t17 -8q12 0 19.5 8t7.5 19t-7.5 17.5t-19.5 6.5z" />
<glyph unicode="'" d="M2501 1075h-2358v-923h2358v923zM221 997h2202v-768h-2202v768zM1692 801l14 33q-41 20 -80 20q-26 0 -41.5 -14.5t-15.5 -36.5q0 -40 49 -55q25 -6 32 -10t7 -11q0 -12 -17 -12q-22 0 -61 20l-16 -35q35 -24 82 -24q29 0 46 14t17 39q0 22 -10.5 34t-36.5 19 q-29 9 -37 13t-8 10q0 12 16 12q17 0 60 -16zM1974 764q0 44 -23 67t-65 23t-65 -23t-23 -67q0 -41 23.5 -64.5t64.5 -23.5t64.5 23.5t23.5 64.5zM426 774v35h78v43h-125v-174h47v55h68v41h-68zM684 852h-47v-90q0 -45 -35 -45q-31 0 -31 45v90h-47v-90q0 -86 78 -86 q82 0 82 86v90zM834 678v43h-78v131h-45v-174h123zM979 678v43h-78v131h-45v-174h123zM1165 678l66 174h-49l-37 -111l-6 -16q-4 12 -4 16l-37 111h-51l67 -174h51zM1376 678v43h-84v22h68v39h-68v27h80v43h-127v-174h131zM1399 852v-174h45v53h22q4 0 7.5 -1.5t6.5 -5 t5.5 -7t5 -9.5t3.5 -9.5t3.5 -10.5t3.5 -10h53q-1 3 -3.5 13.5t-5 16.5t-6.5 14.5t-9.5 15t-13.5 10.5q30 6 30 45q0 59 -76 59h-71zM1778 678v174h-47v-174h47zM2157 678v174h-48v-100l-73 100h-41v-174h45v98l74 -98h43zM1444 768v45h29q30 0 30 -22q0 -23 -28 -23h-31z M1927 764q0 -47 -41 -47t-41 47q0 49 41 49t41 -49zM2218 813q-10 0 -17.5 -7.5t-7.5 -17.5q0 -11 7.5 -18.5t17.5 -7.5q12 0 19.5 7.5t7.5 18.5t-7.5 18t-19.5 7zM2218 727q-10 0 -17.5 -7.5t-7.5 -17.5q0 -11 7.5 -18.5t17.5 -7.5q12 0 19.5 7.5t7.5 18.5t-7.5 18t-19.5 7 zM1081 475q0 43 -23.5 66.5t-64.5 23.5t-63.5 -23.5t-22.5 -66.5q0 -90 86 -90q42 0 65 23t23 67zM1569 510l14 35q-48 20 -78 20q-27 0 -42 -15t-15 -38q0 -41 49 -55q24 -6 30.5 -10t6.5 -11q0 -12 -14 -12q-26 0 -62 20l-18 -34q36 -25 82 -25q63 0 63 53 q0 22 -10.5 34.5t-36.5 21.5l-15 5q-27 11 -28 17q0 10 16 10q15 0 58 -16zM1839 403l-16 37q-32 -14 -56 -14q-19 0 -30 13t-11 36q0 47 43 47q23 0 50 -8l12 33q-27 18 -64 18q-41 0 -64.5 -23.5t-23.5 -66.5q0 -44 23 -67t63 -23q33 0 74 18zM2021 475q0 43 -23.5 66.5 t-64.5 23.5q-40 0 -64 -24t-24 -66q0 -43 23.5 -66.5t64.5 -23.5q42 0 65 23t23 67zM520 387h49l-8 174h-51l-41 -94q-2 -4 -2 -12l-6 12l-39 94h-53l-7 -174h50v100l41 -100h26l41 100v-100zM692 442l64 119h-49l-29 -55q-2 -3 -5 -10.5t-5 -10.5q-2 3 -5.5 10.5t-5.5 10.5 l-28 55h-49l65 -119v-55h47v55zM815 485v33h78v43h-125v-174h47v57h68v41h-68zM1264 387v174h-47v-98l-74 98h-41v-174h47v98l74 -98h41zM1434 518v43h-154v-43h55v-131h45v131h54zM2198 387h51l-8 174h-54l-39 -94q-1 -2 -2 -6.5t-2 -5.5q0 4 -4 12l-41 94h-51l-6 -174h47 v100l41 -100h27l41 100v-100zM1034 475q0 -49 -41 -49q-19 0 -30 13t-11 36q0 47 41 47t41 -47zM1974 475q0 -49 -41 -49q-19 0 -30 13t-11 36q0 47 41 47t41 -47zM1638 436q-10 0 -17 -7t-7 -17q0 -11 7 -19t17 -8q12 0 19.5 8t7.5 19t-7.5 17.5t-19.5 6.5z" />
<glyph unicode="(" d="M2501 1075h-2358v-923h2358v923zM221 997h2202v-768h-2202v768zM1692 801l14 33q-41 20 -80 20q-26 0 -41.5 -14.5t-15.5 -36.5q0 -40 49 -55q25 -6 32 -10t7 -11q0 -12 -17 -12q-22 0 -61 20l-16 -35q35 -24 82 -24q29 0 46 14t17 39q0 22 -10.5 34t-36.5 19 q-29 9 -37 13t-8 10q0 12 16 12q17 0 60 -16zM1974 764q0 44 -23 67t-65 23t-65 -23t-23 -67q0 -41 23.5 -64.5t64.5 -23.5t64.5 23.5t23.5 64.5zM426 774v35h78v43h-125v-174h47v55h68v41h-68zM684 852h-47v-90q0 -45 -35 -45q-31 0 -31 45v90h-47v-90q0 -86 78 -86 q82 0 82 86v90zM834 678v43h-78v131h-45v-174h123zM979 678v43h-78v131h-45v-174h123zM1165 678l66 174h-49l-37 -111l-6 -16q-4 12 -4 16l-37 111h-51l67 -174h51zM1376 678v43h-84v22h68v39h-68v27h80v43h-127v-174h131zM1399 852v-174h45v53h22q4 0 7.5 -1.5t6.5 -5 t5.5 -7t5 -9.5t3.5 -9.5t3.5 -10.5t3.5 -10h53q-1 3 -3.5 13.5t-5 16.5t-6.5 14.5t-9.5 15t-13.5 10.5q30 6 30 45q0 59 -76 59h-71zM1778 678v174h-47v-174h47zM2157 678v174h-48v-100l-73 100h-41v-174h45v98l74 -98h43zM1444 768v45h29q30 0 30 -22q0 -23 -28 -23h-31z M1927 764q0 -47 -41 -47t-41 47q0 49 41 49t41 -49zM2218 813q-10 0 -17.5 -7.5t-7.5 -17.5q0 -11 7.5 -18.5t17.5 -7.5q12 0 19.5 7.5t7.5 18.5t-7.5 18t-19.5 7zM2218 727q-10 0 -17.5 -7.5t-7.5 -17.5q0 -11 7.5 -18.5t17.5 -7.5q12 0 19.5 7.5t7.5 18.5t-7.5 18t-19.5 7 zM1081 475q0 43 -23.5 66.5t-64.5 23.5t-63.5 -23.5t-22.5 -66.5q0 -90 86 -90q42 0 65 23t23 67zM1569 510l14 35q-48 20 -78 20q-27 0 -42 -15t-15 -38q0 -41 49 -55q24 -6 30.5 -10t6.5 -11q0 -12 -14 -12q-26 0 -62 20l-18 -34q36 -25 82 -25q63 0 63 53 q0 22 -10.5 34.5t-36.5 21.5l-15 5q-27 11 -28 17q0 10 16 10q15 0 58 -16zM1839 403l-16 37q-32 -14 -56 -14q-19 0 -30 13t-11 36q0 47 43 47q23 0 50 -8l12 33q-27 18 -64 18q-41 0 -64.5 -23.5t-23.5 -66.5q0 -44 23 -67t63 -23q33 0 74 18zM2021 475q0 43 -23.5 66.5 t-64.5 23.5q-40 0 -64 -24t-24 -66q0 -43 23.5 -66.5t64.5 -23.5q42 0 65 23t23 67zM520 387h49l-8 174h-51l-41 -94q-2 -4 -2 -12l-6 12l-39 94h-53l-7 -174h50v100l41 -100h26l41 100v-100zM692 442l64 119h-49l-29 -55q-2 -3 -5 -10.5t-5 -10.5q-2 3 -5.5 10.5t-5.5 10.5 l-28 55h-49l65 -119v-55h47v55zM815 485v33h78v43h-125v-174h47v57h68v41h-68zM1264 387v174h-47v-98l-74 98h-41v-174h47v98l74 -98h41zM1434 518v43h-154v-43h55v-131h45v131h54zM2198 387h51l-8 174h-54l-39 -94q-1 -2 -2 -6.5t-2 -5.5q0 4 -4 12l-41 94h-51l-6 -174h47 v100l41 -100h27l41 100v-100zM1034 475q0 -49 -41 -49q-19 0 -30 13t-11 36q0 47 41 47t41 -47zM1974 475q0 -49 -41 -49q-19 0 -30 13t-11 36q0 47 41 47t41 -47zM1638 436q-10 0 -17 -7t-7 -17q0 -11 7 -19t17 -8q12 0 19.5 8t7.5 19t-7.5 17.5t-19.5 6.5z" />
<glyph unicode=")" d="M2501 1075h-2358v-923h2358v923zM221 997h2202v-768h-2202v768zM1692 801l14 33q-41 20 -80 20q-26 0 -41.5 -14.5t-15.5 -36.5q0 -40 49 -55q25 -6 32 -10t7 -11q0 -12 -17 -12q-22 0 -61 20l-16 -35q35 -24 82 -24q29 0 46 14t17 39q0 22 -10.5 34t-36.5 19 q-29 9 -37 13t-8 10q0 12 16 12q17 0 60 -16zM1974 764q0 44 -23 67t-65 23t-65 -23t-23 -67q0 -41 23.5 -64.5t64.5 -23.5t64.5 23.5t23.5 64.5zM426 774v35h78v43h-125v-174h47v55h68v41h-68zM684 852h-47v-90q0 -45 -35 -45q-31 0 -31 45v90h-47v-90q0 -86 78 -86 q82 0 82 86v90zM834 678v43h-78v131h-45v-174h123zM979 678v43h-78v131h-45v-174h123zM1165 678l66 174h-49l-37 -111l-6 -16q-4 12 -4 16l-37 111h-51l67 -174h51zM1376 678v43h-84v22h68v39h-68v27h80v43h-127v-174h131zM1399 852v-174h45v53h22q4 0 7.5 -1.5t6.5 -5 t5.5 -7t5 -9.5t3.5 -9.5t3.5 -10.5t3.5 -10h53q-1 3 -3.5 13.5t-5 16.5t-6.5 14.5t-9.5 15t-13.5 10.5q30 6 30 45q0 59 -76 59h-71zM1778 678v174h-47v-174h47zM2157 678v174h-48v-100l-73 100h-41v-174h45v98l74 -98h43zM1444 768v45h29q30 0 30 -22q0 -23 -28 -23h-31z M1927 764q0 -47 -41 -47t-41 47q0 49 41 49t41 -49zM2218 813q-10 0 -17.5 -7.5t-7.5 -17.5q0 -11 7.5 -18.5t17.5 -7.5q12 0 19.5 7.5t7.5 18.5t-7.5 18t-19.5 7zM2218 727q-10 0 -17.5 -7.5t-7.5 -17.5q0 -11 7.5 -18.5t17.5 -7.5q12 0 19.5 7.5t7.5 18.5t-7.5 18t-19.5 7 zM1081 475q0 43 -23.5 66.5t-64.5 23.5t-63.5 -23.5t-22.5 -66.5q0 -90 86 -90q42 0 65 23t23 67zM1569 510l14 35q-48 20 -78 20q-27 0 -42 -15t-15 -38q0 -41 49 -55q24 -6 30.5 -10t6.5 -11q0 -12 -14 -12q-26 0 -62 20l-18 -34q36 -25 82 -25q63 0 63 53 q0 22 -10.5 34.5t-36.5 21.5l-15 5q-27 11 -28 17q0 10 16 10q15 0 58 -16zM1839 403l-16 37q-32 -14 -56 -14q-19 0 -30 13t-11 36q0 47 43 47q23 0 50 -8l12 33q-27 18 -64 18q-41 0 -64.5 -23.5t-23.5 -66.5q0 -44 23 -67t63 -23q33 0 74 18zM2021 475q0 43 -23.5 66.5 t-64.5 23.5q-40 0 -64 -24t-24 -66q0 -43 23.5 -66.5t64.5 -23.5q42 0 65 23t23 67zM520 387h49l-8 174h-51l-41 -94q-2 -4 -2 -12l-6 12l-39 94h-53l-7 -174h50v100l41 -100h26l41 100v-100zM692 442l64 119h-49l-29 -55q-2 -3 -5 -10.5t-5 -10.5q-2 3 -5.5 10.5t-5.5 10.5 l-28 55h-49l65 -119v-55h47v55zM815 485v33h78v43h-125v-174h47v57h68v41h-68zM1264 387v174h-47v-98l-74 98h-41v-174h47v98l74 -98h41zM1434 518v43h-154v-43h55v-131h45v131h54zM2198 387h51l-8 174h-54l-39 -94q-1 -2 -2 -6.5t-2 -5.5q0 4 -4 12l-41 94h-51l-6 -174h47 v100l41 -100h27l41 100v-100zM1034 475q0 -49 -41 -49q-19 0 -30 13t-11 36q0 47 41 47t41 -47zM1974 475q0 -49 -41 -49q-19 0 -30 13t-11 36q0 47 41 47t41 -47zM1638 436q-10 0 -17 -7t-7 -17q0 -11 7 -19t17 -8q12 0 19.5 8t7.5 19t-7.5 17.5t-19.5 6.5z" />
<glyph unicode="*" d="M2501 1075h-2358v-923h2358v923zM221 997h2202v-768h-2202v768zM1692 801l14 33q-41 20 -80 20q-26 0 -41.5 -14.5t-15.5 -36.5q0 -40 49 -55q25 -6 32 -10t7 -11q0 -12 -17 -12q-22 0 -61 20l-16 -35q35 -24 82 -24q29 0 46 14t17 39q0 22 -10.5 34t-36.5 19 q-29 9 -37 13t-8 10q0 12 16 12q17 0 60 -16zM1974 764q0 44 -23 67t-65 23t-65 -23t-23 -67q0 -41 23.5 -64.5t64.5 -23.5t64.5 23.5t23.5 64.5zM426 774v35h78v43h-125v-174h47v55h68v41h-68zM684 852h-47v-90q0 -45 -35 -45q-31 0 -31 45v90h-47v-90q0 -86 78 -86 q82 0 82 86v90zM834 678v43h-78v131h-45v-174h123zM979 678v43h-78v131h-45v-174h123zM1165 678l66 174h-49l-37 -111l-6 -16q-4 12 -4 16l-37 111h-51l67 -174h51zM1376 678v43h-84v22h68v39h-68v27h80v43h-127v-174h131zM1399 852v-174h45v53h22q4 0 7.5 -1.5t6.5 -5 t5.5 -7t5 -9.5t3.5 -9.5t3.5 -10.5t3.5 -10h53q-1 3 -3.5 13.5t-5 16.5t-6.5 14.5t-9.5 15t-13.5 10.5q30 6 30 45q0 59 -76 59h-71zM1778 678v174h-47v-174h47zM2157 678v174h-48v-100l-73 100h-41v-174h45v98l74 -98h43zM1444 768v45h29q30 0 30 -22q0 -23 -28 -23h-31z M1927 764q0 -47 -41 -47t-41 47q0 49 41 49t41 -49zM2218 813q-10 0 -17.5 -7.5t-7.5 -17.5q0 -11 7.5 -18.5t17.5 -7.5q12 0 19.5 7.5t7.5 18.5t-7.5 18t-19.5 7zM2218 727q-10 0 -17.5 -7.5t-7.5 -17.5q0 -11 7.5 -18.5t17.5 -7.5q12 0 19.5 7.5t7.5 18.5t-7.5 18t-19.5 7 zM1081 475q0 43 -23.5 66.5t-64.5 23.5t-63.5 -23.5t-22.5 -66.5q0 -90 86 -90q42 0 65 23t23 67zM1569 510l14 35q-48 20 -78 20q-27 0 -42 -15t-15 -38q0 -41 49 -55q24 -6 30.5 -10t6.5 -11q0 -12 -14 -12q-26 0 -62 20l-18 -34q36 -25 82 -25q63 0 63 53 q0 22 -10.5 34.5t-36.5 21.5l-15 5q-27 11 -28 17q0 10 16 10q15 0 58 -16zM1839 403l-16 37q-32 -14 -56 -14q-19 0 -30 13t-11 36q0 47 43 47q23 0 50 -8l12 33q-27 18 -64 18q-41 0 -64.5 -23.5t-23.5 -66.5q0 -44 23 -67t63 -23q33 0 74 18zM2021 475q0 43 -23.5 66.5 t-64.5 23.5q-40 0 -64 -24t-24 -66q0 -43 23.5 -66.5t64.5 -23.5q42 0 65 23t23 67zM520 387h49l-8 174h-51l-41 -94q-2 -4 -2 -12l-6 12l-39 94h-53l-7 -174h50v100l41 -100h26l41 100v-100zM692 442l64 119h-49l-29 -55q-2 -3 -5 -10.5t-5 -10.5q-2 3 -5.5 10.5t-5.5 10.5 l-28 55h-49l65 -119v-55h47v55zM815 485v33h78v43h-125v-174h47v57h68v41h-68zM1264 387v174h-47v-98l-74 98h-41v-174h47v98l74 -98h41zM1434 518v43h-154v-43h55v-131h45v131h54zM2198 387h51l-8 174h-54l-39 -94q-1 -2 -2 -6.5t-2 -5.5q0 4 -4 12l-41 94h-51l-6 -174h47 v100l41 -100h27l41 100v-100zM1034 475q0 -49 -41 -49q-19 0 -30 13t-11 36q0 47 41 47t41 -47zM1974 475q0 -49 -41 -49q-19 0 -30 13t-11 36q0 47 41 47t41 -47zM1638 436q-10 0 -17 -7t-7 -17q0 -11 7 -19t17 -8q12 0 19.5 8t7.5 19t-7.5 17.5t-19.5 6.5z" />
<glyph unicode="," d="M2501 1075h-2358v-923h2358v923zM221 997h2202v-768h-2202v768zM1692 801l14 33q-41 20 -80 20q-26 0 -41.5 -14.5t-15.5 -36.5q0 -40 49 -55q25 -6 32 -10t7 -11q0 -12 -17 -12q-22 0 -61 20l-16 -35q35 -24 82 -24q29 0 46 14t17 39q0 22 -10.5 34t-36.5 19 q-29 9 -37 13t-8 10q0 12 16 12q17 0 60 -16zM1974 764q0 44 -23 67t-65 23t-65 -23t-23 -67q0 -41 23.5 -64.5t64.5 -23.5t64.5 23.5t23.5 64.5zM426 774v35h78v43h-125v-174h47v55h68v41h-68zM684 852h-47v-90q0 -45 -35 -45q-31 0 -31 45v90h-47v-90q0 -86 78 -86 q82 0 82 86v90zM834 678v43h-78v131h-45v-174h123zM979 678v43h-78v131h-45v-174h123zM1165 678l66 174h-49l-37 -111l-6 -16q-4 12 -4 16l-37 111h-51l67 -174h51zM1376 678v43h-84v22h68v39h-68v27h80v43h-127v-174h131zM1399 852v-174h45v53h22q4 0 7.5 -1.5t6.5 -5 t5.5 -7t5 -9.5t3.5 -9.5t3.5 -10.5t3.5 -10h53q-1 3 -3.5 13.5t-5 16.5t-6.5 14.5t-9.5 15t-13.5 10.5q30 6 30 45q0 59 -76 59h-71zM1778 678v174h-47v-174h47zM2157 678v174h-48v-100l-73 100h-41v-174h45v98l74 -98h43zM1444 768v45h29q30 0 30 -22q0 -23 -28 -23h-31z M1927 764q0 -47 -41 -47t-41 47q0 49 41 49t41 -49zM2218 813q-10 0 -17.5 -7.5t-7.5 -17.5q0 -11 7.5 -18.5t17.5 -7.5q12 0 19.5 7.5t7.5 18.5t-7.5 18t-19.5 7zM2218 727q-10 0 -17.5 -7.5t-7.5 -17.5q0 -11 7.5 -18.5t17.5 -7.5q12 0 19.5 7.5t7.5 18.5t-7.5 18t-19.5 7 zM1081 475q0 43 -23.5 66.5t-64.5 23.5t-63.5 -23.5t-22.5 -66.5q0 -90 86 -90q42 0 65 23t23 67zM1569 510l14 35q-48 20 -78 20q-27 0 -42 -15t-15 -38q0 -41 49 -55q24 -6 30.5 -10t6.5 -11q0 -12 -14 -12q-26 0 -62 20l-18 -34q36 -25 82 -25q63 0 63 53 q0 22 -10.5 34.5t-36.5 21.5l-15 5q-27 11 -28 17q0 10 16 10q15 0 58 -16zM1839 403l-16 37q-32 -14 -56 -14q-19 0 -30 13t-11 36q0 47 43 47q23 0 50 -8l12 33q-27 18 -64 18q-41 0 -64.5 -23.5t-23.5 -66.5q0 -44 23 -67t63 -23q33 0 74 18zM2021 475q0 43 -23.5 66.5 t-64.5 23.5q-40 0 -64 -24t-24 -66q0 -43 23.5 -66.5t64.5 -23.5q42 0 65 23t23 67zM520 387h49l-8 174h-51l-41 -94q-2 -4 -2 -12l-6 12l-39 94h-53l-7 -174h50v100l41 -100h26l41 100v-100zM692 442l64 119h-49l-29 -55q-2 -3 -5 -10.5t-5 -10.5q-2 3 -5.5 10.5t-5.5 10.5 l-28 55h-49l65 -119v-55h47v55zM815 485v33h78v43h-125v-174h47v57h68v41h-68zM1264 387v174h-47v-98l-74 98h-41v-174h47v98l74 -98h41zM1434 518v43h-154v-43h55v-131h45v131h54zM2198 387h51l-8 174h-54l-39 -94q-1 -2 -2 -6.5t-2 -5.5q0 4 -4 12l-41 94h-51l-6 -174h47 v100l41 -100h27l41 100v-100zM1034 475q0 -49 -41 -49q-19 0 -30 13t-11 36q0 47 41 47t41 -47zM1974 475q0 -49 -41 -49q-19 0 -30 13t-11 36q0 47 41 47t41 -47zM1638 436q-10 0 -17 -7t-7 -17q0 -11 7 -19t17 -8q12 0 19.5 8t7.5 19t-7.5 17.5t-19.5 6.5z" />
<glyph unicode="-" d="M2501 1075h-2358v-923h2358v923zM221 997h2202v-768h-2202v768zM1692 801l14 33q-41 20 -80 20q-26 0 -41.5 -14.5t-15.5 -36.5q0 -40 49 -55q25 -6 32 -10t7 -11q0 -12 -17 -12q-22 0 -61 20l-16 -35q35 -24 82 -24q29 0 46 14t17 39q0 22 -10.5 34t-36.5 19 q-29 9 -37 13t-8 10q0 12 16 12q17 0 60 -16zM1974 764q0 44 -23 67t-65 23t-65 -23t-23 -67q0 -41 23.5 -64.5t64.5 -23.5t64.5 23.5t23.5 64.5zM426 774v35h78v43h-125v-174h47v55h68v41h-68zM684 852h-47v-90q0 -45 -35 -45q-31 0 -31 45v90h-47v-90q0 -86 78 -86 q82 0 82 86v90zM834 678v43h-78v131h-45v-174h123zM979 678v43h-78v131h-45v-174h123zM1165 678l66 174h-49l-37 -111l-6 -16q-4 12 -4 16l-37 111h-51l67 -174h51zM1376 678v43h-84v22h68v39h-68v27h80v43h-127v-174h131zM1399 852v-174h45v53h22q4 0 7.5 -1.5t6.5 -5 t5.5 -7t5 -9.5t3.5 -9.5t3.5 -10.5t3.5 -10h53q-1 3 -3.5 13.5t-5 16.5t-6.5 14.5t-9.5 15t-13.5 10.5q30 6 30 45q0 59 -76 59h-71zM1778 678v174h-47v-174h47zM2157 678v174h-48v-100l-73 100h-41v-174h45v98l74 -98h43zM1444 768v45h29q30 0 30 -22q0 -23 -28 -23h-31z M1927 764q0 -47 -41 -47t-41 47q0 49 41 49t41 -49zM2218 813q-10 0 -17.5 -7.5t-7.5 -17.5q0 -11 7.5 -18.5t17.5 -7.5q12 0 19.5 7.5t7.5 18.5t-7.5 18t-19.5 7zM2218 727q-10 0 -17.5 -7.5t-7.5 -17.5q0 -11 7.5 -18.5t17.5 -7.5q12 0 19.5 7.5t7.5 18.5t-7.5 18t-19.5 7 zM1081 475q0 43 -23.5 66.5t-64.5 23.5t-63.5 -23.5t-22.5 -66.5q0 -90 86 -90q42 0 65 23t23 67zM1569 510l14 35q-48 20 -78 20q-27 0 -42 -15t-15 -38q0 -41 49 -55q24 -6 30.5 -10t6.5 -11q0 -12 -14 -12q-26 0 -62 20l-18 -34q36 -25 82 -25q63 0 63 53 q0 22 -10.5 34.5t-36.5 21.5l-15 5q-27 11 -28 17q0 10 16 10q15 0 58 -16zM1839 403l-16 37q-32 -14 -56 -14q-19 0 -30 13t-11 36q0 47 43 47q23 0 50 -8l12 33q-27 18 -64 18q-41 0 -64.5 -23.5t-23.5 -66.5q0 -44 23 -67t63 -23q33 0 74 18zM2021 475q0 43 -23.5 66.5 t-64.5 23.5q-40 0 -64 -24t-24 -66q0 -43 23.5 -66.5t64.5 -23.5q42 0 65 23t23 67zM520 387h49l-8 174h-51l-41 -94q-2 -4 -2 -12l-6 12l-39 94h-53l-7 -174h50v100l41 -100h26l41 100v-100zM692 442l64 119h-49l-29 -55q-2 -3 -5 -10.5t-5 -10.5q-2 3 -5.5 10.5t-5.5 10.5 l-28 55h-49l65 -119v-55h47v55zM815 485v33h78v43h-125v-174h47v57h68v41h-68zM1264 387v174h-47v-98l-74 98h-41v-174h47v98l74 -98h41zM1434 518v43h-154v-43h55v-131h45v131h54zM2198 387h51l-8 174h-54l-39 -94q-1 -2 -2 -6.5t-2 -5.5q0 4 -4 12l-41 94h-51l-6 -174h47 v100l41 -100h27l41 100v-100zM1034 475q0 -49 -41 -49q-19 0 -30 13t-11 36q0 47 41 47t41 -47zM1974 475q0 -49 -41 -49q-19 0 -30 13t-11 36q0 47 41 47t41 -47zM1638 436q-10 0 -17 -7t-7 -17q0 -11 7 -19t17 -8q12 0 19.5 8t7.5 19t-7.5 17.5t-19.5 6.5z" />
<glyph unicode="." d="M2501 1075h-2358v-923h2358v923zM221 997h2202v-768h-2202v768zM1692 801l14 33q-41 20 -80 20q-26 0 -41.5 -14.5t-15.5 -36.5q0 -40 49 -55q25 -6 32 -10t7 -11q0 -12 -17 -12q-22 0 -61 20l-16 -35q35 -24 82 -24q29 0 46 14t17 39q0 22 -10.5 34t-36.5 19 q-29 9 -37 13t-8 10q0 12 16 12q17 0 60 -16zM1974 764q0 44 -23 67t-65 23t-65 -23t-23 -67q0 -41 23.5 -64.5t64.5 -23.5t64.5 23.5t23.5 64.5zM426 774v35h78v43h-125v-174h47v55h68v41h-68zM684 852h-47v-90q0 -45 -35 -45q-31 0 -31 45v90h-47v-90q0 -86 78 -86 q82 0 82 86v90zM834 678v43h-78v131h-45v-174h123zM979 678v43h-78v131h-45v-174h123zM1165 678l66 174h-49l-37 -111l-6 -16q-4 12 -4 16l-37 111h-51l67 -174h51zM1376 678v43h-84v22h68v39h-68v27h80v43h-127v-174h131zM1399 852v-174h45v53h22q4 0 7.5 -1.5t6.5 -5 t5.5 -7t5 -9.5t3.5 -9.5t3.5 -10.5t3.5 -10h53q-1 3 -3.5 13.5t-5 16.5t-6.5 14.5t-9.5 15t-13.5 10.5q30 6 30 45q0 59 -76 59h-71zM1778 678v174h-47v-174h47zM2157 678v174h-48v-100l-73 100h-41v-174h45v98l74 -98h43zM1444 768v45h29q30 0 30 -22q0 -23 -28 -23h-31z M1927 764q0 -47 -41 -47t-41 47q0 49 41 49t41 -49zM2218 813q-10 0 -17.5 -7.5t-7.5 -17.5q0 -11 7.5 -18.5t17.5 -7.5q12 0 19.5 7.5t7.5 18.5t-7.5 18t-19.5 7zM2218 727q-10 0 -17.5 -7.5t-7.5 -17.5q0 -11 7.5 -18.5t17.5 -7.5q12 0 19.5 7.5t7.5 18.5t-7.5 18t-19.5 7 zM1081 475q0 43 -23.5 66.5t-64.5 23.5t-63.5 -23.5t-22.5 -66.5q0 -90 86 -90q42 0 65 23t23 67zM1569 510l14 35q-48 20 -78 20q-27 0 -42 -15t-15 -38q0 -41 49 -55q24 -6 30.5 -10t6.5 -11q0 -12 -14 -12q-26 0 -62 20l-18 -34q36 -25 82 -25q63 0 63 53 q0 22 -10.5 34.5t-36.5 21.5l-15 5q-27 11 -28 17q0 10 16 10q15 0 58 -16zM1839 403l-16 37q-32 -14 -56 -14q-19 0 -30 13t-11 36q0 47 43 47q23 0 50 -8l12 33q-27 18 -64 18q-41 0 -64.5 -23.5t-23.5 -66.5q0 -44 23 -67t63 -23q33 0 74 18zM2021 475q0 43 -23.5 66.5 t-64.5 23.5q-40 0 -64 -24t-24 -66q0 -43 23.5 -66.5t64.5 -23.5q42 0 65 23t23 67zM520 387h49l-8 174h-51l-41 -94q-2 -4 -2 -12l-6 12l-39 94h-53l-7 -174h50v100l41 -100h26l41 100v-100zM692 442l64 119h-49l-29 -55q-2 -3 -5 -10.5t-5 -10.5q-2 3 -5.5 10.5t-5.5 10.5 l-28 55h-49l65 -119v-55h47v55zM815 485v33h78v43h-125v-174h47v57h68v41h-68zM1264 387v174h-47v-98l-74 98h-41v-174h47v98l74 -98h41zM1434 518v43h-154v-43h55v-131h45v131h54zM2198 387h51l-8 174h-54l-39 -94q-1 -2 -2 -6.5t-2 -5.5q0 4 -4 12l-41 94h-51l-6 -174h47 v100l41 -100h27l41 100v-100zM1034 475q0 -49 -41 -49q-19 0 -30 13t-11 36q0 47 41 47t41 -47zM1974 475q0 -49 -41 -49q-19 0 -30 13t-11 36q0 47 41 47t41 -47zM1638 436q-10 0 -17 -7t-7 -17q0 -11 7 -19t17 -8q12 0 19.5 8t7.5 19t-7.5 17.5t-19.5 6.5z" />
<glyph unicode="/" d="M2501 1075h-2358v-923h2358v923zM221 997h2202v-768h-2202v768zM1692 801l14 33q-41 20 -80 20q-26 0 -41.5 -14.5t-15.5 -36.5q0 -40 49 -55q25 -6 32 -10t7 -11q0 -12 -17 -12q-22 0 -61 20l-16 -35q35 -24 82 -24q29 0 46 14t17 39q0 22 -10.5 34t-36.5 19 q-29 9 -37 13t-8 10q0 12 16 12q17 0 60 -16zM1974 764q0 44 -23 67t-65 23t-65 -23t-23 -67q0 -41 23.5 -64.5t64.5 -23.5t64.5 23.5t23.5 64.5zM426 774v35h78v43h-125v-174h47v55h68v41h-68zM684 852h-47v-90q0 -45 -35 -45q-31 0 -31 45v90h-47v-90q0 -86 78 -86 q82 0 82 86v90zM834 678v43h-78v131h-45v-174h123zM979 678v43h-78v131h-45v-174h123zM1165 678l66 174h-49l-37 -111l-6 -16q-4 12 -4 16l-37 111h-51l67 -174h51zM1376 678v43h-84v22h68v39h-68v27h80v43h-127v-174h131zM1399 852v-174h45v53h22q4 0 7.5 -1.5t6.5 -5 t5.5 -7t5 -9.5t3.5 -9.5t3.5 -10.5t3.5 -10h53q-1 3 -3.5 13.5t-5 16.5t-6.5 14.5t-9.5 15t-13.5 10.5q30 6 30 45q0 59 -76 59h-71zM1778 678v174h-47v-174h47zM2157 678v174h-48v-100l-73 100h-41v-174h45v98l74 -98h43zM1444 768v45h29q30 0 30 -22q0 -23 -28 -23h-31z M1927 764q0 -47 -41 -47t-41 47q0 49 41 49t41 -49zM2218 813q-10 0 -17.5 -7.5t-7.5 -17.5q0 -11 7.5 -18.5t17.5 -7.5q12 0 19.5 7.5t7.5 18.5t-7.5 18t-19.5 7zM2218 727q-10 0 -17.5 -7.5t-7.5 -17.5q0 -11 7.5 -18.5t17.5 -7.5q12 0 19.5 7.5t7.5 18.5t-7.5 18t-19.5 7 zM1081 475q0 43 -23.5 66.5t-64.5 23.5t-63.5 -23.5t-22.5 -66.5q0 -90 86 -90q42 0 65 23t23 67zM1569 510l14 35q-48 20 -78 20q-27 0 -42 -15t-15 -38q0 -41 49 -55q24 -6 30.5 -10t6.5 -11q0 -12 -14 -12q-26 0 -62 20l-18 -34q36 -25 82 -25q63 0 63 53 q0 22 -10.5 34.5t-36.5 21.5l-15 5q-27 11 -28 17q0 10 16 10q15 0 58 -16zM1839 403l-16 37q-32 -14 -56 -14q-19 0 -30 13t-11 36q0 47 43 47q23 0 50 -8l12 33q-27 18 -64 18q-41 0 -64.5 -23.5t-23.5 -66.5q0 -44 23 -67t63 -23q33 0 74 18zM2021 475q0 43 -23.5 66.5 t-64.5 23.5q-40 0 -64 -24t-24 -66q0 -43 23.5 -66.5t64.5 -23.5q42 0 65 23t23 67zM520 387h49l-8 174h-51l-41 -94q-2 -4 -2 -12l-6 12l-39 94h-53l-7 -174h50v100l41 -100h26l41 100v-100zM692 442l64 119h-49l-29 -55q-2 -3 -5 -10.5t-5 -10.5q-2 3 -5.5 10.5t-5.5 10.5 l-28 55h-49l65 -119v-55h47v55zM815 485v33h78v43h-125v-174h47v57h68v41h-68zM1264 387v174h-47v-98l-74 98h-41v-174h47v98l74 -98h41zM1434 518v43h-154v-43h55v-131h45v131h54zM2198 387h51l-8 174h-54l-39 -94q-1 -2 -2 -6.5t-2 -5.5q0 4 -4 12l-41 94h-51l-6 -174h47 v100l41 -100h27l41 100v-100zM1034 475q0 -49 -41 -49q-19 0 -30 13t-11 36q0 47 41 47t41 -47zM1974 475q0 -49 -41 -49q-19 0 -30 13t-11 36q0 47 41 47t41 -47zM1638 436q-10 0 -17 -7t-7 -17q0 -11 7 -19t17 -8q12 0 19.5 8t7.5 19t-7.5 17.5t-19.5 6.5z" />
<glyph unicode="0" horiz-adv-x="1288" d="M643 1270q294 0 439 -166t145 -483q0 -312 -145 -475.5t-439 -163.5q-293 0 -438.5 163.5t-145.5 475.5q0 316 146 482.5t438 166.5zM643 324q114 0 155.5 70t41.5 227q0 163 -41.5 235t-155.5 72q-113 0 -155 -72t-42 -235q0 -157 42.5 -227t154.5 -70z" />
<glyph unicode="1" horiz-adv-x="1052" d="M997 0h-929v319h299v512q-119 -26 -254 -47l-74 242q159 68 401 223h305v-930h252v-319z" />
<glyph unicode="2" horiz-adv-x="1112" d="M1051 0h-994v268q54 42 138.5 108.5t129.5 102t107 86t94 82t65 67.5t46.5 64t13.5 53q0 59 -37.5 90t-97.5 31q-135 0 -393 -104l-100 266q189 83 313.5 119.5t249.5 36.5q207 0 332.5 -118t125.5 -312q0 -63 -24.5 -123t-63 -109.5t-104.5 -103.5t-129 -97t-156 -100 q164 12 238 12h248z" />
<glyph unicode="3" horiz-adv-x="1163" d="M147 895l-75 250q290 125 530 125q200 0 329.5 -99.5t129.5 -257.5q0 -99 -48.5 -170.5t-125.5 -103.5q106 -44 156.5 -107t50.5 -159q0 -185 -135 -288t-369 -103q-311 0 -563 137l102 256q234 -99 442 -99q160 0 160 105q0 108 -246 108h-170v277h170q125 0 176.5 19.5 t51.5 72.5q0 56 -43 86.5t-119 30.5q-143 0 -404 -80z" />
<glyph unicode="4" horiz-adv-x="1282" d="M1067 209v-209h-369v209h-653l-16 270l669 770h369v-733h174v-307h-174zM698 516v342q-31 -44 -94 -115l-94 -106q-51 -57 -123 -121h311z" />
<glyph unicode="5" horiz-adv-x="1175" d="M467 934l-16 -201q123 76 270 76q186 0 288.5 -102t102.5 -285q0 -105 -40.5 -190t-110.5 -139t-161 -82.5t-196 -28.5q-145 0 -297 33.5t-280 103.5l102 274q225 -98 422 -98q83 0 141 40t58 105q0 56 -41.5 91.5t-112.5 35.5q-91 0 -176 -82l-307 45l43 719h903v-315 h-592z" />
<glyph unicode="6" horiz-adv-x="1202" d="M1114 1184l-88 -264q-187 43 -301 43q-126 0 -196 -64.5t-91 -193.5q133 100 326 100q177 0 285 -105t108 -274q0 -204 -135 -324t-379 -120q-280 0 -432 155.5t-152 423.5q0 165 47.5 298.5t133 223.5t205 138.5t262.5 48.5q198 0 407 -86zM643 283q71 0 115.5 43.5 t44.5 117.5q0 60 -45 95.5t-119 35.5q-54 0 -110 -24.5t-93 -67.5q17 -97 70 -148.5t137 -51.5z" />
<glyph unicode="7" horiz-adv-x="1046" d="M1020 1249v-284q-132 -199 -245.5 -457.5t-182.5 -507.5h-445q212 579 463 930h-581v319h991z" />
<glyph unicode="8" horiz-adv-x="1187" d="M891 686q137 -60 201.5 -134t64.5 -190q0 -181 -145 -280.5t-394 -99.5q-312 0 -449.5 95t-137.5 285q0 187 227 297q-84 49 -129 111.5t-45 149.5q0 171 136.5 260.5t391.5 89.5q239 0 362.5 -86t123.5 -246q0 -84 -50 -145t-157 -107zM594 1032q-64 0 -103.5 -29.5 t-39.5 -76.5q0 -45 39 -74.5t143 -67.5q121 55 121 148q0 44 -44 72t-116 28zM582 266q77 0 122.5 31.5t45.5 83.5q0 45 -50 78t-194 90q-109 -62 -109 -158q0 -60 49.5 -92.5t135.5 -32.5z" />
<glyph unicode="9" horiz-adv-x="1202" d="M92 70l90 264q181 -44 301 -47q122 1 184.5 62t80.5 186q-127 -93 -308 -93q-176 0 -284.5 106.5t-108.5 276.5q0 204 135 324.5t379 120.5q276 0 419.5 -154.5t143.5 -425.5q1 -359 -154 -533.5t-468 -174.5q-199 0 -410 88zM565 676q45 0 96.5 23t90.5 59 q-25 211 -191 211q-73 0 -116.5 -43.5t-43.5 -118.5q0 -60 45 -95.5t119 -35.5z" />
<glyph unicode=":" d="M2501 1075h-2358v-923h2358v923zM221 997h2202v-768h-2202v768zM1692 801l14 33q-41 20 -80 20q-26 0 -41.5 -14.5t-15.5 -36.5q0 -40 49 -55q25 -6 32 -10t7 -11q0 -12 -17 -12q-22 0 -61 20l-16 -35q35 -24 82 -24q29 0 46 14t17 39q0 22 -10.5 34t-36.5 19 q-29 9 -37 13t-8 10q0 12 16 12q17 0 60 -16zM1974 764q0 44 -23 67t-65 23t-65 -23t-23 -67q0 -41 23.5 -64.5t64.5 -23.5t64.5 23.5t23.5 64.5zM426 774v35h78v43h-125v-174h47v55h68v41h-68zM684 852h-47v-90q0 -45 -35 -45q-31 0 -31 45v90h-47v-90q0 -86 78 -86 q82 0 82 86v90zM834 678v43h-78v131h-45v-174h123zM979 678v43h-78v131h-45v-174h123zM1165 678l66 174h-49l-37 -111l-6 -16q-4 12 -4 16l-37 111h-51l67 -174h51zM1376 678v43h-84v22h68v39h-68v27h80v43h-127v-174h131zM1399 852v-174h45v53h22q4 0 7.5 -1.5t6.5 -5 t5.5 -7t5 -9.5t3.5 -9.5t3.5 -10.5t3.5 -10h53q-1 3 -3.5 13.5t-5 16.5t-6.5 14.5t-9.5 15t-13.5 10.5q30 6 30 45q0 59 -76 59h-71zM1778 678v174h-47v-174h47zM2157 678v174h-48v-100l-73 100h-41v-174h45v98l74 -98h43zM1444 768v45h29q30 0 30 -22q0 -23 -28 -23h-31z M1927 764q0 -47 -41 -47t-41 47q0 49 41 49t41 -49zM2218 813q-10 0 -17.5 -7.5t-7.5 -17.5q0 -11 7.5 -18.5t17.5 -7.5q12 0 19.5 7.5t7.5 18.5t-7.5 18t-19.5 7zM2218 727q-10 0 -17.5 -7.5t-7.5 -17.5q0 -11 7.5 -18.5t17.5 -7.5q12 0 19.5 7.5t7.5 18.5t-7.5 18t-19.5 7 zM1081 475q0 43 -23.5 66.5t-64.5 23.5t-63.5 -23.5t-22.5 -66.5q0 -90 86 -90q42 0 65 23t23 67zM1569 510l14 35q-48 20 -78 20q-27 0 -42 -15t-15 -38q0 -41 49 -55q24 -6 30.5 -10t6.5 -11q0 -12 -14 -12q-26 0 -62 20l-18 -34q36 -25 82 -25q63 0 63 53 q0 22 -10.5 34.5t-36.5 21.5l-15 5q-27 11 -28 17q0 10 16 10q15 0 58 -16zM1839 403l-16 37q-32 -14 -56 -14q-19 0 -30 13t-11 36q0 47 43 47q23 0 50 -8l12 33q-27 18 -64 18q-41 0 -64.5 -23.5t-23.5 -66.5q0 -44 23 -67t63 -23q33 0 74 18zM2021 475q0 43 -23.5 66.5 t-64.5 23.5q-40 0 -64 -24t-24 -66q0 -43 23.5 -66.5t64.5 -23.5q42 0 65 23t23 67zM520 387h49l-8 174h-51l-41 -94q-2 -4 -2 -12l-6 12l-39 94h-53l-7 -174h50v100l41 -100h26l41 100v-100zM692 442l64 119h-49l-29 -55q-2 -3 -5 -10.5t-5 -10.5q-2 3 -5.5 10.5t-5.5 10.5 l-28 55h-49l65 -119v-55h47v55zM815 485v33h78v43h-125v-174h47v57h68v41h-68zM1264 387v174h-47v-98l-74 98h-41v-174h47v98l74 -98h41zM1434 518v43h-154v-43h55v-131h45v131h54zM2198 387h51l-8 174h-54l-39 -94q-1 -2 -2 -6.5t-2 -5.5q0 4 -4 12l-41 94h-51l-6 -174h47 v100l41 -100h27l41 100v-100zM1034 475q0 -49 -41 -49q-19 0 -30 13t-11 36q0 47 41 47t41 -47zM1974 475q0 -49 -41 -49q-19 0 -30 13t-11 36q0 47 41 47t41 -47zM1638 436q-10 0 -17 -7t-7 -17q0 -11 7 -19t17 -8q12 0 19.5 8t7.5 19t-7.5 17.5t-19.5 6.5z" />
<glyph unicode=";" d="M2501 1075h-2358v-923h2358v923zM221 997h2202v-768h-2202v768zM1692 801l14 33q-41 20 -80 20q-26 0 -41.5 -14.5t-15.5 -36.5q0 -40 49 -55q25 -6 32 -10t7 -11q0 -12 -17 -12q-22 0 -61 20l-16 -35q35 -24 82 -24q29 0 46 14t17 39q0 22 -10.5 34t-36.5 19 q-29 9 -37 13t-8 10q0 12 16 12q17 0 60 -16zM1974 764q0 44 -23 67t-65 23t-65 -23t-23 -67q0 -41 23.5 -64.5t64.5 -23.5t64.5 23.5t23.5 64.5zM426 774v35h78v43h-125v-174h47v55h68v41h-68zM684 852h-47v-90q0 -45 -35 -45q-31 0 -31 45v90h-47v-90q0 -86 78 -86 q82 0 82 86v90zM834 678v43h-78v131h-45v-174h123zM979 678v43h-78v131h-45v-174h123zM1165 678l66 174h-49l-37 -111l-6 -16q-4 12 -4 16l-37 111h-51l67 -174h51zM1376 678v43h-84v22h68v39h-68v27h80v43h-127v-174h131zM1399 852v-174h45v53h22q4 0 7.5 -1.5t6.5 -5 t5.5 -7t5 -9.5t3.5 -9.5t3.5 -10.5t3.5 -10h53q-1 3 -3.5 13.5t-5 16.5t-6.5 14.5t-9.5 15t-13.5 10.5q30 6 30 45q0 59 -76 59h-71zM1778 678v174h-47v-174h47zM2157 678v174h-48v-100l-73 100h-41v-174h45v98l74 -98h43zM1444 768v45h29q30 0 30 -22q0 -23 -28 -23h-31z M1927 764q0 -47 -41 -47t-41 47q0 49 41 49t41 -49zM2218 813q-10 0 -17.5 -7.5t-7.5 -17.5q0 -11 7.5 -18.5t17.5 -7.5q12 0 19.5 7.5t7.5 18.5t-7.5 18t-19.5 7zM2218 727q-10 0 -17.5 -7.5t-7.5 -17.5q0 -11 7.5 -18.5t17.5 -7.5q12 0 19.5 7.5t7.5 18.5t-7.5 18t-19.5 7 zM1081 475q0 43 -23.5 66.5t-64.5 23.5t-63.5 -23.5t-22.5 -66.5q0 -90 86 -90q42 0 65 23t23 67zM1569 510l14 35q-48 20 -78 20q-27 0 -42 -15t-15 -38q0 -41 49 -55q24 -6 30.5 -10t6.5 -11q0 -12 -14 -12q-26 0 -62 20l-18 -34q36 -25 82 -25q63 0 63 53 q0 22 -10.5 34.5t-36.5 21.5l-15 5q-27 11 -28 17q0 10 16 10q15 0 58 -16zM1839 403l-16 37q-32 -14 -56 -14q-19 0 -30 13t-11 36q0 47 43 47q23 0 50 -8l12 33q-27 18 -64 18q-41 0 -64.5 -23.5t-23.5 -66.5q0 -44 23 -67t63 -23q33 0 74 18zM2021 475q0 43 -23.5 66.5 t-64.5 23.5q-40 0 -64 -24t-24 -66q0 -43 23.5 -66.5t64.5 -23.5q42 0 65 23t23 67zM520 387h49l-8 174h-51l-41 -94q-2 -4 -2 -12l-6 12l-39 94h-53l-7 -174h50v100l41 -100h26l41 100v-100zM692 442l64 119h-49l-29 -55q-2 -3 -5 -10.5t-5 -10.5q-2 3 -5.5 10.5t-5.5 10.5 l-28 55h-49l65 -119v-55h47v55zM815 485v33h78v43h-125v-174h47v57h68v41h-68zM1264 387v174h-47v-98l-74 98h-41v-174h47v98l74 -98h41zM1434 518v43h-154v-43h55v-131h45v131h54zM2198 387h51l-8 174h-54l-39 -94q-1 -2 -2 -6.5t-2 -5.5q0 4 -4 12l-41 94h-51l-6 -174h47 v100l41 -100h27l41 100v-100zM1034 475q0 -49 -41 -49q-19 0 -30 13t-11 36q0 47 41 47t41 -47zM1974 475q0 -49 -41 -49q-19 0 -30 13t-11 36q0 47 41 47t41 -47zM1638 436q-10 0 -17 -7t-7 -17q0 -11 7 -19t17 -8q12 0 19.5 8t7.5 19t-7.5 17.5t-19.5 6.5z" />
<glyph unicode="?" d="M2501 1075h-2358v-923h2358v923zM221 997h2202v-768h-2202v768zM1692 801l14 33q-41 20 -80 20q-26 0 -41.5 -14.5t-15.5 -36.5q0 -40 49 -55q25 -6 32 -10t7 -11q0 -12 -17 -12q-22 0 -61 20l-16 -35q35 -24 82 -24q29 0 46 14t17 39q0 22 -10.5 34t-36.5 19 q-29 9 -37 13t-8 10q0 12 16 12q17 0 60 -16zM1974 764q0 44 -23 67t-65 23t-65 -23t-23 -67q0 -41 23.5 -64.5t64.5 -23.5t64.5 23.5t23.5 64.5zM426 774v35h78v43h-125v-174h47v55h68v41h-68zM684 852h-47v-90q0 -45 -35 -45q-31 0 -31 45v90h-47v-90q0 -86 78 -86 q82 0 82 86v90zM834 678v43h-78v131h-45v-174h123zM979 678v43h-78v131h-45v-174h123zM1165 678l66 174h-49l-37 -111l-6 -16q-4 12 -4 16l-37 111h-51l67 -174h51zM1376 678v43h-84v22h68v39h-68v27h80v43h-127v-174h131zM1399 852v-174h45v53h22q4 0 7.5 -1.5t6.5 -5 t5.5 -7t5 -9.5t3.5 -9.5t3.5 -10.5t3.5 -10h53q-1 3 -3.5 13.5t-5 16.5t-6.5 14.5t-9.5 15t-13.5 10.5q30 6 30 45q0 59 -76 59h-71zM1778 678v174h-47v-174h47zM2157 678v174h-48v-100l-73 100h-41v-174h45v98l74 -98h43zM1444 768v45h29q30 0 30 -22q0 -23 -28 -23h-31z M1927 764q0 -47 -41 -47t-41 47q0 49 41 49t41 -49zM2218 813q-10 0 -17.5 -7.5t-7.5 -17.5q0 -11 7.5 -18.5t17.5 -7.5q12 0 19.5 7.5t7.5 18.5t-7.5 18t-19.5 7zM2218 727q-10 0 -17.5 -7.5t-7.5 -17.5q0 -11 7.5 -18.5t17.5 -7.5q12 0 19.5 7.5t7.5 18.5t-7.5 18t-19.5 7 zM1081 475q0 43 -23.5 66.5t-64.5 23.5t-63.5 -23.5t-22.5 -66.5q0 -90 86 -90q42 0 65 23t23 67zM1569 510l14 35q-48 20 -78 20q-27 0 -42 -15t-15 -38q0 -41 49 -55q24 -6 30.5 -10t6.5 -11q0 -12 -14 -12q-26 0 -62 20l-18 -34q36 -25 82 -25q63 0 63 53 q0 22 -10.5 34.5t-36.5 21.5l-15 5q-27 11 -28 17q0 10 16 10q15 0 58 -16zM1839 403l-16 37q-32 -14 -56 -14q-19 0 -30 13t-11 36q0 47 43 47q23 0 50 -8l12 33q-27 18 -64 18q-41 0 -64.5 -23.5t-23.5 -66.5q0 -44 23 -67t63 -23q33 0 74 18zM2021 475q0 43 -23.5 66.5 t-64.5 23.5q-40 0 -64 -24t-24 -66q0 -43 23.5 -66.5t64.5 -23.5q42 0 65 23t23 67zM520 387h49l-8 174h-51l-41 -94q-2 -4 -2 -12l-6 12l-39 94h-53l-7 -174h50v100l41 -100h26l41 100v-100zM692 442l64 119h-49l-29 -55q-2 -3 -5 -10.5t-5 -10.5q-2 3 -5.5 10.5t-5.5 10.5 l-28 55h-49l65 -119v-55h47v55zM815 485v33h78v43h-125v-174h47v57h68v41h-68zM1264 387v174h-47v-98l-74 98h-41v-174h47v98l74 -98h41zM1434 518v43h-154v-43h55v-131h45v131h54zM2198 387h51l-8 174h-54l-39 -94q-1 -2 -2 -6.5t-2 -5.5q0 4 -4 12l-41 94h-51l-6 -174h47 v100l41 -100h27l41 100v-100zM1034 475q0 -49 -41 -49q-19 0 -30 13t-11 36q0 47 41 47t41 -47zM1974 475q0 -49 -41 -49q-19 0 -30 13t-11 36q0 47 41 47t41 -47zM1638 436q-10 0 -17 -7t-7 -17q0 -11 7 -19t17 -8q12 0 19.5 8t7.5 19t-7.5 17.5t-19.5 6.5z" />
<glyph unicode="@" d="M2501 1075h-2358v-923h2358v923zM221 997h2202v-768h-2202v768zM1692 801l14 33q-41 20 -80 20q-26 0 -41.5 -14.5t-15.5 -36.5q0 -40 49 -55q25 -6 32 -10t7 -11q0 -12 -17 -12q-22 0 -61 20l-16 -35q35 -24 82 -24q29 0 46 14t17 39q0 22 -10.5 34t-36.5 19 q-29 9 -37 13t-8 10q0 12 16 12q17 0 60 -16zM1974 764q0 44 -23 67t-65 23t-65 -23t-23 -67q0 -41 23.5 -64.5t64.5 -23.5t64.5 23.5t23.5 64.5zM426 774v35h78v43h-125v-174h47v55h68v41h-68zM684 852h-47v-90q0 -45 -35 -45q-31 0 -31 45v90h-47v-90q0 -86 78 -86 q82 0 82 86v90zM834 678v43h-78v131h-45v-174h123zM979 678v43h-78v131h-45v-174h123zM1165 678l66 174h-49l-37 -111l-6 -16q-4 12 -4 16l-37 111h-51l67 -174h51zM1376 678v43h-84v22h68v39h-68v27h80v43h-127v-174h131zM1399 852v-174h45v53h22q4 0 7.5 -1.5t6.5 -5 t5.5 -7t5 -9.5t3.5 -9.5t3.5 -10.5t3.5 -10h53q-1 3 -3.5 13.5t-5 16.5t-6.5 14.5t-9.5 15t-13.5 10.5q30 6 30 45q0 59 -76 59h-71zM1778 678v174h-47v-174h47zM2157 678v174h-48v-100l-73 100h-41v-174h45v98l74 -98h43zM1444 768v45h29q30 0 30 -22q0 -23 -28 -23h-31z M1927 764q0 -47 -41 -47t-41 47q0 49 41 49t41 -49zM2218 813q-10 0 -17.5 -7.5t-7.5 -17.5q0 -11 7.5 -18.5t17.5 -7.5q12 0 19.5 7.5t7.5 18.5t-7.5 18t-19.5 7zM2218 727q-10 0 -17.5 -7.5t-7.5 -17.5q0 -11 7.5 -18.5t17.5 -7.5q12 0 19.5 7.5t7.5 18.5t-7.5 18t-19.5 7 zM1081 475q0 43 -23.5 66.5t-64.5 23.5t-63.5 -23.5t-22.5 -66.5q0 -90 86 -90q42 0 65 23t23 67zM1569 510l14 35q-48 20 -78 20q-27 0 -42 -15t-15 -38q0 -41 49 -55q24 -6 30.5 -10t6.5 -11q0 -12 -14 -12q-26 0 -62 20l-18 -34q36 -25 82 -25q63 0 63 53 q0 22 -10.5 34.5t-36.5 21.5l-15 5q-27 11 -28 17q0 10 16 10q15 0 58 -16zM1839 403l-16 37q-32 -14 -56 -14q-19 0 -30 13t-11 36q0 47 43 47q23 0 50 -8l12 33q-27 18 -64 18q-41 0 -64.5 -23.5t-23.5 -66.5q0 -44 23 -67t63 -23q33 0 74 18zM2021 475q0 43 -23.5 66.5 t-64.5 23.5q-40 0 -64 -24t-24 -66q0 -43 23.5 -66.5t64.5 -23.5q42 0 65 23t23 67zM520 387h49l-8 174h-51l-41 -94q-2 -4 -2 -12l-6 12l-39 94h-53l-7 -174h50v100l41 -100h26l41 100v-100zM692 442l64 119h-49l-29 -55q-2 -3 -5 -10.5t-5 -10.5q-2 3 -5.5 10.5t-5.5 10.5 l-28 55h-49l65 -119v-55h47v55zM815 485v33h78v43h-125v-174h47v57h68v41h-68zM1264 387v174h-47v-98l-74 98h-41v-174h47v98l74 -98h41zM1434 518v43h-154v-43h55v-131h45v131h54zM2198 387h51l-8 174h-54l-39 -94q-1 -2 -2 -6.5t-2 -5.5q0 4 -4 12l-41 94h-51l-6 -174h47 v100l41 -100h27l41 100v-100zM1034 475q0 -49 -41 -49q-19 0 -30 13t-11 36q0 47 41 47t41 -47zM1974 475q0 -49 -41 -49q-19 0 -30 13t-11 36q0 47 41 47t41 -47zM1638 436q-10 0 -17 -7t-7 -17q0 -11 7 -19t17 -8q12 0 19.5 8t7.5 19t-7.5 17.5t-19.5 6.5z" />
<glyph unicode="A" horiz-adv-x="1447" d="M479 186l-59 -186h-406l449 1249h522l449 -1249h-404l-61 186h-490zM860 512l-98 299q-15 43 -39 131q-9 -42 -37 -131l-100 -299h274z" />
<glyph unicode="B" horiz-adv-x="1259" d="M100 1249h541q235 0 362 -93t127 -265q0 -173 -176 -242q130 -34 193 -109.5t63 -199.5q0 -163 -144 -251.5t-411 -88.5h-555v1249zM483 760h183q49 0 75.5 25t26.5 71t-32.5 70t-94.5 24h-158v-190zM483 303h176q75 0 115.5 28.5t40.5 82.5q0 49 -38.5 75.5t-110.5 26.5 h-183v-213z" />
<glyph unicode="C" horiz-adv-x="1247" d="M1102 408l123 -285q-147 -75 -271.5 -108t-265.5 -33q-292 0 -460.5 167.5t-168.5 471.5q0 310 172 479.5t478 169.5q244 0 473 -113l-113 -289q-129 33 -203 46.5t-141 13.5q-137 0 -208 -76.5t-71 -230.5q1 -139 71.5 -218t189.5 -79q97 0 179.5 17.5t215.5 66.5z" />
<glyph unicode="D" horiz-adv-x="1345" d="M100 1249h488q335 0 516.5 -162.5t181.5 -461.5t-182 -462t-516 -163h-488v1249zM483 326h105q150 0 230.5 77.5t80.5 221.5q0 145 -81 223t-230 78h-105v-600z" />
<glyph unicode="E" horiz-adv-x="1142" d="M1065 0h-965v1249h949v-319h-570v-160h484v-299h-484v-149h586v-322z" />
<glyph unicode="F" horiz-adv-x="1081" d="M479 696h473v-329h-473v-367h-379v1249h934v-346h-555v-207z" />
<glyph unicode="G" horiz-adv-x="1382" d="M1300 725v-580q-171 -89 -315.5 -126t-300.5 -37q-289 0 -457 167.5t-168 471.5q2 301 170 475t461 174q127 0 276 -28.5t279 -84.5l-92 -285q-143 34 -234.5 49t-191.5 15q-130 0 -204 -83.5t-74 -231.5t67 -229t186 -81q145 0 269 37v101h-281v276h610z" />
<glyph unicode="H" horiz-adv-x="1370" d="M1270 0h-383v453h-404v-453h-383v1249h383v-448h404v448h383v-1249z" />
<glyph unicode="I" horiz-adv-x="583" d="M483 0h-383v1249h383v-1249z" />
<glyph unicode="J" horiz-adv-x="997" d="M883 1249v-745q0 -276 -102 -399t-335 -123q-204 0 -430 112l86 264q154 -43 254 -43q146 0 146 189v745h381z" />
<glyph unicode="K" horiz-adv-x="1351" d="M647 420l-164 -203v-217h-383v1249h383v-497l406 497h409v-26l-389 -478l404 -708v-37h-426z" />
<glyph unicode="L" horiz-adv-x="1075" d="M1020 0h-920v1249h383v-901h537v-348z" />
<glyph unicode="M" horiz-adv-x="1712" d="M1233 0l-8 586v61l-258 -647h-222l-253 647v-51l-15 -596h-379l52 1249h423l250 -602q19 -43 33 -98q13 52 31 98l252 602h426l51 -1249h-383z" />
<glyph unicode="N" horiz-adv-x="1398" d="M1298 0h-346l-469 633v-633h-383v1249h346l469 -633v633h383v-1249z" />
<glyph unicode="O" horiz-adv-x="1411" d="M705 1270q303 0 474 -169.5t171 -479.5q0 -305 -171 -472t-474 -167t-474.5 167t-171.5 472q0 310 171.5 479.5t474.5 169.5zM705 324q124 0 191 75t67 222q0 153 -67 230t-191 77q-123 0 -191 -77.5t-68 -229.5q0 -146 68 -221.5t191 -75.5z" />
<glyph unicode="P" horiz-adv-x="1222" d="M100 1249h523q270 0 416.5 -127.5t146.5 -363.5q0 -235 -145 -363.5t-412 -128.5h-146v-266h-383v1249zM483 578h146q89 0 137.5 47t48.5 133q0 80 -50 123t-144 43h-138v-346z" />
<glyph unicode="Q" horiz-adv-x="1374" d="M1315 621q0 -307 -163.5 -473t-463.5 -166q-301 0 -465 166t-164 473q0 312 164 480.5t465 168.5q300 0 463.5 -169t163.5 -480zM446 621q0 -297 242 -297q240 0 240 297q0 307 -240 307q-242 0 -242 -307zM522 -289l56 219q197 -37 317.5 -48t312.5 -11v-293 q-325 0 -686 133z" />
<glyph unicode="R" horiz-adv-x="1259" d="M100 1249h537q270 0 416.5 -123t146.5 -350q0 -274 -205 -393l248 -340v-43h-407l-230 313h-123v-313h-383v1249zM483 618h179q78 0 119.5 41.5t41.5 116.5q0 74 -47 114t-135 40h-158v-312z" />
<glyph unicode="S" horiz-adv-x="1181" d="M1112 1178l-96 -289q-270 79 -414 76q-54 0 -75 -14t-21 -42q0 -13 4 -22t15.5 -17.5t24.5 -15t38.5 -15t49.5 -16t65 -21t79 -26.5q54 -19 89.5 -34t79 -38.5t70.5 -50.5t51.5 -63t36 -84t11.5 -107q0 -200 -130 -308.5t-355 -108.5q-141 0 -296.5 43.5t-293.5 121.5 l127 291q132 -68 250 -104.5t194 -36.5q91 0 91 63q0 31 -36 50t-150 55q-54 17 -85 27q-123 41 -194.5 86.5t-110.5 117.5t-39 178q0 198 120.5 297t342.5 99q145 0 273 -21t284 -71z" />
<glyph unicode="T" horiz-adv-x="1200" d="M1161 903h-370v-903h-381v903h-371v346h1122v-346z" />
<glyph unicode="U" horiz-adv-x="1355" d="M1262 1249v-645q0 -318 -143.5 -470t-440.5 -152q-295 0 -438.5 152.5t-143.5 469.5v645h381v-645q0 -143 50 -208.5t151 -65.5q103 0 153 65.5t50 208.5v645h381z" />
<glyph unicode="V" horiz-adv-x="1396" d="M918 0h-439l-465 1249h428l217 -708q18 -58 39 -140q21 82 39 140l236 708h409z" />
<glyph unicode="W" horiz-adv-x="1929" d="M1577 0h-455l-121 481q-15 73 -36 207q-18 -116 -37 -207l-119 -481h-457l-317 1249h403l148 -690q15 -87 20 -145l25 145l129 690h411l129 -690l21 -143q11 98 22 145l148 688h403z" />
<glyph unicode="X" horiz-adv-x="1376" d="M1360 0h-416l-217 334l-39 63l-39 -63l-217 -334h-416l379 627l-377 622h424l207 -317l39 -62q26 44 39 62l207 317h424l-377 -622z" />
<glyph unicode="Y" horiz-adv-x="1345" d="M864 381v-381h-381v381l-469 868h402l172 -329q38 -69 86 -181q40 102 84 181l174 329h399z" />
<glyph unicode="Z" horiz-adv-x="1251" d="M78 0v279l588 641q-172 -11 -283 -11h-258v340h1049v-297l-541 -622q235 10 272 10h277v-340h-1104z" />
<glyph unicode="[" d="M2501 1075h-2358v-923h2358v923zM221 997h2202v-768h-2202v768zM1692 801l14 33q-41 20 -80 20q-26 0 -41.5 -14.5t-15.5 -36.5q0 -40 49 -55q25 -6 32 -10t7 -11q0 -12 -17 -12q-22 0 -61 20l-16 -35q35 -24 82 -24q29 0 46 14t17 39q0 22 -10.5 34t-36.5 19 q-29 9 -37 13t-8 10q0 12 16 12q17 0 60 -16zM1974 764q0 44 -23 67t-65 23t-65 -23t-23 -67q0 -41 23.5 -64.5t64.5 -23.5t64.5 23.5t23.5 64.5zM426 774v35h78v43h-125v-174h47v55h68v41h-68zM684 852h-47v-90q0 -45 -35 -45q-31 0 -31 45v90h-47v-90q0 -86 78 -86 q82 0 82 86v90zM834 678v43h-78v131h-45v-174h123zM979 678v43h-78v131h-45v-174h123zM1165 678l66 174h-49l-37 -111l-6 -16q-4 12 -4 16l-37 111h-51l67 -174h51zM1376 678v43h-84v22h68v39h-68v27h80v43h-127v-174h131zM1399 852v-174h45v53h22q4 0 7.5 -1.5t6.5 -5 t5.5 -7t5 -9.5t3.5 -9.5t3.5 -10.5t3.5 -10h53q-1 3 -3.5 13.5t-5 16.5t-6.5 14.5t-9.5 15t-13.5 10.5q30 6 30 45q0 59 -76 59h-71zM1778 678v174h-47v-174h47zM2157 678v174h-48v-100l-73 100h-41v-174h45v98l74 -98h43zM1444 768v45h29q30 0 30 -22q0 -23 -28 -23h-31z M1927 764q0 -47 -41 -47t-41 47q0 49 41 49t41 -49zM2218 813q-10 0 -17.5 -7.5t-7.5 -17.5q0 -11 7.5 -18.5t17.5 -7.5q12 0 19.5 7.5t7.5 18.5t-7.5 18t-19.5 7zM2218 727q-10 0 -17.5 -7.5t-7.5 -17.5q0 -11 7.5 -18.5t17.5 -7.5q12 0 19.5 7.5t7.5 18.5t-7.5 18t-19.5 7 zM1081 475q0 43 -23.5 66.5t-64.5 23.5t-63.5 -23.5t-22.5 -66.5q0 -90 86 -90q42 0 65 23t23 67zM1569 510l14 35q-48 20 -78 20q-27 0 -42 -15t-15 -38q0 -41 49 -55q24 -6 30.5 -10t6.5 -11q0 -12 -14 -12q-26 0 -62 20l-18 -34q36 -25 82 -25q63 0 63 53 q0 22 -10.5 34.5t-36.5 21.5l-15 5q-27 11 -28 17q0 10 16 10q15 0 58 -16zM1839 403l-16 37q-32 -14 -56 -14q-19 0 -30 13t-11 36q0 47 43 47q23 0 50 -8l12 33q-27 18 -64 18q-41 0 -64.5 -23.5t-23.5 -66.5q0 -44 23 -67t63 -23q33 0 74 18zM2021 475q0 43 -23.5 66.5 t-64.5 23.5q-40 0 -64 -24t-24 -66q0 -43 23.5 -66.5t64.5 -23.5q42 0 65 23t23 67zM520 387h49l-8 174h-51l-41 -94q-2 -4 -2 -12l-6 12l-39 94h-53l-7 -174h50v100l41 -100h26l41 100v-100zM692 442l64 119h-49l-29 -55q-2 -3 -5 -10.5t-5 -10.5q-2 3 -5.5 10.5t-5.5 10.5 l-28 55h-49l65 -119v-55h47v55zM815 485v33h78v43h-125v-174h47v57h68v41h-68zM1264 387v174h-47v-98l-74 98h-41v-174h47v98l74 -98h41zM1434 518v43h-154v-43h55v-131h45v131h54zM2198 387h51l-8 174h-54l-39 -94q-1 -2 -2 -6.5t-2 -5.5q0 4 -4 12l-41 94h-51l-6 -174h47 v100l41 -100h27l41 100v-100zM1034 475q0 -49 -41 -49q-19 0 -30 13t-11 36q0 47 41 47t41 -47zM1974 475q0 -49 -41 -49q-19 0 -30 13t-11 36q0 47 41 47t41 -47zM1638 436q-10 0 -17 -7t-7 -17q0 -11 7 -19t17 -8q12 0 19.5 8t7.5 19t-7.5 17.5t-19.5 6.5z" />
<glyph unicode="\" d="M2501 1075h-2358v-923h2358v923zM221 997h2202v-768h-2202v768zM1692 801l14 33q-41 20 -80 20q-26 0 -41.5 -14.5t-15.5 -36.5q0 -40 49 -55q25 -6 32 -10t7 -11q0 -12 -17 -12q-22 0 -61 20l-16 -35q35 -24 82 -24q29 0 46 14t17 39q0 22 -10.5 34t-36.5 19 q-29 9 -37 13t-8 10q0 12 16 12q17 0 60 -16zM1974 764q0 44 -23 67t-65 23t-65 -23t-23 -67q0 -41 23.5 -64.5t64.5 -23.5t64.5 23.5t23.5 64.5zM426 774v35h78v43h-125v-174h47v55h68v41h-68zM684 852h-47v-90q0 -45 -35 -45q-31 0 -31 45v90h-47v-90q0 -86 78 -86 q82 0 82 86v90zM834 678v43h-78v131h-45v-174h123zM979 678v43h-78v131h-45v-174h123zM1165 678l66 174h-49l-37 -111l-6 -16q-4 12 -4 16l-37 111h-51l67 -174h51zM1376 678v43h-84v22h68v39h-68v27h80v43h-127v-174h131zM1399 852v-174h45v53h22q4 0 7.5 -1.5t6.5 -5 t5.5 -7t5 -9.5t3.5 -9.5t3.5 -10.5t3.5 -10h53q-1 3 -3.5 13.5t-5 16.5t-6.5 14.5t-9.5 15t-13.5 10.5q30 6 30 45q0 59 -76 59h-71zM1778 678v174h-47v-174h47zM2157 678v174h-48v-100l-73 100h-41v-174h45v98l74 -98h43zM1444 768v45h29q30 0 30 -22q0 -23 -28 -23h-31z M1927 764q0 -47 -41 -47t-41 47q0 49 41 49t41 -49zM2218 813q-10 0 -17.5 -7.5t-7.5 -17.5q0 -11 7.5 -18.5t17.5 -7.5q12 0 19.5 7.5t7.5 18.5t-7.5 18t-19.5 7zM2218 727q-10 0 -17.5 -7.5t-7.5 -17.5q0 -11 7.5 -18.5t17.5 -7.5q12 0 19.5 7.5t7.5 18.5t-7.5 18t-19.5 7 zM1081 475q0 43 -23.5 66.5t-64.5 23.5t-63.5 -23.5t-22.5 -66.5q0 -90 86 -90q42 0 65 23t23 67zM1569 510l14 35q-48 20 -78 20q-27 0 -42 -15t-15 -38q0 -41 49 -55q24 -6 30.5 -10t6.5 -11q0 -12 -14 -12q-26 0 -62 20l-18 -34q36 -25 82 -25q63 0 63 53 q0 22 -10.5 34.5t-36.5 21.5l-15 5q-27 11 -28 17q0 10 16 10q15 0 58 -16zM1839 403l-16 37q-32 -14 -56 -14q-19 0 -30 13t-11 36q0 47 43 47q23 0 50 -8l12 33q-27 18 -64 18q-41 0 -64.5 -23.5t-23.5 -66.5q0 -44 23 -67t63 -23q33 0 74 18zM2021 475q0 43 -23.5 66.5 t-64.5 23.5q-40 0 -64 -24t-24 -66q0 -43 23.5 -66.5t64.5 -23.5q42 0 65 23t23 67zM520 387h49l-8 174h-51l-41 -94q-2 -4 -2 -12l-6 12l-39 94h-53l-7 -174h50v100l41 -100h26l41 100v-100zM692 442l64 119h-49l-29 -55q-2 -3 -5 -10.5t-5 -10.5q-2 3 -5.5 10.5t-5.5 10.5 l-28 55h-49l65 -119v-55h47v55zM815 485v33h78v43h-125v-174h47v57h68v41h-68zM1264 387v174h-47v-98l-74 98h-41v-174h47v98l74 -98h41zM1434 518v43h-154v-43h55v-131h45v131h54zM2198 387h51l-8 174h-54l-39 -94q-1 -2 -2 -6.5t-2 -5.5q0 4 -4 12l-41 94h-51l-6 -174h47 v100l41 -100h27l41 100v-100zM1034 475q0 -49 -41 -49q-19 0 -30 13t-11 36q0 47 41 47t41 -47zM1974 475q0 -49 -41 -49q-19 0 -30 13t-11 36q0 47 41 47t41 -47zM1638 436q-10 0 -17 -7t-7 -17q0 -11 7 -19t17 -8q12 0 19.5 8t7.5 19t-7.5 17.5t-19.5 6.5z" />
<glyph unicode="]" d="M2501 1075h-2358v-923h2358v923zM221 997h2202v-768h-2202v768zM1692 801l14 33q-41 20 -80 20q-26 0 -41.5 -14.5t-15.5 -36.5q0 -40 49 -55q25 -6 32 -10t7 -11q0 -12 -17 -12q-22 0 -61 20l-16 -35q35 -24 82 -24q29 0 46 14t17 39q0 22 -10.5 34t-36.5 19 q-29 9 -37 13t-8 10q0 12 16 12q17 0 60 -16zM1974 764q0 44 -23 67t-65 23t-65 -23t-23 -67q0 -41 23.5 -64.5t64.5 -23.5t64.5 23.5t23.5 64.5zM426 774v35h78v43h-125v-174h47v55h68v41h-68zM684 852h-47v-90q0 -45 -35 -45q-31 0 -31 45v90h-47v-90q0 -86 78 -86 q82 0 82 86v90zM834 678v43h-78v131h-45v-174h123zM979 678v43h-78v131h-45v-174h123zM1165 678l66 174h-49l-37 -111l-6 -16q-4 12 -4 16l-37 111h-51l67 -174h51zM1376 678v43h-84v22h68v39h-68v27h80v43h-127v-174h131zM1399 852v-174h45v53h22q4 0 7.5 -1.5t6.5 -5 t5.5 -7t5 -9.5t3.5 -9.5t3.5 -10.5t3.5 -10h53q-1 3 -3.5 13.5t-5 16.5t-6.5 14.5t-9.5 15t-13.5 10.5q30 6 30 45q0 59 -76 59h-71zM1778 678v174h-47v-174h47zM2157 678v174h-48v-100l-73 100h-41v-174h45v98l74 -98h43zM1444 768v45h29q30 0 30 -22q0 -23 -28 -23h-31z M1927 764q0 -47 -41 -47t-41 47q0 49 41 49t41 -49zM2218 813q-10 0 -17.5 -7.5t-7.5 -17.5q0 -11 7.5 -18.5t17.5 -7.5q12 0 19.5 7.5t7.5 18.5t-7.5 18t-19.5 7zM2218 727q-10 0 -17.5 -7.5t-7.5 -17.5q0 -11 7.5 -18.5t17.5 -7.5q12 0 19.5 7.5t7.5 18.5t-7.5 18t-19.5 7 zM1081 475q0 43 -23.5 66.5t-64.5 23.5t-63.5 -23.5t-22.5 -66.5q0 -90 86 -90q42 0 65 23t23 67zM1569 510l14 35q-48 20 -78 20q-27 0 -42 -15t-15 -38q0 -41 49 -55q24 -6 30.5 -10t6.5 -11q0 -12 -14 -12q-26 0 -62 20l-18 -34q36 -25 82 -25q63 0 63 53 q0 22 -10.5 34.5t-36.5 21.5l-15 5q-27 11 -28 17q0 10 16 10q15 0 58 -16zM1839 403l-16 37q-32 -14 -56 -14q-19 0 -30 13t-11 36q0 47 43 47q23 0 50 -8l12 33q-27 18 -64 18q-41 0 -64.5 -23.5t-23.5 -66.5q0 -44 23 -67t63 -23q33 0 74 18zM2021 475q0 43 -23.5 66.5 t-64.5 23.5q-40 0 -64 -24t-24 -66q0 -43 23.5 -66.5t64.5 -23.5q42 0 65 23t23 67zM520 387h49l-8 174h-51l-41 -94q-2 -4 -2 -12l-6 12l-39 94h-53l-7 -174h50v100l41 -100h26l41 100v-100zM692 442l64 119h-49l-29 -55q-2 -3 -5 -10.5t-5 -10.5q-2 3 -5.5 10.5t-5.5 10.5 l-28 55h-49l65 -119v-55h47v55zM815 485v33h78v43h-125v-174h47v57h68v41h-68zM1264 387v174h-47v-98l-74 98h-41v-174h47v98l74 -98h41zM1434 518v43h-154v-43h55v-131h45v131h54zM2198 387h51l-8 174h-54l-39 -94q-1 -2 -2 -6.5t-2 -5.5q0 4 -4 12l-41 94h-51l-6 -174h47 v100l41 -100h27l41 100v-100zM1034 475q0 -49 -41 -49q-19 0 -30 13t-11 36q0 47 41 47t41 -47zM1974 475q0 -49 -41 -49q-19 0 -30 13t-11 36q0 47 41 47t41 -47zM1638 436q-10 0 -17 -7t-7 -17q0 -11 7 -19t17 -8q12 0 19.5 8t7.5 19t-7.5 17.5t-19.5 6.5z" />
<glyph unicode="_" d="M2501 1075h-2358v-923h2358v923zM221 997h2202v-768h-2202v768zM1692 801l14 33q-41 20 -80 20q-26 0 -41.5 -14.5t-15.5 -36.5q0 -40 49 -55q25 -6 32 -10t7 -11q0 -12 -17 -12q-22 0 -61 20l-16 -35q35 -24 82 -24q29 0 46 14t17 39q0 22 -10.5 34t-36.5 19 q-29 9 -37 13t-8 10q0 12 16 12q17 0 60 -16zM1974 764q0 44 -23 67t-65 23t-65 -23t-23 -67q0 -41 23.5 -64.5t64.5 -23.5t64.5 23.5t23.5 64.5zM426 774v35h78v43h-125v-174h47v55h68v41h-68zM684 852h-47v-90q0 -45 -35 -45q-31 0 -31 45v90h-47v-90q0 -86 78 -86 q82 0 82 86v90zM834 678v43h-78v131h-45v-174h123zM979 678v43h-78v131h-45v-174h123zM1165 678l66 174h-49l-37 -111l-6 -16q-4 12 -4 16l-37 111h-51l67 -174h51zM1376 678v43h-84v22h68v39h-68v27h80v43h-127v-174h131zM1399 852v-174h45v53h22q4 0 7.5 -1.5t6.5 -5 t5.5 -7t5 -9.5t3.5 -9.5t3.5 -10.5t3.5 -10h53q-1 3 -3.5 13.5t-5 16.5t-6.5 14.5t-9.5 15t-13.5 10.5q30 6 30 45q0 59 -76 59h-71zM1778 678v174h-47v-174h47zM2157 678v174h-48v-100l-73 100h-41v-174h45v98l74 -98h43zM1444 768v45h29q30 0 30 -22q0 -23 -28 -23h-31z M1927 764q0 -47 -41 -47t-41 47q0 49 41 49t41 -49zM2218 813q-10 0 -17.5 -7.5t-7.5 -17.5q0 -11 7.5 -18.5t17.5 -7.5q12 0 19.5 7.5t7.5 18.5t-7.5 18t-19.5 7zM2218 727q-10 0 -17.5 -7.5t-7.5 -17.5q0 -11 7.5 -18.5t17.5 -7.5q12 0 19.5 7.5t7.5 18.5t-7.5 18t-19.5 7 zM1081 475q0 43 -23.5 66.5t-64.5 23.5t-63.5 -23.5t-22.5 -66.5q0 -90 86 -90q42 0 65 23t23 67zM1569 510l14 35q-48 20 -78 20q-27 0 -42 -15t-15 -38q0 -41 49 -55q24 -6 30.5 -10t6.5 -11q0 -12 -14 -12q-26 0 -62 20l-18 -34q36 -25 82 -25q63 0 63 53 q0 22 -10.5 34.5t-36.5 21.5l-15 5q-27 11 -28 17q0 10 16 10q15 0 58 -16zM1839 403l-16 37q-32 -14 -56 -14q-19 0 -30 13t-11 36q0 47 43 47q23 0 50 -8l12 33q-27 18 -64 18q-41 0 -64.5 -23.5t-23.5 -66.5q0 -44 23 -67t63 -23q33 0 74 18zM2021 475q0 43 -23.5 66.5 t-64.5 23.5q-40 0 -64 -24t-24 -66q0 -43 23.5 -66.5t64.5 -23.5q42 0 65 23t23 67zM520 387h49l-8 174h-51l-41 -94q-2 -4 -2 -12l-6 12l-39 94h-53l-7 -174h50v100l41 -100h26l41 100v-100zM692 442l64 119h-49l-29 -55q-2 -3 -5 -10.5t-5 -10.5q-2 3 -5.5 10.5t-5.5 10.5 l-28 55h-49l65 -119v-55h47v55zM815 485v33h78v43h-125v-174h47v57h68v41h-68zM1264 387v174h-47v-98l-74 98h-41v-174h47v98l74 -98h41zM1434 518v43h-154v-43h55v-131h45v131h54zM2198 387h51l-8 174h-54l-39 -94q-1 -2 -2 -6.5t-2 -5.5q0 4 -4 12l-41 94h-51l-6 -174h47 v100l41 -100h27l41 100v-100zM1034 475q0 -49 -41 -49q-19 0 -30 13t-11 36q0 47 41 47t41 -47zM1974 475q0 -49 -41 -49q-19 0 -30 13t-11 36q0 47 41 47t41 -47zM1638 436q-10 0 -17 -7t-7 -17q0 -11 7 -19t17 -8q12 0 19.5 8t7.5 19t-7.5 17.5t-19.5 6.5z" />
<glyph unicode="a" horiz-adv-x="1087" d="M195 692l-56 246q171 47 266 62.5t177 15.5q223 0 322.5 -96.5t99.5 -313.5v-606h-367v117q-119 -135 -270 -135q-165 0 -245.5 70t-80.5 245q0 157 105 233t317 76h174q0 68 -26.5 98.5t-98.5 30.5q-111 0 -317 -43zM637 432h-123q-64 0 -96.5 -20t-32.5 -68 q0 -44 29.5 -70t77.5 -26q75 0 145 59v125z" />
<glyph unicode="b" horiz-adv-x="1179" d="M457 1317v-443q73 73 146 106.5t159 33.5q186 0 277 -121.5t91 -382.5q0 -135 -31.5 -239t-86 -165.5t-123 -92.5t-148.5 -31q-73 0 -125 17t-83 41t-76 73v-113h-371v1317h371zM457 608v-231q32 -47 68 -68.5t91 -21.5q148 0 148 223q0 195 -139 195q-93 0 -168 -97z " />
<glyph unicode="c" horiz-adv-x="1001" d="M874 348l111 -219q-107 -78 -210 -112.5t-245 -34.5q-136 0 -244.5 57.5t-174.5 175.5t-66 279q0 249 133 385.5t354 136.5q227 0 418 -109l-100 -235q-142 53 -264 53q-83 0 -129.5 -61.5t-46.5 -169.5q0 -103 46.5 -162.5t127.5 -59.5q135 0 290 76z" />
<glyph unicode="d" horiz-adv-x="1181" d="M1096 0h-371v113q-45 -48 -76.5 -72.5t-84 -41.5t-124.5 -17q-80 0 -148.5 31t-123 92.5t-86 165.5t-31.5 239q0 257 96.5 381.5t272.5 124.5q92 0 163.5 -27.5t141.5 -97.5v426h371v-1317zM725 377v231q-75 97 -168 97q-141 0 -141 -195q0 -221 147 -221q57 0 93.5 21 t68.5 67z" />
<glyph unicode="e" horiz-adv-x="1087" d="M930 352l104 -211q-119 -84 -231 -121.5t-240 -37.5q-240 0 -376 131.5t-136 378.5q0 253 134.5 388.5t377.5 135.5q219 0 345 -125t126 -354q0 -62 -8 -138h-616q13 -70 54 -101.5t116 -31.5q97 0 173.5 19.5t176.5 66.5zM408 596h305q-3 82 -41 124t-109 42 q-131 0 -155 -166z" />
<glyph unicode="f" horiz-adv-x="784" d="M147 997v21q0 203 101 296t317 93q105 0 221 -25l-24 -254l-125 2q-67 0 -93 -29.5t-26 -86.5v-17h238v-307h-238v-690h-371v690h-131v307h131z" />
<glyph unicode="g" horiz-adv-x="1175" d="M1094 997v-817q0 -289 -128 -418t-395 -129q-247 0 -440 78l49 244q194 -43 338 -43q102 0 151.5 53.5t53.5 184.5q-64 -61 -129.5 -84t-171.5 -23q-176 0 -273.5 123.5t-97.5 359.5q0 250 92 370t277 120q80 0 150.5 -28.5t152.5 -90.5v100h371zM723 403v222 q-86 80 -166 80q-73 0 -107 -41t-34 -138q0 -107 36 -151.5t111 -44.5q50 0 85.5 17t74.5 56z" />
<glyph unicode="h" horiz-adv-x="1167" d="M457 1317v-463q99 86 177.5 123t162.5 37q156 0 222 -88t66 -291v-635h-370v518q0 80 -18 108.5t-74 28.5q-84 0 -166 -92v-563h-371v1317h371z" />
<glyph unicode="i" horiz-adv-x="575" d="M78 1286q0 91 61 141t148 50t148 -50t61 -141q0 -89 -61 -138.5t-148 -49.5t-148 49.5t-61 138.5zM473 0h-371v997h371v-997z" />
<glyph unicode="j" horiz-adv-x="575" d="M285 1098q-87 0 -148 49.5t-61 138.5q0 91 61 141t148 50t148 -50t61 -141q0 -89 -61 -138.5t-148 -49.5zM473 997v-858q0 -104 -21 -182.5t-70.5 -143.5t-134 -109t-208.5 -71l-74 250q84 44 110.5 98.5t26.5 157.5v858h371z" />
<glyph unicode="k" horiz-adv-x="1165" d="M457 1317v-631l274 311h399v-28l-350 -404l365 -534v-31h-406l-194 295l-88 -100v-195h-371v1317h371z" />
<glyph unicode="l" horiz-adv-x="542" d="M457 0h-371v1317h371v-1317z" />
<glyph unicode="m" horiz-adv-x="1732" d="M457 997v-135q87 80 158.5 116t152.5 36q105 0 169 -41t93 -129q102 95 179 132.5t157 37.5q154 0 220.5 -88t66.5 -291v-635h-371v528q0 72 -21 105t-65 33q-66 0 -139 -82v-584h-371v528q0 138 -88 138q-67 0 -141 -84v-582h-371v997h371z" />
<glyph unicode="n" horiz-adv-x="1167" d="M457 997v-133q102 79 180 114.5t160 35.5q156 0 222 -88t66 -291v-635h-370v528q0 79 -18.5 108.5t-73.5 29.5q-83 0 -166 -93v-573h-371v997h371z" />
<glyph unicode="o" horiz-adv-x="1150" d="M575 1016q249 0 387 -136.5t138 -385.5q0 -244 -138.5 -378t-386.5 -134t-386 134t-138 378q0 250 138 386t386 136zM575 272q79 0 120.5 51.5t41.5 170.5q0 125 -41.5 178t-120.5 53t-120 -53t-41 -178q0 -120 40.5 -171t120.5 -51z" />
<glyph unicode="p" horiz-adv-x="1179" d="M457 997v-112q74 67 147 98t158 31q186 0 277 -122t91 -384q0 -135 -31.5 -238.5t-86 -165t-123 -92t-148.5 -30.5q-73 0 -125 17t-83 41t-76 73v-424h-371v1308h371zM457 608v-231q32 -47 68 -68.5t91 -21.5q148 0 148 223q0 195 -139 195q-93 0 -168 -97z" />
<glyph unicode="q" horiz-adv-x="1179" d="M1094 -311h-371v424q-45 -49 -76 -73t-83 -41t-124 -17q-80 0 -148.5 31t-123 92.5t-86 165.5t-31.5 239q0 261 92 383.5t277 122.5q85 0 157 -31.5t146 -99.5v112h371v-1308zM723 377v231q-75 97 -166 97q-70 0 -104.5 -47t-34.5 -148q0 -221 145 -221q57 0 93.5 21 t66.5 67z" />
<glyph unicode="r" horiz-adv-x="854" d="M457 997v-192q56 110 117 159.5t143 49.5q68 0 123 -6l-25 -377q-49 4 -117 4q-99 0 -156 -36t-85 -136v-463h-371v997h371z" />
<glyph unicode="s" horiz-adv-x="989" d="M928 948l-88 -258q-213 64 -338 64q-62 0 -62 -41q0 -8 1.5 -14t7 -11.5t11 -9.5t17 -9t23 -8.5t30.5 -9t37 -10t46.5 -12.5t54.5 -15q143 -42 205.5 -108.5t62.5 -186.5q0 -161 -111 -249t-301 -88q-104 0 -237.5 35t-249.5 92l90 249q112 -52 211.5 -81t159.5 -29 q69 0 69 37q0 24 -26.5 37t-107.5 36q-15 4 -23.5 6.5t-22.5 6.5t-27 8q-143 44 -205.5 114.5t-62.5 198.5q0 148 98.5 236t264.5 88q115 0 221 -13.5t252 -54.5z" />
<glyph unicode="t" horiz-adv-x="827" d="M764 281l37 -224q-53 -32 -138.5 -52.5t-168.5 -20.5q-181 0 -261.5 91.5t-80.5 303.5v311h-136v305h136v213h370v-213h234v-305h-234v-295q0 -59 24.5 -87.5t90.5 -28.5q80 0 127 2z" />
<glyph unicode="u" horiz-adv-x="1173" d="M1083 0h-370v117q-9 -6 -36.5 -24.5t-34.5 -23t-29.5 -19t-30.5 -18.5t-27 -14.5t-28.5 -13.5t-26.5 -9t-30 -7.5t-29 -3.5t-33 -2q-161 0 -242.5 91t-81.5 289v635h371v-536q0 -80 18 -109.5t74 -29.5q86 0 166 94v581h370v-997z" />
<glyph unicode="v" horiz-adv-x="1179" d="M795 0h-408l-371 995h383l150 -452q27 -90 41 -148q26 89 43 148l149 452h383z" />
<glyph unicode="w" horiz-adv-x="1607" d="M1335 0h-411l-119 481l-121 -481h-410l-260 995h365l123 -522q2 -8 12 -100q10 54 21 100l139 522h258l141 -522q2 -12 9.5 -50t9.5 -58q8 72 16 108l121 522h364z" />
<glyph unicode="x" horiz-adv-x="1140" d="M410 997l139 -225l22 -39q3 8 11 21.5t10 17.5l139 223h395l-313 -495l315 -500h-387l-149 225l-21 39q-20 -35 -22 -39l-150 -225h-387l316 500l-314 497h396z" />
<glyph unicode="y" horiz-adv-x="1165" d="M768 995h393q-90 -281 -160.5 -473t-144.5 -332q-105 -200 -256 -330t-373 -202l-121 279q162 69 248 153l-352 905h383l150 -405l45 -154q53 114 95.5 242t92.5 317z" />
<glyph unicode="z" horiz-adv-x="1095" d="M1022 0h-948v233l436 474q-20 -1 -95 -4t-108 -3h-215v295h905v-225l-415 -483q132 6 225 6h215v-293z" />
<glyph unicode="{" d="M2501 1075h-2358v-923h2358v923zM221 997h2202v-768h-2202v768zM1692 801l14 33q-41 20 -80 20q-26 0 -41.5 -14.5t-15.5 -36.5q0 -40 49 -55q25 -6 32 -10t7 -11q0 -12 -17 -12q-22 0 -61 20l-16 -35q35 -24 82 -24q29 0 46 14t17 39q0 22 -10.5 34t-36.5 19 q-29 9 -37 13t-8 10q0 12 16 12q17 0 60 -16zM1974 764q0 44 -23 67t-65 23t-65 -23t-23 -67q0 -41 23.5 -64.5t64.5 -23.5t64.5 23.5t23.5 64.5zM426 774v35h78v43h-125v-174h47v55h68v41h-68zM684 852h-47v-90q0 -45 -35 -45q-31 0 -31 45v90h-47v-90q0 -86 78 -86 q82 0 82 86v90zM834 678v43h-78v131h-45v-174h123zM979 678v43h-78v131h-45v-174h123zM1165 678l66 174h-49l-37 -111l-6 -16q-4 12 -4 16l-37 111h-51l67 -174h51zM1376 678v43h-84v22h68v39h-68v27h80v43h-127v-174h131zM1399 852v-174h45v53h22q4 0 7.5 -1.5t6.5 -5 t5.5 -7t5 -9.5t3.5 -9.5t3.5 -10.5t3.5 -10h53q-1 3 -3.5 13.5t-5 16.5t-6.5 14.5t-9.5 15t-13.5 10.5q30 6 30 45q0 59 -76 59h-71zM1778 678v174h-47v-174h47zM2157 678v174h-48v-100l-73 100h-41v-174h45v98l74 -98h43zM1444 768v45h29q30 0 30 -22q0 -23 -28 -23h-31z M1927 764q0 -47 -41 -47t-41 47q0 49 41 49t41 -49zM2218 813q-10 0 -17.5 -7.5t-7.5 -17.5q0 -11 7.5 -18.5t17.5 -7.5q12 0 19.5 7.5t7.5 18.5t-7.5 18t-19.5 7zM2218 727q-10 0 -17.5 -7.5t-7.5 -17.5q0 -11 7.5 -18.5t17.5 -7.5q12 0 19.5 7.5t7.5 18.5t-7.5 18t-19.5 7 zM1081 475q0 43 -23.5 66.5t-64.5 23.5t-63.5 -23.5t-22.5 -66.5q0 -90 86 -90q42 0 65 23t23 67zM1569 510l14 35q-48 20 -78 20q-27 0 -42 -15t-15 -38q0 -41 49 -55q24 -6 30.5 -10t6.5 -11q0 -12 -14 -12q-26 0 -62 20l-18 -34q36 -25 82 -25q63 0 63 53 q0 22 -10.5 34.5t-36.5 21.5l-15 5q-27 11 -28 17q0 10 16 10q15 0 58 -16zM1839 403l-16 37q-32 -14 -56 -14q-19 0 -30 13t-11 36q0 47 43 47q23 0 50 -8l12 33q-27 18 -64 18q-41 0 -64.5 -23.5t-23.5 -66.5q0 -44 23 -67t63 -23q33 0 74 18zM2021 475q0 43 -23.5 66.5 t-64.5 23.5q-40 0 -64 -24t-24 -66q0 -43 23.5 -66.5t64.5 -23.5q42 0 65 23t23 67zM520 387h49l-8 174h-51l-41 -94q-2 -4 -2 -12l-6 12l-39 94h-53l-7 -174h50v100l41 -100h26l41 100v-100zM692 442l64 119h-49l-29 -55q-2 -3 -5 -10.5t-5 -10.5q-2 3 -5.5 10.5t-5.5 10.5 l-28 55h-49l65 -119v-55h47v55zM815 485v33h78v43h-125v-174h47v57h68v41h-68zM1264 387v174h-47v-98l-74 98h-41v-174h47v98l74 -98h41zM1434 518v43h-154v-43h55v-131h45v131h54zM2198 387h51l-8 174h-54l-39 -94q-1 -2 -2 -6.5t-2 -5.5q0 4 -4 12l-41 94h-51l-6 -174h47 v100l41 -100h27l41 100v-100zM1034 475q0 -49 -41 -49q-19 0 -30 13t-11 36q0 47 41 47t41 -47zM1974 475q0 -49 -41 -49q-19 0 -30 13t-11 36q0 47 41 47t41 -47zM1638 436q-10 0 -17 -7t-7 -17q0 -11 7 -19t17 -8q12 0 19.5 8t7.5 19t-7.5 17.5t-19.5 6.5z" />
<glyph unicode="}" d="M2501 1075h-2358v-923h2358v923zM221 997h2202v-768h-2202v768zM1692 801l14 33q-41 20 -80 20q-26 0 -41.5 -14.5t-15.5 -36.5q0 -40 49 -55q25 -6 32 -10t7 -11q0 -12 -17 -12q-22 0 -61 20l-16 -35q35 -24 82 -24q29 0 46 14t17 39q0 22 -10.5 34t-36.5 19 q-29 9 -37 13t-8 10q0 12 16 12q17 0 60 -16zM1974 764q0 44 -23 67t-65 23t-65 -23t-23 -67q0 -41 23.5 -64.5t64.5 -23.5t64.5 23.5t23.5 64.5zM426 774v35h78v43h-125v-174h47v55h68v41h-68zM684 852h-47v-90q0 -45 -35 -45q-31 0 -31 45v90h-47v-90q0 -86 78 -86 q82 0 82 86v90zM834 678v43h-78v131h-45v-174h123zM979 678v43h-78v131h-45v-174h123zM1165 678l66 174h-49l-37 -111l-6 -16q-4 12 -4 16l-37 111h-51l67 -174h51zM1376 678v43h-84v22h68v39h-68v27h80v43h-127v-174h131zM1399 852v-174h45v53h22q4 0 7.5 -1.5t6.5 -5 t5.5 -7t5 -9.5t3.5 -9.5t3.5 -10.5t3.5 -10h53q-1 3 -3.5 13.5t-5 16.5t-6.5 14.5t-9.5 15t-13.5 10.5q30 6 30 45q0 59 -76 59h-71zM1778 678v174h-47v-174h47zM2157 678v174h-48v-100l-73 100h-41v-174h45v98l74 -98h43zM1444 768v45h29q30 0 30 -22q0 -23 -28 -23h-31z M1927 764q0 -47 -41 -47t-41 47q0 49 41 49t41 -49zM2218 813q-10 0 -17.5 -7.5t-7.5 -17.5q0 -11 7.5 -18.5t17.5 -7.5q12 0 19.5 7.5t7.5 18.5t-7.5 18t-19.5 7zM2218 727q-10 0 -17.5 -7.5t-7.5 -17.5q0 -11 7.5 -18.5t17.5 -7.5q12 0 19.5 7.5t7.5 18.5t-7.5 18t-19.5 7 zM1081 475q0 43 -23.5 66.5t-64.5 23.5t-63.5 -23.5t-22.5 -66.5q0 -90 86 -90q42 0 65 23t23 67zM1569 510l14 35q-48 20 -78 20q-27 0 -42 -15t-15 -38q0 -41 49 -55q24 -6 30.5 -10t6.5 -11q0 -12 -14 -12q-26 0 -62 20l-18 -34q36 -25 82 -25q63 0 63 53 q0 22 -10.5 34.5t-36.5 21.5l-15 5q-27 11 -28 17q0 10 16 10q15 0 58 -16zM1839 403l-16 37q-32 -14 -56 -14q-19 0 -30 13t-11 36q0 47 43 47q23 0 50 -8l12 33q-27 18 -64 18q-41 0 -64.5 -23.5t-23.5 -66.5q0 -44 23 -67t63 -23q33 0 74 18zM2021 475q0 43 -23.5 66.5 t-64.5 23.5q-40 0 -64 -24t-24 -66q0 -43 23.5 -66.5t64.5 -23.5q42 0 65 23t23 67zM520 387h49l-8 174h-51l-41 -94q-2 -4 -2 -12l-6 12l-39 94h-53l-7 -174h50v100l41 -100h26l41 100v-100zM692 442l64 119h-49l-29 -55q-2 -3 -5 -10.5t-5 -10.5q-2 3 -5.5 10.5t-5.5 10.5 l-28 55h-49l65 -119v-55h47v55zM815 485v33h78v43h-125v-174h47v57h68v41h-68zM1264 387v174h-47v-98l-74 98h-41v-174h47v98l74 -98h41zM1434 518v43h-154v-43h55v-131h45v131h54zM2198 387h51l-8 174h-54l-39 -94q-1 -2 -2 -6.5t-2 -5.5q0 4 -4 12l-41 94h-51l-6 -174h47 v100l41 -100h27l41 100v-100zM1034 475q0 -49 -41 -49q-19 0 -30 13t-11 36q0 47 41 47t41 -47zM1974 475q0 -49 -41 -49q-19 0 -30 13t-11 36q0 47 41 47t41 -47zM1638 436q-10 0 -17 -7t-7 -17q0 -11 7 -19t17 -8q12 0 19.5 8t7.5 19t-7.5 17.5t-19.5 6.5z" />
<glyph unicode="&#xa1;" d="M2501 1075h-2358v-923h2358v923zM221 997h2202v-768h-2202v768zM1692 801l14 33q-41 20 -80 20q-26 0 -41.5 -14.5t-15.5 -36.5q0 -40 49 -55q25 -6 32 -10t7 -11q0 -12 -17 -12q-22 0 -61 20l-16 -35q35 -24 82 -24q29 0 46 14t17 39q0 22 -10.5 34t-36.5 19 q-29 9 -37 13t-8 10q0 12 16 12q17 0 60 -16zM1974 764q0 44 -23 67t-65 23t-65 -23t-23 -67q0 -41 23.5 -64.5t64.5 -23.5t64.5 23.5t23.5 64.5zM426 774v35h78v43h-125v-174h47v55h68v41h-68zM684 852h-47v-90q0 -45 -35 -45q-31 0 -31 45v90h-47v-90q0 -86 78 -86 q82 0 82 86v90zM834 678v43h-78v131h-45v-174h123zM979 678v43h-78v131h-45v-174h123zM1165 678l66 174h-49l-37 -111l-6 -16q-4 12 -4 16l-37 111h-51l67 -174h51zM1376 678v43h-84v22h68v39h-68v27h80v43h-127v-174h131zM1399 852v-174h45v53h22q4 0 7.5 -1.5t6.5 -5 t5.5 -7t5 -9.5t3.5 -9.5t3.5 -10.5t3.5 -10h53q-1 3 -3.5 13.5t-5 16.5t-6.5 14.5t-9.5 15t-13.5 10.5q30 6 30 45q0 59 -76 59h-71zM1778 678v174h-47v-174h47zM2157 678v174h-48v-100l-73 100h-41v-174h45v98l74 -98h43zM1444 768v45h29q30 0 30 -22q0 -23 -28 -23h-31z M1927 764q0 -47 -41 -47t-41 47q0 49 41 49t41 -49zM2218 813q-10 0 -17.5 -7.5t-7.5 -17.5q0 -11 7.5 -18.5t17.5 -7.5q12 0 19.5 7.5t7.5 18.5t-7.5 18t-19.5 7zM2218 727q-10 0 -17.5 -7.5t-7.5 -17.5q0 -11 7.5 -18.5t17.5 -7.5q12 0 19.5 7.5t7.5 18.5t-7.5 18t-19.5 7 zM1081 475q0 43 -23.5 66.5t-64.5 23.5t-63.5 -23.5t-22.5 -66.5q0 -90 86 -90q42 0 65 23t23 67zM1569 510l14 35q-48 20 -78 20q-27 0 -42 -15t-15 -38q0 -41 49 -55q24 -6 30.5 -10t6.5 -11q0 -12 -14 -12q-26 0 -62 20l-18 -34q36 -25 82 -25q63 0 63 53 q0 22 -10.5 34.5t-36.5 21.5l-15 5q-27 11 -28 17q0 10 16 10q15 0 58 -16zM1839 403l-16 37q-32 -14 -56 -14q-19 0 -30 13t-11 36q0 47 43 47q23 0 50 -8l12 33q-27 18 -64 18q-41 0 -64.5 -23.5t-23.5 -66.5q0 -44 23 -67t63 -23q33 0 74 18zM2021 475q0 43 -23.5 66.5 t-64.5 23.5q-40 0 -64 -24t-24 -66q0 -43 23.5 -66.5t64.5 -23.5q42 0 65 23t23 67zM520 387h49l-8 174h-51l-41 -94q-2 -4 -2 -12l-6 12l-39 94h-53l-7 -174h50v100l41 -100h26l41 100v-100zM692 442l64 119h-49l-29 -55q-2 -3 -5 -10.5t-5 -10.5q-2 3 -5.5 10.5t-5.5 10.5 l-28 55h-49l65 -119v-55h47v55zM815 485v33h78v43h-125v-174h47v57h68v41h-68zM1264 387v174h-47v-98l-74 98h-41v-174h47v98l74 -98h41zM1434 518v43h-154v-43h55v-131h45v131h54zM2198 387h51l-8 174h-54l-39 -94q-1 -2 -2 -6.5t-2 -5.5q0 4 -4 12l-41 94h-51l-6 -174h47 v100l41 -100h27l41 100v-100zM1034 475q0 -49 -41 -49q-19 0 -30 13t-11 36q0 47 41 47t41 -47zM1974 475q0 -49 -41 -49q-19 0 -30 13t-11 36q0 47 41 47t41 -47zM1638 436q-10 0 -17 -7t-7 -17q0 -11 7 -19t17 -8q12 0 19.5 8t7.5 19t-7.5 17.5t-19.5 6.5z" />
<glyph unicode="&#xa7;" d="M2501 1075h-2358v-923h2358v923zM221 997h2202v-768h-2202v768zM1692 801l14 33q-41 20 -80 20q-26 0 -41.5 -14.5t-15.5 -36.5q0 -40 49 -55q25 -6 32 -10t7 -11q0 -12 -17 -12q-22 0 -61 20l-16 -35q35 -24 82 -24q29 0 46 14t17 39q0 22 -10.5 34t-36.5 19 q-29 9 -37 13t-8 10q0 12 16 12q17 0 60 -16zM1974 764q0 44 -23 67t-65 23t-65 -23t-23 -67q0 -41 23.5 -64.5t64.5 -23.5t64.5 23.5t23.5 64.5zM426 774v35h78v43h-125v-174h47v55h68v41h-68zM684 852h-47v-90q0 -45 -35 -45q-31 0 -31 45v90h-47v-90q0 -86 78 -86 q82 0 82 86v90zM834 678v43h-78v131h-45v-174h123zM979 678v43h-78v131h-45v-174h123zM1165 678l66 174h-49l-37 -111l-6 -16q-4 12 -4 16l-37 111h-51l67 -174h51zM1376 678v43h-84v22h68v39h-68v27h80v43h-127v-174h131zM1399 852v-174h45v53h22q4 0 7.5 -1.5t6.5 -5 t5.5 -7t5 -9.5t3.5 -9.5t3.5 -10.5t3.5 -10h53q-1 3 -3.5 13.5t-5 16.5t-6.5 14.5t-9.5 15t-13.5 10.5q30 6 30 45q0 59 -76 59h-71zM1778 678v174h-47v-174h47zM2157 678v174h-48v-100l-73 100h-41v-174h45v98l74 -98h43zM1444 768v45h29q30 0 30 -22q0 -23 -28 -23h-31z M1927 764q0 -47 -41 -47t-41 47q0 49 41 49t41 -49zM2218 813q-10 0 -17.5 -7.5t-7.5 -17.5q0 -11 7.5 -18.5t17.5 -7.5q12 0 19.5 7.5t7.5 18.5t-7.5 18t-19.5 7zM2218 727q-10 0 -17.5 -7.5t-7.5 -17.5q0 -11 7.5 -18.5t17.5 -7.5q12 0 19.5 7.5t7.5 18.5t-7.5 18t-19.5 7 zM1081 475q0 43 -23.5 66.5t-64.5 23.5t-63.5 -23.5t-22.5 -66.5q0 -90 86 -90q42 0 65 23t23 67zM1569 510l14 35q-48 20 -78 20q-27 0 -42 -15t-15 -38q0 -41 49 -55q24 -6 30.5 -10t6.5 -11q0 -12 -14 -12q-26 0 -62 20l-18 -34q36 -25 82 -25q63 0 63 53 q0 22 -10.5 34.5t-36.5 21.5l-15 5q-27 11 -28 17q0 10 16 10q15 0 58 -16zM1839 403l-16 37q-32 -14 -56 -14q-19 0 -30 13t-11 36q0 47 43 47q23 0 50 -8l12 33q-27 18 -64 18q-41 0 -64.5 -23.5t-23.5 -66.5q0 -44 23 -67t63 -23q33 0 74 18zM2021 475q0 43 -23.5 66.5 t-64.5 23.5q-40 0 -64 -24t-24 -66q0 -43 23.5 -66.5t64.5 -23.5q42 0 65 23t23 67zM520 387h49l-8 174h-51l-41 -94q-2 -4 -2 -12l-6 12l-39 94h-53l-7 -174h50v100l41 -100h26l41 100v-100zM692 442l64 119h-49l-29 -55q-2 -3 -5 -10.5t-5 -10.5q-2 3 -5.5 10.5t-5.5 10.5 l-28 55h-49l65 -119v-55h47v55zM815 485v33h78v43h-125v-174h47v57h68v41h-68zM1264 387v174h-47v-98l-74 98h-41v-174h47v98l74 -98h41zM1434 518v43h-154v-43h55v-131h45v131h54zM2198 387h51l-8 174h-54l-39 -94q-1 -2 -2 -6.5t-2 -5.5q0 4 -4 12l-41 94h-51l-6 -174h47 v100l41 -100h27l41 100v-100zM1034 475q0 -49 -41 -49q-19 0 -30 13t-11 36q0 47 41 47t41 -47zM1974 475q0 -49 -41 -49q-19 0 -30 13t-11 36q0 47 41 47t41 -47zM1638 436q-10 0 -17 -7t-7 -17q0 -11 7 -19t17 -8q12 0 19.5 8t7.5 19t-7.5 17.5t-19.5 6.5z" />
<glyph unicode="&#xab;" d="M2501 1075h-2358v-923h2358v923zM221 997h2202v-768h-2202v768zM1692 801l14 33q-41 20 -80 20q-26 0 -41.5 -14.5t-15.5 -36.5q0 -40 49 -55q25 -6 32 -10t7 -11q0 -12 -17 -12q-22 0 -61 20l-16 -35q35 -24 82 -24q29 0 46 14t17 39q0 22 -10.5 34t-36.5 19 q-29 9 -37 13t-8 10q0 12 16 12q17 0 60 -16zM1974 764q0 44 -23 67t-65 23t-65 -23t-23 -67q0 -41 23.5 -64.5t64.5 -23.5t64.5 23.5t23.5 64.5zM426 774v35h78v43h-125v-174h47v55h68v41h-68zM684 852h-47v-90q0 -45 -35 -45q-31 0 -31 45v90h-47v-90q0 -86 78 -86 q82 0 82 86v90zM834 678v43h-78v131h-45v-174h123zM979 678v43h-78v131h-45v-174h123zM1165 678l66 174h-49l-37 -111l-6 -16q-4 12 -4 16l-37 111h-51l67 -174h51zM1376 678v43h-84v22h68v39h-68v27h80v43h-127v-174h131zM1399 852v-174h45v53h22q4 0 7.5 -1.5t6.5 -5 t5.5 -7t5 -9.5t3.5 -9.5t3.5 -10.5t3.5 -10h53q-1 3 -3.5 13.5t-5 16.5t-6.5 14.5t-9.5 15t-13.5 10.5q30 6 30 45q0 59 -76 59h-71zM1778 678v174h-47v-174h47zM2157 678v174h-48v-100l-73 100h-41v-174h45v98l74 -98h43zM1444 768v45h29q30 0 30 -22q0 -23 -28 -23h-31z M1927 764q0 -47 -41 -47t-41 47q0 49 41 49t41 -49zM2218 813q-10 0 -17.5 -7.5t-7.5 -17.5q0 -11 7.5 -18.5t17.5 -7.5q12 0 19.5 7.5t7.5 18.5t-7.5 18t-19.5 7zM2218 727q-10 0 -17.5 -7.5t-7.5 -17.5q0 -11 7.5 -18.5t17.5 -7.5q12 0 19.5 7.5t7.5 18.5t-7.5 18t-19.5 7 zM1081 475q0 43 -23.5 66.5t-64.5 23.5t-63.5 -23.5t-22.5 -66.5q0 -90 86 -90q42 0 65 23t23 67zM1569 510l14 35q-48 20 -78 20q-27 0 -42 -15t-15 -38q0 -41 49 -55q24 -6 30.5 -10t6.5 -11q0 -12 -14 -12q-26 0 -62 20l-18 -34q36 -25 82 -25q63 0 63 53 q0 22 -10.5 34.5t-36.5 21.5l-15 5q-27 11 -28 17q0 10 16 10q15 0 58 -16zM1839 403l-16 37q-32 -14 -56 -14q-19 0 -30 13t-11 36q0 47 43 47q23 0 50 -8l12 33q-27 18 -64 18q-41 0 -64.5 -23.5t-23.5 -66.5q0 -44 23 -67t63 -23q33 0 74 18zM2021 475q0 43 -23.5 66.5 t-64.5 23.5q-40 0 -64 -24t-24 -66q0 -43 23.5 -66.5t64.5 -23.5q42 0 65 23t23 67zM520 387h49l-8 174h-51l-41 -94q-2 -4 -2 -12l-6 12l-39 94h-53l-7 -174h50v100l41 -100h26l41 100v-100zM692 442l64 119h-49l-29 -55q-2 -3 -5 -10.5t-5 -10.5q-2 3 -5.5 10.5t-5.5 10.5 l-28 55h-49l65 -119v-55h47v55zM815 485v33h78v43h-125v-174h47v57h68v41h-68zM1264 387v174h-47v-98l-74 98h-41v-174h47v98l74 -98h41zM1434 518v43h-154v-43h55v-131h45v131h54zM2198 387h51l-8 174h-54l-39 -94q-1 -2 -2 -6.5t-2 -5.5q0 4 -4 12l-41 94h-51l-6 -174h47 v100l41 -100h27l41 100v-100zM1034 475q0 -49 -41 -49q-19 0 -30 13t-11 36q0 47 41 47t41 -47zM1974 475q0 -49 -41 -49q-19 0 -30 13t-11 36q0 47 41 47t41 -47zM1638 436q-10 0 -17 -7t-7 -17q0 -11 7 -19t17 -8q12 0 19.5 8t7.5 19t-7.5 17.5t-19.5 6.5z" />
<glyph unicode="&#xad;" d="M2501 1075h-2358v-923h2358v923zM221 997h2202v-768h-2202v768zM1692 801l14 33q-41 20 -80 20q-26 0 -41.5 -14.5t-15.5 -36.5q0 -40 49 -55q25 -6 32 -10t7 -11q0 -12 -17 -12q-22 0 -61 20l-16 -35q35 -24 82 -24q29 0 46 14t17 39q0 22 -10.5 34t-36.5 19 q-29 9 -37 13t-8 10q0 12 16 12q17 0 60 -16zM1974 764q0 44 -23 67t-65 23t-65 -23t-23 -67q0 -41 23.5 -64.5t64.5 -23.5t64.5 23.5t23.5 64.5zM426 774v35h78v43h-125v-174h47v55h68v41h-68zM684 852h-47v-90q0 -45 -35 -45q-31 0 -31 45v90h-47v-90q0 -86 78 -86 q82 0 82 86v90zM834 678v43h-78v131h-45v-174h123zM979 678v43h-78v131h-45v-174h123zM1165 678l66 174h-49l-37 -111l-6 -16q-4 12 -4 16l-37 111h-51l67 -174h51zM1376 678v43h-84v22h68v39h-68v27h80v43h-127v-174h131zM1399 852v-174h45v53h22q4 0 7.5 -1.5t6.5 -5 t5.5 -7t5 -9.5t3.5 -9.5t3.5 -10.5t3.5 -10h53q-1 3 -3.5 13.5t-5 16.5t-6.5 14.5t-9.5 15t-13.5 10.5q30 6 30 45q0 59 -76 59h-71zM1778 678v174h-47v-174h47zM2157 678v174h-48v-100l-73 100h-41v-174h45v98l74 -98h43zM1444 768v45h29q30 0 30 -22q0 -23 -28 -23h-31z M1927 764q0 -47 -41 -47t-41 47q0 49 41 49t41 -49zM2218 813q-10 0 -17.5 -7.5t-7.5 -17.5q0 -11 7.5 -18.5t17.5 -7.5q12 0 19.5 7.5t7.5 18.5t-7.5 18t-19.5 7zM2218 727q-10 0 -17.5 -7.5t-7.5 -17.5q0 -11 7.5 -18.5t17.5 -7.5q12 0 19.5 7.5t7.5 18.5t-7.5 18t-19.5 7 zM1081 475q0 43 -23.5 66.5t-64.5 23.5t-63.5 -23.5t-22.5 -66.5q0 -90 86 -90q42 0 65 23t23 67zM1569 510l14 35q-48 20 -78 20q-27 0 -42 -15t-15 -38q0 -41 49 -55q24 -6 30.5 -10t6.5 -11q0 -12 -14 -12q-26 0 -62 20l-18 -34q36 -25 82 -25q63 0 63 53 q0 22 -10.5 34.5t-36.5 21.5l-15 5q-27 11 -28 17q0 10 16 10q15 0 58 -16zM1839 403l-16 37q-32 -14 -56 -14q-19 0 -30 13t-11 36q0 47 43 47q23 0 50 -8l12 33q-27 18 -64 18q-41 0 -64.5 -23.5t-23.5 -66.5q0 -44 23 -67t63 -23q33 0 74 18zM2021 475q0 43 -23.5 66.5 t-64.5 23.5q-40 0 -64 -24t-24 -66q0 -43 23.5 -66.5t64.5 -23.5q42 0 65 23t23 67zM520 387h49l-8 174h-51l-41 -94q-2 -4 -2 -12l-6 12l-39 94h-53l-7 -174h50v100l41 -100h26l41 100v-100zM692 442l64 119h-49l-29 -55q-2 -3 -5 -10.5t-5 -10.5q-2 3 -5.5 10.5t-5.5 10.5 l-28 55h-49l65 -119v-55h47v55zM815 485v33h78v43h-125v-174h47v57h68v41h-68zM1264 387v174h-47v-98l-74 98h-41v-174h47v98l74 -98h41zM1434 518v43h-154v-43h55v-131h45v131h54zM2198 387h51l-8 174h-54l-39 -94q-1 -2 -2 -6.5t-2 -5.5q0 4 -4 12l-41 94h-51l-6 -174h47 v100l41 -100h27l41 100v-100zM1034 475q0 -49 -41 -49q-19 0 -30 13t-11 36q0 47 41 47t41 -47zM1974 475q0 -49 -41 -49q-19 0 -30 13t-11 36q0 47 41 47t41 -47zM1638 436q-10 0 -17 -7t-7 -17q0 -11 7 -19t17 -8q12 0 19.5 8t7.5 19t-7.5 17.5t-19.5 6.5z" />
<glyph unicode="&#xb0;" d="M2501 1075h-2358v-923h2358v923zM221 997h2202v-768h-2202v768zM1692 801l14 33q-41 20 -80 20q-26 0 -41.5 -14.5t-15.5 -36.5q0 -40 49 -55q25 -6 32 -10t7 -11q0 -12 -17 -12q-22 0 -61 20l-16 -35q35 -24 82 -24q29 0 46 14t17 39q0 22 -10.5 34t-36.5 19 q-29 9 -37 13t-8 10q0 12 16 12q17 0 60 -16zM1974 764q0 44 -23 67t-65 23t-65 -23t-23 -67q0 -41 23.5 -64.5t64.5 -23.5t64.5 23.5t23.5 64.5zM426 774v35h78v43h-125v-174h47v55h68v41h-68zM684 852h-47v-90q0 -45 -35 -45q-31 0 -31 45v90h-47v-90q0 -86 78 -86 q82 0 82 86v90zM834 678v43h-78v131h-45v-174h123zM979 678v43h-78v131h-45v-174h123zM1165 678l66 174h-49l-37 -111l-6 -16q-4 12 -4 16l-37 111h-51l67 -174h51zM1376 678v43h-84v22h68v39h-68v27h80v43h-127v-174h131zM1399 852v-174h45v53h22q4 0 7.5 -1.5t6.5 -5 t5.5 -7t5 -9.5t3.5 -9.5t3.5 -10.5t3.5 -10h53q-1 3 -3.5 13.5t-5 16.5t-6.5 14.5t-9.5 15t-13.5 10.5q30 6 30 45q0 59 -76 59h-71zM1778 678v174h-47v-174h47zM2157 678v174h-48v-100l-73 100h-41v-174h45v98l74 -98h43zM1444 768v45h29q30 0 30 -22q0 -23 -28 -23h-31z M1927 764q0 -47 -41 -47t-41 47q0 49 41 49t41 -49zM2218 813q-10 0 -17.5 -7.5t-7.5 -17.5q0 -11 7.5 -18.5t17.5 -7.5q12 0 19.5 7.5t7.5 18.5t-7.5 18t-19.5 7zM2218 727q-10 0 -17.5 -7.5t-7.5 -17.5q0 -11 7.5 -18.5t17.5 -7.5q12 0 19.5 7.5t7.5 18.5t-7.5 18t-19.5 7 zM1081 475q0 43 -23.5 66.5t-64.5 23.5t-63.5 -23.5t-22.5 -66.5q0 -90 86 -90q42 0 65 23t23 67zM1569 510l14 35q-48 20 -78 20q-27 0 -42 -15t-15 -38q0 -41 49 -55q24 -6 30.5 -10t6.5 -11q0 -12 -14 -12q-26 0 -62 20l-18 -34q36 -25 82 -25q63 0 63 53 q0 22 -10.5 34.5t-36.5 21.5l-15 5q-27 11 -28 17q0 10 16 10q15 0 58 -16zM1839 403l-16 37q-32 -14 -56 -14q-19 0 -30 13t-11 36q0 47 43 47q23 0 50 -8l12 33q-27 18 -64 18q-41 0 -64.5 -23.5t-23.5 -66.5q0 -44 23 -67t63 -23q33 0 74 18zM2021 475q0 43 -23.5 66.5 t-64.5 23.5q-40 0 -64 -24t-24 -66q0 -43 23.5 -66.5t64.5 -23.5q42 0 65 23t23 67zM520 387h49l-8 174h-51l-41 -94q-2 -4 -2 -12l-6 12l-39 94h-53l-7 -174h50v100l41 -100h26l41 100v-100zM692 442l64 119h-49l-29 -55q-2 -3 -5 -10.5t-5 -10.5q-2 3 -5.5 10.5t-5.5 10.5 l-28 55h-49l65 -119v-55h47v55zM815 485v33h78v43h-125v-174h47v57h68v41h-68zM1264 387v174h-47v-98l-74 98h-41v-174h47v98l74 -98h41zM1434 518v43h-154v-43h55v-131h45v131h54zM2198 387h51l-8 174h-54l-39 -94q-1 -2 -2 -6.5t-2 -5.5q0 4 -4 12l-41 94h-51l-6 -174h47 v100l41 -100h27l41 100v-100zM1034 475q0 -49 -41 -49q-19 0 -30 13t-11 36q0 47 41 47t41 -47zM1974 475q0 -49 -41 -49q-19 0 -30 13t-11 36q0 47 41 47t41 -47zM1638 436q-10 0 -17 -7t-7 -17q0 -11 7 -19t17 -8q12 0 19.5 8t7.5 19t-7.5 17.5t-19.5 6.5z" />
<glyph unicode="&#xb7;" d="M2501 1075h-2358v-923h2358v923zM221 997h2202v-768h-2202v768zM1692 801l14 33q-41 20 -80 20q-26 0 -41.5 -14.5t-15.5 -36.5q0 -40 49 -55q25 -6 32 -10t7 -11q0 -12 -17 -12q-22 0 -61 20l-16 -35q35 -24 82 -24q29 0 46 14t17 39q0 22 -10.5 34t-36.5 19 q-29 9 -37 13t-8 10q0 12 16 12q17 0 60 -16zM1974 764q0 44 -23 67t-65 23t-65 -23t-23 -67q0 -41 23.5 -64.5t64.5 -23.5t64.5 23.5t23.5 64.5zM426 774v35h78v43h-125v-174h47v55h68v41h-68zM684 852h-47v-90q0 -45 -35 -45q-31 0 -31 45v90h-47v-90q0 -86 78 -86 q82 0 82 86v90zM834 678v43h-78v131h-45v-174h123zM979 678v43h-78v131h-45v-174h123zM1165 678l66 174h-49l-37 -111l-6 -16q-4 12 -4 16l-37 111h-51l67 -174h51zM1376 678v43h-84v22h68v39h-68v27h80v43h-127v-174h131zM1399 852v-174h45v53h22q4 0 7.5 -1.5t6.5 -5 t5.5 -7t5 -9.5t3.5 -9.5t3.5 -10.5t3.5 -10h53q-1 3 -3.5 13.5t-5 16.5t-6.5 14.5t-9.5 15t-13.5 10.5q30 6 30 45q0 59 -76 59h-71zM1778 678v174h-47v-174h47zM2157 678v174h-48v-100l-73 100h-41v-174h45v98l74 -98h43zM1444 768v45h29q30 0 30 -22q0 -23 -28 -23h-31z M1927 764q0 -47 -41 -47t-41 47q0 49 41 49t41 -49zM2218 813q-10 0 -17.5 -7.5t-7.5 -17.5q0 -11 7.5 -18.5t17.5 -7.5q12 0 19.5 7.5t7.5 18.5t-7.5 18t-19.5 7zM2218 727q-10 0 -17.5 -7.5t-7.5 -17.5q0 -11 7.5 -18.5t17.5 -7.5q12 0 19.5 7.5t7.5 18.5t-7.5 18t-19.5 7 zM1081 475q0 43 -23.5 66.5t-64.5 23.5t-63.5 -23.5t-22.5 -66.5q0 -90 86 -90q42 0 65 23t23 67zM1569 510l14 35q-48 20 -78 20q-27 0 -42 -15t-15 -38q0 -41 49 -55q24 -6 30.5 -10t6.5 -11q0 -12 -14 -12q-26 0 -62 20l-18 -34q36 -25 82 -25q63 0 63 53 q0 22 -10.5 34.5t-36.5 21.5l-15 5q-27 11 -28 17q0 10 16 10q15 0 58 -16zM1839 403l-16 37q-32 -14 -56 -14q-19 0 -30 13t-11 36q0 47 43 47q23 0 50 -8l12 33q-27 18 -64 18q-41 0 -64.5 -23.5t-23.5 -66.5q0 -44 23 -67t63 -23q33 0 74 18zM2021 475q0 43 -23.5 66.5 t-64.5 23.5q-40 0 -64 -24t-24 -66q0 -43 23.5 -66.5t64.5 -23.5q42 0 65 23t23 67zM520 387h49l-8 174h-51l-41 -94q-2 -4 -2 -12l-6 12l-39 94h-53l-7 -174h50v100l41 -100h26l41 100v-100zM692 442l64 119h-49l-29 -55q-2 -3 -5 -10.5t-5 -10.5q-2 3 -5.5 10.5t-5.5 10.5 l-28 55h-49l65 -119v-55h47v55zM815 485v33h78v43h-125v-174h47v57h68v41h-68zM1264 387v174h-47v-98l-74 98h-41v-174h47v98l74 -98h41zM1434 518v43h-154v-43h55v-131h45v131h54zM2198 387h51l-8 174h-54l-39 -94q-1 -2 -2 -6.5t-2 -5.5q0 4 -4 12l-41 94h-51l-6 -174h47 v100l41 -100h27l41 100v-100zM1034 475q0 -49 -41 -49q-19 0 -30 13t-11 36q0 47 41 47t41 -47zM1974 475q0 -49 -41 -49q-19 0 -30 13t-11 36q0 47 41 47t41 -47zM1638 436q-10 0 -17 -7t-7 -17q0 -11 7 -19t17 -8q12 0 19.5 8t7.5 19t-7.5 17.5t-19.5 6.5z" />
<glyph unicode="&#xbb;" d="M2501 1075h-2358v-923h2358v923zM221 997h2202v-768h-2202v768zM1692 801l14 33q-41 20 -80 20q-26 0 -41.5 -14.5t-15.5 -36.5q0 -40 49 -55q25 -6 32 -10t7 -11q0 -12 -17 -12q-22 0 -61 20l-16 -35q35 -24 82 -24q29 0 46 14t17 39q0 22 -10.5 34t-36.5 19 q-29 9 -37 13t-8 10q0 12 16 12q17 0 60 -16zM1974 764q0 44 -23 67t-65 23t-65 -23t-23 -67q0 -41 23.5 -64.5t64.5 -23.5t64.5 23.5t23.5 64.5zM426 774v35h78v43h-125v-174h47v55h68v41h-68zM684 852h-47v-90q0 -45 -35 -45q-31 0 -31 45v90h-47v-90q0 -86 78 -86 q82 0 82 86v90zM834 678v43h-78v131h-45v-174h123zM979 678v43h-78v131h-45v-174h123zM1165 678l66 174h-49l-37 -111l-6 -16q-4 12 -4 16l-37 111h-51l67 -174h51zM1376 678v43h-84v22h68v39h-68v27h80v43h-127v-174h131zM1399 852v-174h45v53h22q4 0 7.5 -1.5t6.5 -5 t5.5 -7t5 -9.5t3.5 -9.5t3.5 -10.5t3.5 -10h53q-1 3 -3.5 13.5t-5 16.5t-6.5 14.5t-9.5 15t-13.5 10.5q30 6 30 45q0 59 -76 59h-71zM1778 678v174h-47v-174h47zM2157 678v174h-48v-100l-73 100h-41v-174h45v98l74 -98h43zM1444 768v45h29q30 0 30 -22q0 -23 -28 -23h-31z M1927 764q0 -47 -41 -47t-41 47q0 49 41 49t41 -49zM2218 813q-10 0 -17.5 -7.5t-7.5 -17.5q0 -11 7.5 -18.5t17.5 -7.5q12 0 19.5 7.5t7.5 18.5t-7.5 18t-19.5 7zM2218 727q-10 0 -17.5 -7.5t-7.5 -17.5q0 -11 7.5 -18.5t17.5 -7.5q12 0 19.5 7.5t7.5 18.5t-7.5 18t-19.5 7 zM1081 475q0 43 -23.5 66.5t-64.5 23.5t-63.5 -23.5t-22.5 -66.5q0 -90 86 -90q42 0 65 23t23 67zM1569 510l14 35q-48 20 -78 20q-27 0 -42 -15t-15 -38q0 -41 49 -55q24 -6 30.5 -10t6.5 -11q0 -12 -14 -12q-26 0 -62 20l-18 -34q36 -25 82 -25q63 0 63 53 q0 22 -10.5 34.5t-36.5 21.5l-15 5q-27 11 -28 17q0 10 16 10q15 0 58 -16zM1839 403l-16 37q-32 -14 -56 -14q-19 0 -30 13t-11 36q0 47 43 47q23 0 50 -8l12 33q-27 18 -64 18q-41 0 -64.5 -23.5t-23.5 -66.5q0 -44 23 -67t63 -23q33 0 74 18zM2021 475q0 43 -23.5 66.5 t-64.5 23.5q-40 0 -64 -24t-24 -66q0 -43 23.5 -66.5t64.5 -23.5q42 0 65 23t23 67zM520 387h49l-8 174h-51l-41 -94q-2 -4 -2 -12l-6 12l-39 94h-53l-7 -174h50v100l41 -100h26l41 100v-100zM692 442l64 119h-49l-29 -55q-2 -3 -5 -10.5t-5 -10.5q-2 3 -5.5 10.5t-5.5 10.5 l-28 55h-49l65 -119v-55h47v55zM815 485v33h78v43h-125v-174h47v57h68v41h-68zM1264 387v174h-47v-98l-74 98h-41v-174h47v98l74 -98h41zM1434 518v43h-154v-43h55v-131h45v131h54zM2198 387h51l-8 174h-54l-39 -94q-1 -2 -2 -6.5t-2 -5.5q0 4 -4 12l-41 94h-51l-6 -174h47 v100l41 -100h27l41 100v-100zM1034 475q0 -49 -41 -49q-19 0 -30 13t-11 36q0 47 41 47t41 -47zM1974 475q0 -49 -41 -49q-19 0 -30 13t-11 36q0 47 41 47t41 -47zM1638 436q-10 0 -17 -7t-7 -17q0 -11 7 -19t17 -8q12 0 19.5 8t7.5 19t-7.5 17.5t-19.5 6.5z" />
<glyph unicode="&#xbf;" d="M2501 1075h-2358v-923h2358v923zM221 997h2202v-768h-2202v768zM1692 801l14 33q-41 20 -80 20q-26 0 -41.5 -14.5t-15.5 -36.5q0 -40 49 -55q25 -6 32 -10t7 -11q0 -12 -17 -12q-22 0 -61 20l-16 -35q35 -24 82 -24q29 0 46 14t17 39q0 22 -10.5 34t-36.5 19 q-29 9 -37 13t-8 10q0 12 16 12q17 0 60 -16zM1974 764q0 44 -23 67t-65 23t-65 -23t-23 -67q0 -41 23.5 -64.5t64.5 -23.5t64.5 23.5t23.5 64.5zM426 774v35h78v43h-125v-174h47v55h68v41h-68zM684 852h-47v-90q0 -45 -35 -45q-31 0 -31 45v90h-47v-90q0 -86 78 -86 q82 0 82 86v90zM834 678v43h-78v131h-45v-174h123zM979 678v43h-78v131h-45v-174h123zM1165 678l66 174h-49l-37 -111l-6 -16q-4 12 -4 16l-37 111h-51l67 -174h51zM1376 678v43h-84v22h68v39h-68v27h80v43h-127v-174h131zM1399 852v-174h45v53h22q4 0 7.5 -1.5t6.5 -5 t5.5 -7t5 -9.5t3.5 -9.5t3.5 -10.5t3.5 -10h53q-1 3 -3.5 13.5t-5 16.5t-6.5 14.5t-9.5 15t-13.5 10.5q30 6 30 45q0 59 -76 59h-71zM1778 678v174h-47v-174h47zM2157 678v174h-48v-100l-73 100h-41v-174h45v98l74 -98h43zM1444 768v45h29q30 0 30 -22q0 -23 -28 -23h-31z M1927 764q0 -47 -41 -47t-41 47q0 49 41 49t41 -49zM2218 813q-10 0 -17.5 -7.5t-7.5 -17.5q0 -11 7.5 -18.5t17.5 -7.5q12 0 19.5 7.5t7.5 18.5t-7.5 18t-19.5 7zM2218 727q-10 0 -17.5 -7.5t-7.5 -17.5q0 -11 7.5 -18.5t17.5 -7.5q12 0 19.5 7.5t7.5 18.5t-7.5 18t-19.5 7 zM1081 475q0 43 -23.5 66.5t-64.5 23.5t-63.5 -23.5t-22.5 -66.5q0 -90 86 -90q42 0 65 23t23 67zM1569 510l14 35q-48 20 -78 20q-27 0 -42 -15t-15 -38q0 -41 49 -55q24 -6 30.5 -10t6.5 -11q0 -12 -14 -12q-26 0 -62 20l-18 -34q36 -25 82 -25q63 0 63 53 q0 22 -10.5 34.5t-36.5 21.5l-15 5q-27 11 -28 17q0 10 16 10q15 0 58 -16zM1839 403l-16 37q-32 -14 -56 -14q-19 0 -30 13t-11 36q0 47 43 47q23 0 50 -8l12 33q-27 18 -64 18q-41 0 -64.5 -23.5t-23.5 -66.5q0 -44 23 -67t63 -23q33 0 74 18zM2021 475q0 43 -23.5 66.5 t-64.5 23.5q-40 0 -64 -24t-24 -66q0 -43 23.5 -66.5t64.5 -23.5q42 0 65 23t23 67zM520 387h49l-8 174h-51l-41 -94q-2 -4 -2 -12l-6 12l-39 94h-53l-7 -174h50v100l41 -100h26l41 100v-100zM692 442l64 119h-49l-29 -55q-2 -3 -5 -10.5t-5 -10.5q-2 3 -5.5 10.5t-5.5 10.5 l-28 55h-49l65 -119v-55h47v55zM815 485v33h78v43h-125v-174h47v57h68v41h-68zM1264 387v174h-47v-98l-74 98h-41v-174h47v98l74 -98h41zM1434 518v43h-154v-43h55v-131h45v131h54zM2198 387h51l-8 174h-54l-39 -94q-1 -2 -2 -6.5t-2 -5.5q0 4 -4 12l-41 94h-51l-6 -174h47 v100l41 -100h27l41 100v-100zM1034 475q0 -49 -41 -49q-19 0 -30 13t-11 36q0 47 41 47t41 -47zM1974 475q0 -49 -41 -49q-19 0 -30 13t-11 36q0 47 41 47t41 -47zM1638 436q-10 0 -17 -7t-7 -17q0 -11 7 -19t17 -8q12 0 19.5 8t7.5 19t-7.5 17.5t-19.5 6.5z" />
<glyph unicode="&#xc0;" d="M2501 1075h-2358v-923h2358v923zM221 997h2202v-768h-2202v768zM1692 801l14 33q-41 20 -80 20q-26 0 -41.5 -14.5t-15.5 -36.5q0 -40 49 -55q25 -6 32 -10t7 -11q0 -12 -17 -12q-22 0 -61 20l-16 -35q35 -24 82 -24q29 0 46 14t17 39q0 22 -10.5 34t-36.5 19 q-29 9 -37 13t-8 10q0 12 16 12q17 0 60 -16zM1974 764q0 44 -23 67t-65 23t-65 -23t-23 -67q0 -41 23.5 -64.5t64.5 -23.5t64.5 23.5t23.5 64.5zM426 774v35h78v43h-125v-174h47v55h68v41h-68zM684 852h-47v-90q0 -45 -35 -45q-31 0 -31 45v90h-47v-90q0 -86 78 -86 q82 0 82 86v90zM834 678v43h-78v131h-45v-174h123zM979 678v43h-78v131h-45v-174h123zM1165 678l66 174h-49l-37 -111l-6 -16q-4 12 -4 16l-37 111h-51l67 -174h51zM1376 678v43h-84v22h68v39h-68v27h80v43h-127v-174h131zM1399 852v-174h45v53h22q4 0 7.5 -1.5t6.5 -5 t5.5 -7t5 -9.5t3.5 -9.5t3.5 -10.5t3.5 -10h53q-1 3 -3.5 13.5t-5 16.5t-6.5 14.5t-9.5 15t-13.5 10.5q30 6 30 45q0 59 -76 59h-71zM1778 678v174h-47v-174h47zM2157 678v174h-48v-100l-73 100h-41v-174h45v98l74 -98h43zM1444 768v45h29q30 0 30 -22q0 -23 -28 -23h-31z M1927 764q0 -47 -41 -47t-41 47q0 49 41 49t41 -49zM2218 813q-10 0 -17.5 -7.5t-7.5 -17.5q0 -11 7.5 -18.5t17.5 -7.5q12 0 19.5 7.5t7.5 18.5t-7.5 18t-19.5 7zM2218 727q-10 0 -17.5 -7.5t-7.5 -17.5q0 -11 7.5 -18.5t17.5 -7.5q12 0 19.5 7.5t7.5 18.5t-7.5 18t-19.5 7 zM1081 475q0 43 -23.5 66.5t-64.5 23.5t-63.5 -23.5t-22.5 -66.5q0 -90 86 -90q42 0 65 23t23 67zM1569 510l14 35q-48 20 -78 20q-27 0 -42 -15t-15 -38q0 -41 49 -55q24 -6 30.5 -10t6.5 -11q0 -12 -14 -12q-26 0 -62 20l-18 -34q36 -25 82 -25q63 0 63 53 q0 22 -10.5 34.5t-36.5 21.5l-15 5q-27 11 -28 17q0 10 16 10q15 0 58 -16zM1839 403l-16 37q-32 -14 -56 -14q-19 0 -30 13t-11 36q0 47 43 47q23 0 50 -8l12 33q-27 18 -64 18q-41 0 -64.5 -23.5t-23.5 -66.5q0 -44 23 -67t63 -23q33 0 74 18zM2021 475q0 43 -23.5 66.5 t-64.5 23.5q-40 0 -64 -24t-24 -66q0 -43 23.5 -66.5t64.5 -23.5q42 0 65 23t23 67zM520 387h49l-8 174h-51l-41 -94q-2 -4 -2 -12l-6 12l-39 94h-53l-7 -174h50v100l41 -100h26l41 100v-100zM692 442l64 119h-49l-29 -55q-2 -3 -5 -10.5t-5 -10.5q-2 3 -5.5 10.5t-5.5 10.5 l-28 55h-49l65 -119v-55h47v55zM815 485v33h78v43h-125v-174h47v57h68v41h-68zM1264 387v174h-47v-98l-74 98h-41v-174h47v98l74 -98h41zM1434 518v43h-154v-43h55v-131h45v131h54zM2198 387h51l-8 174h-54l-39 -94q-1 -2 -2 -6.5t-2 -5.5q0 4 -4 12l-41 94h-51l-6 -174h47 v100l41 -100h27l41 100v-100zM1034 475q0 -49 -41 -49q-19 0 -30 13t-11 36q0 47 41 47t41 -47zM1974 475q0 -49 -41 -49q-19 0 -30 13t-11 36q0 47 41 47t41 -47zM1638 436q-10 0 -17 -7t-7 -17q0 -11 7 -19t17 -8q12 0 19.5 8t7.5 19t-7.5 17.5t-19.5 6.5z" />
<glyph unicode="&#xc1;" d="M2501 1075h-2358v-923h2358v923zM221 997h2202v-768h-2202v768zM1692 801l14 33q-41 20 -80 20q-26 0 -41.5 -14.5t-15.5 -36.5q0 -40 49 -55q25 -6 32 -10t7 -11q0 -12 -17 -12q-22 0 -61 20l-16 -35q35 -24 82 -24q29 0 46 14t17 39q0 22 -10.5 34t-36.5 19 q-29 9 -37 13t-8 10q0 12 16 12q17 0 60 -16zM1974 764q0 44 -23 67t-65 23t-65 -23t-23 -67q0 -41 23.5 -64.5t64.5 -23.5t64.5 23.5t23.5 64.5zM426 774v35h78v43h-125v-174h47v55h68v41h-68zM684 852h-47v-90q0 -45 -35 -45q-31 0 -31 45v90h-47v-90q0 -86 78 -86 q82 0 82 86v90zM834 678v43h-78v131h-45v-174h123zM979 678v43h-78v131h-45v-174h123zM1165 678l66 174h-49l-37 -111l-6 -16q-4 12 -4 16l-37 111h-51l67 -174h51zM1376 678v43h-84v22h68v39h-68v27h80v43h-127v-174h131zM1399 852v-174h45v53h22q4 0 7.5 -1.5t6.5 -5 t5.5 -7t5 -9.5t3.5 -9.5t3.5 -10.5t3.5 -10h53q-1 3 -3.5 13.5t-5 16.5t-6.5 14.5t-9.5 15t-13.5 10.5q30 6 30 45q0 59 -76 59h-71zM1778 678v174h-47v-174h47zM2157 678v174h-48v-100l-73 100h-41v-174h45v98l74 -98h43zM1444 768v45h29q30 0 30 -22q0 -23 -28 -23h-31z M1927 764q0 -47 -41 -47t-41 47q0 49 41 49t41 -49zM2218 813q-10 0 -17.5 -7.5t-7.5 -17.5q0 -11 7.5 -18.5t17.5 -7.5q12 0 19.5 7.5t7.5 18.5t-7.5 18t-19.5 7zM2218 727q-10 0 -17.5 -7.5t-7.5 -17.5q0 -11 7.5 -18.5t17.5 -7.5q12 0 19.5 7.5t7.5 18.5t-7.5 18t-19.5 7 zM1081 475q0 43 -23.5 66.5t-64.5 23.5t-63.5 -23.5t-22.5 -66.5q0 -90 86 -90q42 0 65 23t23 67zM1569 510l14 35q-48 20 -78 20q-27 0 -42 -15t-15 -38q0 -41 49 -55q24 -6 30.5 -10t6.5 -11q0 -12 -14 -12q-26 0 -62 20l-18 -34q36 -25 82 -25q63 0 63 53 q0 22 -10.5 34.5t-36.5 21.5l-15 5q-27 11 -28 17q0 10 16 10q15 0 58 -16zM1839 403l-16 37q-32 -14 -56 -14q-19 0 -30 13t-11 36q0 47 43 47q23 0 50 -8l12 33q-27 18 -64 18q-41 0 -64.5 -23.5t-23.5 -66.5q0 -44 23 -67t63 -23q33 0 74 18zM2021 475q0 43 -23.5 66.5 t-64.5 23.5q-40 0 -64 -24t-24 -66q0 -43 23.5 -66.5t64.5 -23.5q42 0 65 23t23 67zM520 387h49l-8 174h-51l-41 -94q-2 -4 -2 -12l-6 12l-39 94h-53l-7 -174h50v100l41 -100h26l41 100v-100zM692 442l64 119h-49l-29 -55q-2 -3 -5 -10.5t-5 -10.5q-2 3 -5.5 10.5t-5.5 10.5 l-28 55h-49l65 -119v-55h47v55zM815 485v33h78v43h-125v-174h47v57h68v41h-68zM1264 387v174h-47v-98l-74 98h-41v-174h47v98l74 -98h41zM1434 518v43h-154v-43h55v-131h45v131h54zM2198 387h51l-8 174h-54l-39 -94q-1 -2 -2 -6.5t-2 -5.5q0 4 -4 12l-41 94h-51l-6 -174h47 v100l41 -100h27l41 100v-100zM1034 475q0 -49 -41 -49q-19 0 -30 13t-11 36q0 47 41 47t41 -47zM1974 475q0 -49 -41 -49q-19 0 -30 13t-11 36q0 47 41 47t41 -47zM1638 436q-10 0 -17 -7t-7 -17q0 -11 7 -19t17 -8q12 0 19.5 8t7.5 19t-7.5 17.5t-19.5 6.5z" />
<glyph unicode="&#xc2;" d="M2501 1075h-2358v-923h2358v923zM221 997h2202v-768h-2202v768zM1692 801l14 33q-41 20 -80 20q-26 0 -41.5 -14.5t-15.5 -36.5q0 -40 49 -55q25 -6 32 -10t7 -11q0 -12 -17 -12q-22 0 -61 20l-16 -35q35 -24 82 -24q29 0 46 14t17 39q0 22 -10.5 34t-36.5 19 q-29 9 -37 13t-8 10q0 12 16 12q17 0 60 -16zM1974 764q0 44 -23 67t-65 23t-65 -23t-23 -67q0 -41 23.5 -64.5t64.5 -23.5t64.5 23.5t23.5 64.5zM426 774v35h78v43h-125v-174h47v55h68v41h-68zM684 852h-47v-90q0 -45 -35 -45q-31 0 -31 45v90h-47v-90q0 -86 78 -86 q82 0 82 86v90zM834 678v43h-78v131h-45v-174h123zM979 678v43h-78v131h-45v-174h123zM1165 678l66 174h-49l-37 -111l-6 -16q-4 12 -4 16l-37 111h-51l67 -174h51zM1376 678v43h-84v22h68v39h-68v27h80v43h-127v-174h131zM1399 852v-174h45v53h22q4 0 7.5 -1.5t6.5 -5 t5.5 -7t5 -9.5t3.5 -9.5t3.5 -10.5t3.5 -10h53q-1 3 -3.5 13.5t-5 16.5t-6.5 14.5t-9.5 15t-13.5 10.5q30 6 30 45q0 59 -76 59h-71zM1778 678v174h-47v-174h47zM2157 678v174h-48v-100l-73 100h-41v-174h45v98l74 -98h43zM1444 768v45h29q30 0 30 -22q0 -23 -28 -23h-31z M1927 764q0 -47 -41 -47t-41 47q0 49 41 49t41 -49zM2218 813q-10 0 -17.5 -7.5t-7.5 -17.5q0 -11 7.5 -18.5t17.5 -7.5q12 0 19.5 7.5t7.5 18.5t-7.5 18t-19.5 7zM2218 727q-10 0 -17.5 -7.5t-7.5 -17.5q0 -11 7.5 -18.5t17.5 -7.5q12 0 19.5 7.5t7.5 18.5t-7.5 18t-19.5 7 zM1081 475q0 43 -23.5 66.5t-64.5 23.5t-63.5 -23.5t-22.5 -66.5q0 -90 86 -90q42 0 65 23t23 67zM1569 510l14 35q-48 20 -78 20q-27 0 -42 -15t-15 -38q0 -41 49 -55q24 -6 30.5 -10t6.5 -11q0 -12 -14 -12q-26 0 -62 20l-18 -34q36 -25 82 -25q63 0 63 53 q0 22 -10.5 34.5t-36.5 21.5l-15 5q-27 11 -28 17q0 10 16 10q15 0 58 -16zM1839 403l-16 37q-32 -14 -56 -14q-19 0 -30 13t-11 36q0 47 43 47q23 0 50 -8l12 33q-27 18 -64 18q-41 0 -64.5 -23.5t-23.5 -66.5q0 -44 23 -67t63 -23q33 0 74 18zM2021 475q0 43 -23.5 66.5 t-64.5 23.5q-40 0 -64 -24t-24 -66q0 -43 23.5 -66.5t64.5 -23.5q42 0 65 23t23 67zM520 387h49l-8 174h-51l-41 -94q-2 -4 -2 -12l-6 12l-39 94h-53l-7 -174h50v100l41 -100h26l41 100v-100zM692 442l64 119h-49l-29 -55q-2 -3 -5 -10.5t-5 -10.5q-2 3 -5.5 10.5t-5.5 10.5 l-28 55h-49l65 -119v-55h47v55zM815 485v33h78v43h-125v-174h47v57h68v41h-68zM1264 387v174h-47v-98l-74 98h-41v-174h47v98l74 -98h41zM1434 518v43h-154v-43h55v-131h45v131h54zM2198 387h51l-8 174h-54l-39 -94q-1 -2 -2 -6.5t-2 -5.5q0 4 -4 12l-41 94h-51l-6 -174h47 v100l41 -100h27l41 100v-100zM1034 475q0 -49 -41 -49q-19 0 -30 13t-11 36q0 47 41 47t41 -47zM1974 475q0 -49 -41 -49q-19 0 -30 13t-11 36q0 47 41 47t41 -47zM1638 436q-10 0 -17 -7t-7 -17q0 -11 7 -19t17 -8q12 0 19.5 8t7.5 19t-7.5 17.5t-19.5 6.5z" />
<glyph unicode="&#xc3;" d="M2501 1075h-2358v-923h2358v923zM221 997h2202v-768h-2202v768zM1692 801l14 33q-41 20 -80 20q-26 0 -41.5 -14.5t-15.5 -36.5q0 -40 49 -55q25 -6 32 -10t7 -11q0 -12 -17 -12q-22 0 -61 20l-16 -35q35 -24 82 -24q29 0 46 14t17 39q0 22 -10.5 34t-36.5 19 q-29 9 -37 13t-8 10q0 12 16 12q17 0 60 -16zM1974 764q0 44 -23 67t-65 23t-65 -23t-23 -67q0 -41 23.5 -64.5t64.5 -23.5t64.5 23.5t23.5 64.5zM426 774v35h78v43h-125v-174h47v55h68v41h-68zM684 852h-47v-90q0 -45 -35 -45q-31 0 -31 45v90h-47v-90q0 -86 78 -86 q82 0 82 86v90zM834 678v43h-78v131h-45v-174h123zM979 678v43h-78v131h-45v-174h123zM1165 678l66 174h-49l-37 -111l-6 -16q-4 12 -4 16l-37 111h-51l67 -174h51zM1376 678v43h-84v22h68v39h-68v27h80v43h-127v-174h131zM1399 852v-174h45v53h22q4 0 7.5 -1.5t6.5 -5 t5.5 -7t5 -9.5t3.5 -9.5t3.5 -10.5t3.5 -10h53q-1 3 -3.5 13.5t-5 16.5t-6.5 14.5t-9.5 15t-13.5 10.5q30 6 30 45q0 59 -76 59h-71zM1778 678v174h-47v-174h47zM2157 678v174h-48v-100l-73 100h-41v-174h45v98l74 -98h43zM1444 768v45h29q30 0 30 -22q0 -23 -28 -23h-31z M1927 764q0 -47 -41 -47t-41 47q0 49 41 49t41 -49zM2218 813q-10 0 -17.5 -7.5t-7.5 -17.5q0 -11 7.5 -18.5t17.5 -7.5q12 0 19.5 7.5t7.5 18.5t-7.5 18t-19.5 7zM2218 727q-10 0 -17.5 -7.5t-7.5 -17.5q0 -11 7.5 -18.5t17.5 -7.5q12 0 19.5 7.5t7.5 18.5t-7.5 18t-19.5 7 zM1081 475q0 43 -23.5 66.5t-64.5 23.5t-63.5 -23.5t-22.5 -66.5q0 -90 86 -90q42 0 65 23t23 67zM1569 510l14 35q-48 20 -78 20q-27 0 -42 -15t-15 -38q0 -41 49 -55q24 -6 30.5 -10t6.5 -11q0 -12 -14 -12q-26 0 -62 20l-18 -34q36 -25 82 -25q63 0 63 53 q0 22 -10.5 34.5t-36.5 21.5l-15 5q-27 11 -28 17q0 10 16 10q15 0 58 -16zM1839 403l-16 37q-32 -14 -56 -14q-19 0 -30 13t-11 36q0 47 43 47q23 0 50 -8l12 33q-27 18 -64 18q-41 0 -64.5 -23.5t-23.5 -66.5q0 -44 23 -67t63 -23q33 0 74 18zM2021 475q0 43 -23.5 66.5 t-64.5 23.5q-40 0 -64 -24t-24 -66q0 -43 23.5 -66.5t64.5 -23.5q42 0 65 23t23 67zM520 387h49l-8 174h-51l-41 -94q-2 -4 -2 -12l-6 12l-39 94h-53l-7 -174h50v100l41 -100h26l41 100v-100zM692 442l64 119h-49l-29 -55q-2 -3 -5 -10.5t-5 -10.5q-2 3 -5.5 10.5t-5.5 10.5 l-28 55h-49l65 -119v-55h47v55zM815 485v33h78v43h-125v-174h47v57h68v41h-68zM1264 387v174h-47v-98l-74 98h-41v-174h47v98l74 -98h41zM1434 518v43h-154v-43h55v-131h45v131h54zM2198 387h51l-8 174h-54l-39 -94q-1 -2 -2 -6.5t-2 -5.5q0 4 -4 12l-41 94h-51l-6 -174h47 v100l41 -100h27l41 100v-100zM1034 475q0 -49 -41 -49q-19 0 -30 13t-11 36q0 47 41 47t41 -47zM1974 475q0 -49 -41 -49q-19 0 -30 13t-11 36q0 47 41 47t41 -47zM1638 436q-10 0 -17 -7t-7 -17q0 -11 7 -19t17 -8q12 0 19.5 8t7.5 19t-7.5 17.5t-19.5 6.5z" />
<glyph unicode="&#xc4;" d="M2501 1075h-2358v-923h2358v923zM221 997h2202v-768h-2202v768zM1692 801l14 33q-41 20 -80 20q-26 0 -41.5 -14.5t-15.5 -36.5q0 -40 49 -55q25 -6 32 -10t7 -11q0 -12 -17 -12q-22 0 -61 20l-16 -35q35 -24 82 -24q29 0 46 14t17 39q0 22 -10.5 34t-36.5 19 q-29 9 -37 13t-8 10q0 12 16 12q17 0 60 -16zM1974 764q0 44 -23 67t-65 23t-65 -23t-23 -67q0 -41 23.5 -64.5t64.5 -23.5t64.5 23.5t23.5 64.5zM426 774v35h78v43h-125v-174h47v55h68v41h-68zM684 852h-47v-90q0 -45 -35 -45q-31 0 -31 45v90h-47v-90q0 -86 78 -86 q82 0 82 86v90zM834 678v43h-78v131h-45v-174h123zM979 678v43h-78v131h-45v-174h123zM1165 678l66 174h-49l-37 -111l-6 -16q-4 12 -4 16l-37 111h-51l67 -174h51zM1376 678v43h-84v22h68v39h-68v27h80v43h-127v-174h131zM1399 852v-174h45v53h22q4 0 7.5 -1.5t6.5 -5 t5.5 -7t5 -9.5t3.5 -9.5t3.5 -10.5t3.5 -10h53q-1 3 -3.5 13.5t-5 16.5t-6.5 14.5t-9.5 15t-13.5 10.5q30 6 30 45q0 59 -76 59h-71zM1778 678v174h-47v-174h47zM2157 678v174h-48v-100l-73 100h-41v-174h45v98l74 -98h43zM1444 768v45h29q30 0 30 -22q0 -23 -28 -23h-31z M1927 764q0 -47 -41 -47t-41 47q0 49 41 49t41 -49zM2218 813q-10 0 -17.5 -7.5t-7.5 -17.5q0 -11 7.5 -18.5t17.5 -7.5q12 0 19.5 7.5t7.5 18.5t-7.5 18t-19.5 7zM2218 727q-10 0 -17.5 -7.5t-7.5 -17.5q0 -11 7.5 -18.5t17.5 -7.5q12 0 19.5 7.5t7.5 18.5t-7.5 18t-19.5 7 zM1081 475q0 43 -23.5 66.5t-64.5 23.5t-63.5 -23.5t-22.5 -66.5q0 -90 86 -90q42 0 65 23t23 67zM1569 510l14 35q-48 20 -78 20q-27 0 -42 -15t-15 -38q0 -41 49 -55q24 -6 30.5 -10t6.5 -11q0 -12 -14 -12q-26 0 -62 20l-18 -34q36 -25 82 -25q63 0 63 53 q0 22 -10.5 34.5t-36.5 21.5l-15 5q-27 11 -28 17q0 10 16 10q15 0 58 -16zM1839 403l-16 37q-32 -14 -56 -14q-19 0 -30 13t-11 36q0 47 43 47q23 0 50 -8l12 33q-27 18 -64 18q-41 0 -64.5 -23.5t-23.5 -66.5q0 -44 23 -67t63 -23q33 0 74 18zM2021 475q0 43 -23.5 66.5 t-64.5 23.5q-40 0 -64 -24t-24 -66q0 -43 23.5 -66.5t64.5 -23.5q42 0 65 23t23 67zM520 387h49l-8 174h-51l-41 -94q-2 -4 -2 -12l-6 12l-39 94h-53l-7 -174h50v100l41 -100h26l41 100v-100zM692 442l64 119h-49l-29 -55q-2 -3 -5 -10.5t-5 -10.5q-2 3 -5.5 10.5t-5.5 10.5 l-28 55h-49l65 -119v-55h47v55zM815 485v33h78v43h-125v-174h47v57h68v41h-68zM1264 387v174h-47v-98l-74 98h-41v-174h47v98l74 -98h41zM1434 518v43h-154v-43h55v-131h45v131h54zM2198 387h51l-8 174h-54l-39 -94q-1 -2 -2 -6.5t-2 -5.5q0 4 -4 12l-41 94h-51l-6 -174h47 v100l41 -100h27l41 100v-100zM1034 475q0 -49 -41 -49q-19 0 -30 13t-11 36q0 47 41 47t41 -47zM1974 475q0 -49 -41 -49q-19 0 -30 13t-11 36q0 47 41 47t41 -47zM1638 436q-10 0 -17 -7t-7 -17q0 -11 7 -19t17 -8q12 0 19.5 8t7.5 19t-7.5 17.5t-19.5 6.5z" />
<glyph unicode="&#xc5;" d="M2501 1075h-2358v-923h2358v923zM221 997h2202v-768h-2202v768zM1692 801l14 33q-41 20 -80 20q-26 0 -41.5 -14.5t-15.5 -36.5q0 -40 49 -55q25 -6 32 -10t7 -11q0 -12 -17 -12q-22 0 -61 20l-16 -35q35 -24 82 -24q29 0 46 14t17 39q0 22 -10.5 34t-36.5 19 q-29 9 -37 13t-8 10q0 12 16 12q17 0 60 -16zM1974 764q0 44 -23 67t-65 23t-65 -23t-23 -67q0 -41 23.5 -64.5t64.5 -23.5t64.5 23.5t23.5 64.5zM426 774v35h78v43h-125v-174h47v55h68v41h-68zM684 852h-47v-90q0 -45 -35 -45q-31 0 -31 45v90h-47v-90q0 -86 78 -86 q82 0 82 86v90zM834 678v43h-78v131h-45v-174h123zM979 678v43h-78v131h-45v-174h123zM1165 678l66 174h-49l-37 -111l-6 -16q-4 12 -4 16l-37 111h-51l67 -174h51zM1376 678v43h-84v22h68v39h-68v27h80v43h-127v-174h131zM1399 852v-174h45v53h22q4 0 7.5 -1.5t6.5 -5 t5.5 -7t5 -9.5t3.5 -9.5t3.5 -10.5t3.5 -10h53q-1 3 -3.5 13.5t-5 16.5t-6.5 14.5t-9.5 15t-13.5 10.5q30 6 30 45q0 59 -76 59h-71zM1778 678v174h-47v-174h47zM2157 678v174h-48v-100l-73 100h-41v-174h45v98l74 -98h43zM1444 768v45h29q30 0 30 -22q0 -23 -28 -23h-31z M1927 764q0 -47 -41 -47t-41 47q0 49 41 49t41 -49zM2218 813q-10 0 -17.5 -7.5t-7.5 -17.5q0 -11 7.5 -18.5t17.5 -7.5q12 0 19.5 7.5t7.5 18.5t-7.5 18t-19.5 7zM2218 727q-10 0 -17.5 -7.5t-7.5 -17.5q0 -11 7.5 -18.5t17.5 -7.5q12 0 19.5 7.5t7.5 18.5t-7.5 18t-19.5 7 zM1081 475q0 43 -23.5 66.5t-64.5 23.5t-63.5 -23.5t-22.5 -66.5q0 -90 86 -90q42 0 65 23t23 67zM1569 510l14 35q-48 20 -78 20q-27 0 -42 -15t-15 -38q0 -41 49 -55q24 -6 30.5 -10t6.5 -11q0 -12 -14 -12q-26 0 -62 20l-18 -34q36 -25 82 -25q63 0 63 53 q0 22 -10.5 34.5t-36.5 21.5l-15 5q-27 11 -28 17q0 10 16 10q15 0 58 -16zM1839 403l-16 37q-32 -14 -56 -14q-19 0 -30 13t-11 36q0 47 43 47q23 0 50 -8l12 33q-27 18 -64 18q-41 0 -64.5 -23.5t-23.5 -66.5q0 -44 23 -67t63 -23q33 0 74 18zM2021 475q0 43 -23.5 66.5 t-64.5 23.5q-40 0 -64 -24t-24 -66q0 -43 23.5 -66.5t64.5 -23.5q42 0 65 23t23 67zM520 387h49l-8 174h-51l-41 -94q-2 -4 -2 -12l-6 12l-39 94h-53l-7 -174h50v100l41 -100h26l41 100v-100zM692 442l64 119h-49l-29 -55q-2 -3 -5 -10.5t-5 -10.5q-2 3 -5.5 10.5t-5.5 10.5 l-28 55h-49l65 -119v-55h47v55zM815 485v33h78v43h-125v-174h47v57h68v41h-68zM1264 387v174h-47v-98l-74 98h-41v-174h47v98l74 -98h41zM1434 518v43h-154v-43h55v-131h45v131h54zM2198 387h51l-8 174h-54l-39 -94q-1 -2 -2 -6.5t-2 -5.5q0 4 -4 12l-41 94h-51l-6 -174h47 v100l41 -100h27l41 100v-100zM1034 475q0 -49 -41 -49q-19 0 -30 13t-11 36q0 47 41 47t41 -47zM1974 475q0 -49 -41 -49q-19 0 -30 13t-11 36q0 47 41 47t41 -47zM1638 436q-10 0 -17 -7t-7 -17q0 -11 7 -19t17 -8q12 0 19.5 8t7.5 19t-7.5 17.5t-19.5 6.5z" />
<glyph unicode="&#xc6;" d="M2501 1075h-2358v-923h2358v923zM221 997h2202v-768h-2202v768zM1692 801l14 33q-41 20 -80 20q-26 0 -41.5 -14.5t-15.5 -36.5q0 -40 49 -55q25 -6 32 -10t7 -11q0 -12 -17 -12q-22 0 -61 20l-16 -35q35 -24 82 -24q29 0 46 14t17 39q0 22 -10.5 34t-36.5 19 q-29 9 -37 13t-8 10q0 12 16 12q17 0 60 -16zM1974 764q0 44 -23 67t-65 23t-65 -23t-23 -67q0 -41 23.5 -64.5t64.5 -23.5t64.5 23.5t23.5 64.5zM426 774v35h78v43h-125v-174h47v55h68v41h-68zM684 852h-47v-90q0 -45 -35 -45q-31 0 -31 45v90h-47v-90q0 -86 78 -86 q82 0 82 86v90zM834 678v43h-78v131h-45v-174h123zM979 678v43h-78v131h-45v-174h123zM1165 678l66 174h-49l-37 -111l-6 -16q-4 12 -4 16l-37 111h-51l67 -174h51zM1376 678v43h-84v22h68v39h-68v27h80v43h-127v-174h131zM1399 852v-174h45v53h22q4 0 7.5 -1.5t6.5 -5 t5.5 -7t5 -9.5t3.5 -9.5t3.5 -10.5t3.5 -10h53q-1 3 -3.5 13.5t-5 16.5t-6.5 14.5t-9.5 15t-13.5 10.5q30 6 30 45q0 59 -76 59h-71zM1778 678v174h-47v-174h47zM2157 678v174h-48v-100l-73 100h-41v-174h45v98l74 -98h43zM1444 768v45h29q30 0 30 -22q0 -23 -28 -23h-31z M1927 764q0 -47 -41 -47t-41 47q0 49 41 49t41 -49zM2218 813q-10 0 -17.5 -7.5t-7.5 -17.5q0 -11 7.5 -18.5t17.5 -7.5q12 0 19.5 7.5t7.5 18.5t-7.5 18t-19.5 7zM2218 727q-10 0 -17.5 -7.5t-7.5 -17.5q0 -11 7.5 -18.5t17.5 -7.5q12 0 19.5 7.5t7.5 18.5t-7.5 18t-19.5 7 zM1081 475q0 43 -23.5 66.5t-64.5 23.5t-63.5 -23.5t-22.5 -66.5q0 -90 86 -90q42 0 65 23t23 67zM1569 510l14 35q-48 20 -78 20q-27 0 -42 -15t-15 -38q0 -41 49 -55q24 -6 30.5 -10t6.5 -11q0 -12 -14 -12q-26 0 -62 20l-18 -34q36 -25 82 -25q63 0 63 53 q0 22 -10.5 34.5t-36.5 21.5l-15 5q-27 11 -28 17q0 10 16 10q15 0 58 -16zM1839 403l-16 37q-32 -14 -56 -14q-19 0 -30 13t-11 36q0 47 43 47q23 0 50 -8l12 33q-27 18 -64 18q-41 0 -64.5 -23.5t-23.5 -66.5q0 -44 23 -67t63 -23q33 0 74 18zM2021 475q0 43 -23.5 66.5 t-64.5 23.5q-40 0 -64 -24t-24 -66q0 -43 23.5 -66.5t64.5 -23.5q42 0 65 23t23 67zM520 387h49l-8 174h-51l-41 -94q-2 -4 -2 -12l-6 12l-39 94h-53l-7 -174h50v100l41 -100h26l41 100v-100zM692 442l64 119h-49l-29 -55q-2 -3 -5 -10.5t-5 -10.5q-2 3 -5.5 10.5t-5.5 10.5 l-28 55h-49l65 -119v-55h47v55zM815 485v33h78v43h-125v-174h47v57h68v41h-68zM1264 387v174h-47v-98l-74 98h-41v-174h47v98l74 -98h41zM1434 518v43h-154v-43h55v-131h45v131h54zM2198 387h51l-8 174h-54l-39 -94q-1 -2 -2 -6.5t-2 -5.5q0 4 -4 12l-41 94h-51l-6 -174h47 v100l41 -100h27l41 100v-100zM1034 475q0 -49 -41 -49q-19 0 -30 13t-11 36q0 47 41 47t41 -47zM1974 475q0 -49 -41 -49q-19 0 -30 13t-11 36q0 47 41 47t41 -47zM1638 436q-10 0 -17 -7t-7 -17q0 -11 7 -19t17 -8q12 0 19.5 8t7.5 19t-7.5 17.5t-19.5 6.5z" />
<glyph unicode="&#xc7;" d="M2501 1075h-2358v-923h2358v923zM221 997h2202v-768h-2202v768zM1692 801l14 33q-41 20 -80 20q-26 0 -41.5 -14.5t-15.5 -36.5q0 -40 49 -55q25 -6 32 -10t7 -11q0 -12 -17 -12q-22 0 -61 20l-16 -35q35 -24 82 -24q29 0 46 14t17 39q0 22 -10.5 34t-36.5 19 q-29 9 -37 13t-8 10q0 12 16 12q17 0 60 -16zM1974 764q0 44 -23 67t-65 23t-65 -23t-23 -67q0 -41 23.5 -64.5t64.5 -23.5t64.5 23.5t23.5 64.5zM426 774v35h78v43h-125v-174h47v55h68v41h-68zM684 852h-47v-90q0 -45 -35 -45q-31 0 -31 45v90h-47v-90q0 -86 78 -86 q82 0 82 86v90zM834 678v43h-78v131h-45v-174h123zM979 678v43h-78v131h-45v-174h123zM1165 678l66 174h-49l-37 -111l-6 -16q-4 12 -4 16l-37 111h-51l67 -174h51zM1376 678v43h-84v22h68v39h-68v27h80v43h-127v-174h131zM1399 852v-174h45v53h22q4 0 7.5 -1.5t6.5 -5 t5.5 -7t5 -9.5t3.5 -9.5t3.5 -10.5t3.5 -10h53q-1 3 -3.5 13.5t-5 16.5t-6.5 14.5t-9.5 15t-13.5 10.5q30 6 30 45q0 59 -76 59h-71zM1778 678v174h-47v-174h47zM2157 678v174h-48v-100l-73 100h-41v-174h45v98l74 -98h43zM1444 768v45h29q30 0 30 -22q0 -23 -28 -23h-31z M1927 764q0 -47 -41 -47t-41 47q0 49 41 49t41 -49zM2218 813q-10 0 -17.5 -7.5t-7.5 -17.5q0 -11 7.5 -18.5t17.5 -7.5q12 0 19.5 7.5t7.5 18.5t-7.5 18t-19.5 7zM2218 727q-10 0 -17.5 -7.5t-7.5 -17.5q0 -11 7.5 -18.5t17.5 -7.5q12 0 19.5 7.5t7.5 18.5t-7.5 18t-19.5 7 zM1081 475q0 43 -23.5 66.5t-64.5 23.5t-63.5 -23.5t-22.5 -66.5q0 -90 86 -90q42 0 65 23t23 67zM1569 510l14 35q-48 20 -78 20q-27 0 -42 -15t-15 -38q0 -41 49 -55q24 -6 30.5 -10t6.5 -11q0 -12 -14 -12q-26 0 -62 20l-18 -34q36 -25 82 -25q63 0 63 53 q0 22 -10.5 34.5t-36.5 21.5l-15 5q-27 11 -28 17q0 10 16 10q15 0 58 -16zM1839 403l-16 37q-32 -14 -56 -14q-19 0 -30 13t-11 36q0 47 43 47q23 0 50 -8l12 33q-27 18 -64 18q-41 0 -64.5 -23.5t-23.5 -66.5q0 -44 23 -67t63 -23q33 0 74 18zM2021 475q0 43 -23.5 66.5 t-64.5 23.5q-40 0 -64 -24t-24 -66q0 -43 23.5 -66.5t64.5 -23.5q42 0 65 23t23 67zM520 387h49l-8 174h-51l-41 -94q-2 -4 -2 -12l-6 12l-39 94h-53l-7 -174h50v100l41 -100h26l41 100v-100zM692 442l64 119h-49l-29 -55q-2 -3 -5 -10.5t-5 -10.5q-2 3 -5.5 10.5t-5.5 10.5 l-28 55h-49l65 -119v-55h47v55zM815 485v33h78v43h-125v-174h47v57h68v41h-68zM1264 387v174h-47v-98l-74 98h-41v-174h47v98l74 -98h41zM1434 518v43h-154v-43h55v-131h45v131h54zM2198 387h51l-8 174h-54l-39 -94q-1 -2 -2 -6.5t-2 -5.5q0 4 -4 12l-41 94h-51l-6 -174h47 v100l41 -100h27l41 100v-100zM1034 475q0 -49 -41 -49q-19 0 -30 13t-11 36q0 47 41 47t41 -47zM1974 475q0 -49 -41 -49q-19 0 -30 13t-11 36q0 47 41 47t41 -47zM1638 436q-10 0 -17 -7t-7 -17q0 -11 7 -19t17 -8q12 0 19.5 8t7.5 19t-7.5 17.5t-19.5 6.5z" />
<glyph unicode="&#xc8;" d="M2501 1075h-2358v-923h2358v923zM221 997h2202v-768h-2202v768zM1692 801l14 33q-41 20 -80 20q-26 0 -41.5 -14.5t-15.5 -36.5q0 -40 49 -55q25 -6 32 -10t7 -11q0 -12 -17 -12q-22 0 -61 20l-16 -35q35 -24 82 -24q29 0 46 14t17 39q0 22 -10.5 34t-36.5 19 q-29 9 -37 13t-8 10q0 12 16 12q17 0 60 -16zM1974 764q0 44 -23 67t-65 23t-65 -23t-23 -67q0 -41 23.5 -64.5t64.5 -23.5t64.5 23.5t23.5 64.5zM426 774v35h78v43h-125v-174h47v55h68v41h-68zM684 852h-47v-90q0 -45 -35 -45q-31 0 -31 45v90h-47v-90q0 -86 78 -86 q82 0 82 86v90zM834 678v43h-78v131h-45v-174h123zM979 678v43h-78v131h-45v-174h123zM1165 678l66 174h-49l-37 -111l-6 -16q-4 12 -4 16l-37 111h-51l67 -174h51zM1376 678v43h-84v22h68v39h-68v27h80v43h-127v-174h131zM1399 852v-174h45v53h22q4 0 7.5 -1.5t6.5 -5 t5.5 -7t5 -9.5t3.5 -9.5t3.5 -10.5t3.5 -10h53q-1 3 -3.5 13.5t-5 16.5t-6.5 14.5t-9.5 15t-13.5 10.5q30 6 30 45q0 59 -76 59h-71zM1778 678v174h-47v-174h47zM2157 678v174h-48v-100l-73 100h-41v-174h45v98l74 -98h43zM1444 768v45h29q30 0 30 -22q0 -23 -28 -23h-31z M1927 764q0 -47 -41 -47t-41 47q0 49 41 49t41 -49zM2218 813q-10 0 -17.5 -7.5t-7.5 -17.5q0 -11 7.5 -18.5t17.5 -7.5q12 0 19.5 7.5t7.5 18.5t-7.5 18t-19.5 7zM2218 727q-10 0 -17.5 -7.5t-7.5 -17.5q0 -11 7.5 -18.5t17.5 -7.5q12 0 19.5 7.5t7.5 18.5t-7.5 18t-19.5 7 zM1081 475q0 43 -23.5 66.5t-64.5 23.5t-63.5 -23.5t-22.5 -66.5q0 -90 86 -90q42 0 65 23t23 67zM1569 510l14 35q-48 20 -78 20q-27 0 -42 -15t-15 -38q0 -41 49 -55q24 -6 30.5 -10t6.5 -11q0 -12 -14 -12q-26 0 -62 20l-18 -34q36 -25 82 -25q63 0 63 53 q0 22 -10.5 34.5t-36.5 21.5l-15 5q-27 11 -28 17q0 10 16 10q15 0 58 -16zM1839 403l-16 37q-32 -14 -56 -14q-19 0 -30 13t-11 36q0 47 43 47q23 0 50 -8l12 33q-27 18 -64 18q-41 0 -64.5 -23.5t-23.5 -66.5q0 -44 23 -67t63 -23q33 0 74 18zM2021 475q0 43 -23.5 66.5 t-64.5 23.5q-40 0 -64 -24t-24 -66q0 -43 23.5 -66.5t64.5 -23.5q42 0 65 23t23 67zM520 387h49l-8 174h-51l-41 -94q-2 -4 -2 -12l-6 12l-39 94h-53l-7 -174h50v100l41 -100h26l41 100v-100zM692 442l64 119h-49l-29 -55q-2 -3 -5 -10.5t-5 -10.5q-2 3 -5.5 10.5t-5.5 10.5 l-28 55h-49l65 -119v-55h47v55zM815 485v33h78v43h-125v-174h47v57h68v41h-68zM1264 387v174h-47v-98l-74 98h-41v-174h47v98l74 -98h41zM1434 518v43h-154v-43h55v-131h45v131h54zM2198 387h51l-8 174h-54l-39 -94q-1 -2 -2 -6.5t-2 -5.5q0 4 -4 12l-41 94h-51l-6 -174h47 v100l41 -100h27l41 100v-100zM1034 475q0 -49 -41 -49q-19 0 -30 13t-11 36q0 47 41 47t41 -47zM1974 475q0 -49 -41 -49q-19 0 -30 13t-11 36q0 47 41 47t41 -47zM1638 436q-10 0 -17 -7t-7 -17q0 -11 7 -19t17 -8q12 0 19.5 8t7.5 19t-7.5 17.5t-19.5 6.5z" />
<glyph unicode="&#xc9;" d="M2501 1075h-2358v-923h2358v923zM221 997h2202v-768h-2202v768zM1692 801l14 33q-41 20 -80 20q-26 0 -41.5 -14.5t-15.5 -36.5q0 -40 49 -55q25 -6 32 -10t7 -11q0 -12 -17 -12q-22 0 -61 20l-16 -35q35 -24 82 -24q29 0 46 14t17 39q0 22 -10.5 34t-36.5 19 q-29 9 -37 13t-8 10q0 12 16 12q17 0 60 -16zM1974 764q0 44 -23 67t-65 23t-65 -23t-23 -67q0 -41 23.5 -64.5t64.5 -23.5t64.5 23.5t23.5 64.5zM426 774v35h78v43h-125v-174h47v55h68v41h-68zM684 852h-47v-90q0 -45 -35 -45q-31 0 -31 45v90h-47v-90q0 -86 78 -86 q82 0 82 86v90zM834 678v43h-78v131h-45v-174h123zM979 678v43h-78v131h-45v-174h123zM1165 678l66 174h-49l-37 -111l-6 -16q-4 12 -4 16l-37 111h-51l67 -174h51zM1376 678v43h-84v22h68v39h-68v27h80v43h-127v-174h131zM1399 852v-174h45v53h22q4 0 7.5 -1.5t6.5 -5 t5.5 -7t5 -9.5t3.5 -9.5t3.5 -10.5t3.5 -10h53q-1 3 -3.5 13.5t-5 16.5t-6.5 14.5t-9.5 15t-13.5 10.5q30 6 30 45q0 59 -76 59h-71zM1778 678v174h-47v-174h47zM2157 678v174h-48v-100l-73 100h-41v-174h45v98l74 -98h43zM1444 768v45h29q30 0 30 -22q0 -23 -28 -23h-31z M1927 764q0 -47 -41 -47t-41 47q0 49 41 49t41 -49zM2218 813q-10 0 -17.5 -7.5t-7.5 -17.5q0 -11 7.5 -18.5t17.5 -7.5q12 0 19.5 7.5t7.5 18.5t-7.5 18t-19.5 7zM2218 727q-10 0 -17.5 -7.5t-7.5 -17.5q0 -11 7.5 -18.5t17.5 -7.5q12 0 19.5 7.5t7.5 18.5t-7.5 18t-19.5 7 zM1081 475q0 43 -23.5 66.5t-64.5 23.5t-63.5 -23.5t-22.5 -66.5q0 -90 86 -90q42 0 65 23t23 67zM1569 510l14 35q-48 20 -78 20q-27 0 -42 -15t-15 -38q0 -41 49 -55q24 -6 30.5 -10t6.5 -11q0 -12 -14 -12q-26 0 -62 20l-18 -34q36 -25 82 -25q63 0 63 53 q0 22 -10.5 34.5t-36.5 21.5l-15 5q-27 11 -28 17q0 10 16 10q15 0 58 -16zM1839 403l-16 37q-32 -14 -56 -14q-19 0 -30 13t-11 36q0 47 43 47q23 0 50 -8l12 33q-27 18 -64 18q-41 0 -64.5 -23.5t-23.5 -66.5q0 -44 23 -67t63 -23q33 0 74 18zM2021 475q0 43 -23.5 66.5 t-64.5 23.5q-40 0 -64 -24t-24 -66q0 -43 23.5 -66.5t64.5 -23.5q42 0 65 23t23 67zM520 387h49l-8 174h-51l-41 -94q-2 -4 -2 -12l-6 12l-39 94h-53l-7 -174h50v100l41 -100h26l41 100v-100zM692 442l64 119h-49l-29 -55q-2 -3 -5 -10.5t-5 -10.5q-2 3 -5.5 10.5t-5.5 10.5 l-28 55h-49l65 -119v-55h47v55zM815 485v33h78v43h-125v-174h47v57h68v41h-68zM1264 387v174h-47v-98l-74 98h-41v-174h47v98l74 -98h41zM1434 518v43h-154v-43h55v-131h45v131h54zM2198 387h51l-8 174h-54l-39 -94q-1 -2 -2 -6.5t-2 -5.5q0 4 -4 12l-41 94h-51l-6 -174h47 v100l41 -100h27l41 100v-100zM1034 475q0 -49 -41 -49q-19 0 -30 13t-11 36q0 47 41 47t41 -47zM1974 475q0 -49 -41 -49q-19 0 -30 13t-11 36q0 47 41 47t41 -47zM1638 436q-10 0 -17 -7t-7 -17q0 -11 7 -19t17 -8q12 0 19.5 8t7.5 19t-7.5 17.5t-19.5 6.5z" />
<glyph unicode="&#xca;" d="M2501 1075h-2358v-923h2358v923zM221 997h2202v-768h-2202v768zM1692 801l14 33q-41 20 -80 20q-26 0 -41.5 -14.5t-15.5 -36.5q0 -40 49 -55q25 -6 32 -10t7 -11q0 -12 -17 -12q-22 0 -61 20l-16 -35q35 -24 82 -24q29 0 46 14t17 39q0 22 -10.5 34t-36.5 19 q-29 9 -37 13t-8 10q0 12 16 12q17 0 60 -16zM1974 764q0 44 -23 67t-65 23t-65 -23t-23 -67q0 -41 23.5 -64.5t64.5 -23.5t64.5 23.5t23.5 64.5zM426 774v35h78v43h-125v-174h47v55h68v41h-68zM684 852h-47v-90q0 -45 -35 -45q-31 0 -31 45v90h-47v-90q0 -86 78 -86 q82 0 82 86v90zM834 678v43h-78v131h-45v-174h123zM979 678v43h-78v131h-45v-174h123zM1165 678l66 174h-49l-37 -111l-6 -16q-4 12 -4 16l-37 111h-51l67 -174h51zM1376 678v43h-84v22h68v39h-68v27h80v43h-127v-174h131zM1399 852v-174h45v53h22q4 0 7.5 -1.5t6.5 -5 t5.5 -7t5 -9.5t3.5 -9.5t3.5 -10.5t3.5 -10h53q-1 3 -3.5 13.5t-5 16.5t-6.5 14.5t-9.5 15t-13.5 10.5q30 6 30 45q0 59 -76 59h-71zM1778 678v174h-47v-174h47zM2157 678v174h-48v-100l-73 100h-41v-174h45v98l74 -98h43zM1444 768v45h29q30 0 30 -22q0 -23 -28 -23h-31z M1927 764q0 -47 -41 -47t-41 47q0 49 41 49t41 -49zM2218 813q-10 0 -17.5 -7.5t-7.5 -17.5q0 -11 7.5 -18.5t17.5 -7.5q12 0 19.5 7.5t7.5 18.5t-7.5 18t-19.5 7zM2218 727q-10 0 -17.5 -7.5t-7.5 -17.5q0 -11 7.5 -18.5t17.5 -7.5q12 0 19.5 7.5t7.5 18.5t-7.5 18t-19.5 7 zM1081 475q0 43 -23.5 66.5t-64.5 23.5t-63.5 -23.5t-22.5 -66.5q0 -90 86 -90q42 0 65 23t23 67zM1569 510l14 35q-48 20 -78 20q-27 0 -42 -15t-15 -38q0 -41 49 -55q24 -6 30.5 -10t6.5 -11q0 -12 -14 -12q-26 0 -62 20l-18 -34q36 -25 82 -25q63 0 63 53 q0 22 -10.5 34.5t-36.5 21.5l-15 5q-27 11 -28 17q0 10 16 10q15 0 58 -16zM1839 403l-16 37q-32 -14 -56 -14q-19 0 -30 13t-11 36q0 47 43 47q23 0 50 -8l12 33q-27 18 -64 18q-41 0 -64.5 -23.5t-23.5 -66.5q0 -44 23 -67t63 -23q33 0 74 18zM2021 475q0 43 -23.5 66.5 t-64.5 23.5q-40 0 -64 -24t-24 -66q0 -43 23.5 -66.5t64.5 -23.5q42 0 65 23t23 67zM520 387h49l-8 174h-51l-41 -94q-2 -4 -2 -12l-6 12l-39 94h-53l-7 -174h50v100l41 -100h26l41 100v-100zM692 442l64 119h-49l-29 -55q-2 -3 -5 -10.5t-5 -10.5q-2 3 -5.5 10.5t-5.5 10.5 l-28 55h-49l65 -119v-55h47v55zM815 485v33h78v43h-125v-174h47v57h68v41h-68zM1264 387v174h-47v-98l-74 98h-41v-174h47v98l74 -98h41zM1434 518v43h-154v-43h55v-131h45v131h54zM2198 387h51l-8 174h-54l-39 -94q-1 -2 -2 -6.5t-2 -5.5q0 4 -4 12l-41 94h-51l-6 -174h47 v100l41 -100h27l41 100v-100zM1034 475q0 -49 -41 -49q-19 0 -30 13t-11 36q0 47 41 47t41 -47zM1974 475q0 -49 -41 -49q-19 0 -30 13t-11 36q0 47 41 47t41 -47zM1638 436q-10 0 -17 -7t-7 -17q0 -11 7 -19t17 -8q12 0 19.5 8t7.5 19t-7.5 17.5t-19.5 6.5z" />
<glyph unicode="&#xcb;" d="M2501 1075h-2358v-923h2358v923zM221 997h2202v-768h-2202v768zM1692 801l14 33q-41 20 -80 20q-26 0 -41.5 -14.5t-15.5 -36.5q0 -40 49 -55q25 -6 32 -10t7 -11q0 -12 -17 -12q-22 0 -61 20l-16 -35q35 -24 82 -24q29 0 46 14t17 39q0 22 -10.5 34t-36.5 19 q-29 9 -37 13t-8 10q0 12 16 12q17 0 60 -16zM1974 764q0 44 -23 67t-65 23t-65 -23t-23 -67q0 -41 23.5 -64.5t64.5 -23.5t64.5 23.5t23.5 64.5zM426 774v35h78v43h-125v-174h47v55h68v41h-68zM684 852h-47v-90q0 -45 -35 -45q-31 0 -31 45v90h-47v-90q0 -86 78 -86 q82 0 82 86v90zM834 678v43h-78v131h-45v-174h123zM979 678v43h-78v131h-45v-174h123zM1165 678l66 174h-49l-37 -111l-6 -16q-4 12 -4 16l-37 111h-51l67 -174h51zM1376 678v43h-84v22h68v39h-68v27h80v43h-127v-174h131zM1399 852v-174h45v53h22q4 0 7.5 -1.5t6.5 -5 t5.5 -7t5 -9.5t3.5 -9.5t3.5 -10.5t3.5 -10h53q-1 3 -3.5 13.5t-5 16.5t-6.5 14.5t-9.5 15t-13.5 10.5q30 6 30 45q0 59 -76 59h-71zM1778 678v174h-47v-174h47zM2157 678v174h-48v-100l-73 100h-41v-174h45v98l74 -98h43zM1444 768v45h29q30 0 30 -22q0 -23 -28 -23h-31z M1927 764q0 -47 -41 -47t-41 47q0 49 41 49t41 -49zM2218 813q-10 0 -17.5 -7.5t-7.5 -17.5q0 -11 7.5 -18.5t17.5 -7.5q12 0 19.5 7.5t7.5 18.5t-7.5 18t-19.5 7zM2218 727q-10 0 -17.5 -7.5t-7.5 -17.5q0 -11 7.5 -18.5t17.5 -7.5q12 0 19.5 7.5t7.5 18.5t-7.5 18t-19.5 7 zM1081 475q0 43 -23.5 66.5t-64.5 23.5t-63.5 -23.5t-22.5 -66.5q0 -90 86 -90q42 0 65 23t23 67zM1569 510l14 35q-48 20 -78 20q-27 0 -42 -15t-15 -38q0 -41 49 -55q24 -6 30.5 -10t6.5 -11q0 -12 -14 -12q-26 0 -62 20l-18 -34q36 -25 82 -25q63 0 63 53 q0 22 -10.5 34.5t-36.5 21.5l-15 5q-27 11 -28 17q0 10 16 10q15 0 58 -16zM1839 403l-16 37q-32 -14 -56 -14q-19 0 -30 13t-11 36q0 47 43 47q23 0 50 -8l12 33q-27 18 -64 18q-41 0 -64.5 -23.5t-23.5 -66.5q0 -44 23 -67t63 -23q33 0 74 18zM2021 475q0 43 -23.5 66.5 t-64.5 23.5q-40 0 -64 -24t-24 -66q0 -43 23.5 -66.5t64.5 -23.5q42 0 65 23t23 67zM520 387h49l-8 174h-51l-41 -94q-2 -4 -2 -12l-6 12l-39 94h-53l-7 -174h50v100l41 -100h26l41 100v-100zM692 442l64 119h-49l-29 -55q-2 -3 -5 -10.5t-5 -10.5q-2 3 -5.5 10.5t-5.5 10.5 l-28 55h-49l65 -119v-55h47v55zM815 485v33h78v43h-125v-174h47v57h68v41h-68zM1264 387v174h-47v-98l-74 98h-41v-174h47v98l74 -98h41zM1434 518v43h-154v-43h55v-131h45v131h54zM2198 387h51l-8 174h-54l-39 -94q-1 -2 -2 -6.5t-2 -5.5q0 4 -4 12l-41 94h-51l-6 -174h47 v100l41 -100h27l41 100v-100zM1034 475q0 -49 -41 -49q-19 0 -30 13t-11 36q0 47 41 47t41 -47zM1974 475q0 -49 -41 -49q-19 0 -30 13t-11 36q0 47 41 47t41 -47zM1638 436q-10 0 -17 -7t-7 -17q0 -11 7 -19t17 -8q12 0 19.5 8t7.5 19t-7.5 17.5t-19.5 6.5z" />
<glyph unicode="&#xcc;" d="M2501 1075h-2358v-923h2358v923zM221 997h2202v-768h-2202v768zM1692 801l14 33q-41 20 -80 20q-26 0 -41.5 -14.5t-15.5 -36.5q0 -40 49 -55q25 -6 32 -10t7 -11q0 -12 -17 -12q-22 0 -61 20l-16 -35q35 -24 82 -24q29 0 46 14t17 39q0 22 -10.5 34t-36.5 19 q-29 9 -37 13t-8 10q0 12 16 12q17 0 60 -16zM1974 764q0 44 -23 67t-65 23t-65 -23t-23 -67q0 -41 23.5 -64.5t64.5 -23.5t64.5 23.5t23.5 64.5zM426 774v35h78v43h-125v-174h47v55h68v41h-68zM684 852h-47v-90q0 -45 -35 -45q-31 0 -31 45v90h-47v-90q0 -86 78 -86 q82 0 82 86v90zM834 678v43h-78v131h-45v-174h123zM979 678v43h-78v131h-45v-174h123zM1165 678l66 174h-49l-37 -111l-6 -16q-4 12 -4 16l-37 111h-51l67 -174h51zM1376 678v43h-84v22h68v39h-68v27h80v43h-127v-174h131zM1399 852v-174h45v53h22q4 0 7.5 -1.5t6.5 -5 t5.5 -7t5 -9.5t3.5 -9.5t3.5 -10.5t3.5 -10h53q-1 3 -3.5 13.5t-5 16.5t-6.5 14.5t-9.5 15t-13.5 10.5q30 6 30 45q0 59 -76 59h-71zM1778 678v174h-47v-174h47zM2157 678v174h-48v-100l-73 100h-41v-174h45v98l74 -98h43zM1444 768v45h29q30 0 30 -22q0 -23 -28 -23h-31z M1927 764q0 -47 -41 -47t-41 47q0 49 41 49t41 -49zM2218 813q-10 0 -17.5 -7.5t-7.5 -17.5q0 -11 7.5 -18.5t17.5 -7.5q12 0 19.5 7.5t7.5 18.5t-7.5 18t-19.5 7zM2218 727q-10 0 -17.5 -7.5t-7.5 -17.5q0 -11 7.5 -18.5t17.5 -7.5q12 0 19.5 7.5t7.5 18.5t-7.5 18t-19.5 7 zM1081 475q0 43 -23.5 66.5t-64.5 23.5t-63.5 -23.5t-22.5 -66.5q0 -90 86 -90q42 0 65 23t23 67zM1569 510l14 35q-48 20 -78 20q-27 0 -42 -15t-15 -38q0 -41 49 -55q24 -6 30.5 -10t6.5 -11q0 -12 -14 -12q-26 0 -62 20l-18 -34q36 -25 82 -25q63 0 63 53 q0 22 -10.5 34.5t-36.5 21.5l-15 5q-27 11 -28 17q0 10 16 10q15 0 58 -16zM1839 403l-16 37q-32 -14 -56 -14q-19 0 -30 13t-11 36q0 47 43 47q23 0 50 -8l12 33q-27 18 -64 18q-41 0 -64.5 -23.5t-23.5 -66.5q0 -44 23 -67t63 -23q33 0 74 18zM2021 475q0 43 -23.5 66.5 t-64.5 23.5q-40 0 -64 -24t-24 -66q0 -43 23.5 -66.5t64.5 -23.5q42 0 65 23t23 67zM520 387h49l-8 174h-51l-41 -94q-2 -4 -2 -12l-6 12l-39 94h-53l-7 -174h50v100l41 -100h26l41 100v-100zM692 442l64 119h-49l-29 -55q-2 -3 -5 -10.5t-5 -10.5q-2 3 -5.5 10.5t-5.5 10.5 l-28 55h-49l65 -119v-55h47v55zM815 485v33h78v43h-125v-174h47v57h68v41h-68zM1264 387v174h-47v-98l-74 98h-41v-174h47v98l74 -98h41zM1434 518v43h-154v-43h55v-131h45v131h54zM2198 387h51l-8 174h-54l-39 -94q-1 -2 -2 -6.5t-2 -5.5q0 4 -4 12l-41 94h-51l-6 -174h47 v100l41 -100h27l41 100v-100zM1034 475q0 -49 -41 -49q-19 0 -30 13t-11 36q0 47 41 47t41 -47zM1974 475q0 -49 -41 -49q-19 0 -30 13t-11 36q0 47 41 47t41 -47zM1638 436q-10 0 -17 -7t-7 -17q0 -11 7 -19t17 -8q12 0 19.5 8t7.5 19t-7.5 17.5t-19.5 6.5z" />
<glyph unicode="&#xcd;" d="M2501 1075h-2358v-923h2358v923zM221 997h2202v-768h-2202v768zM1692 801l14 33q-41 20 -80 20q-26 0 -41.5 -14.5t-15.5 -36.5q0 -40 49 -55q25 -6 32 -10t7 -11q0 -12 -17 -12q-22 0 -61 20l-16 -35q35 -24 82 -24q29 0 46 14t17 39q0 22 -10.5 34t-36.5 19 q-29 9 -37 13t-8 10q0 12 16 12q17 0 60 -16zM1974 764q0 44 -23 67t-65 23t-65 -23t-23 -67q0 -41 23.5 -64.5t64.5 -23.5t64.5 23.5t23.5 64.5zM426 774v35h78v43h-125v-174h47v55h68v41h-68zM684 852h-47v-90q0 -45 -35 -45q-31 0 -31 45v90h-47v-90q0 -86 78 -86 q82 0 82 86v90zM834 678v43h-78v131h-45v-174h123zM979 678v43h-78v131h-45v-174h123zM1165 678l66 174h-49l-37 -111l-6 -16q-4 12 -4 16l-37 111h-51l67 -174h51zM1376 678v43h-84v22h68v39h-68v27h80v43h-127v-174h131zM1399 852v-174h45v53h22q4 0 7.5 -1.5t6.5 -5 t5.5 -7t5 -9.5t3.5 -9.5t3.5 -10.5t3.5 -10h53q-1 3 -3.5 13.5t-5 16.5t-6.5 14.5t-9.5 15t-13.5 10.5q30 6 30 45q0 59 -76 59h-71zM1778 678v174h-47v-174h47zM2157 678v174h-48v-100l-73 100h-41v-174h45v98l74 -98h43zM1444 768v45h29q30 0 30 -22q0 -23 -28 -23h-31z M1927 764q0 -47 -41 -47t-41 47q0 49 41 49t41 -49zM2218 813q-10 0 -17.5 -7.5t-7.5 -17.5q0 -11 7.5 -18.5t17.5 -7.5q12 0 19.5 7.5t7.5 18.5t-7.5 18t-19.5 7zM2218 727q-10 0 -17.5 -7.5t-7.5 -17.5q0 -11 7.5 -18.5t17.5 -7.5q12 0 19.5 7.5t7.5 18.5t-7.5 18t-19.5 7 zM1081 475q0 43 -23.5 66.5t-64.5 23.5t-63.5 -23.5t-22.5 -66.5q0 -90 86 -90q42 0 65 23t23 67zM1569 510l14 35q-48 20 -78 20q-27 0 -42 -15t-15 -38q0 -41 49 -55q24 -6 30.5 -10t6.5 -11q0 -12 -14 -12q-26 0 -62 20l-18 -34q36 -25 82 -25q63 0 63 53 q0 22 -10.5 34.5t-36.5 21.5l-15 5q-27 11 -28 17q0 10 16 10q15 0 58 -16zM1839 403l-16 37q-32 -14 -56 -14q-19 0 -30 13t-11 36q0 47 43 47q23 0 50 -8l12 33q-27 18 -64 18q-41 0 -64.5 -23.5t-23.5 -66.5q0 -44 23 -67t63 -23q33 0 74 18zM2021 475q0 43 -23.5 66.5 t-64.5 23.5q-40 0 -64 -24t-24 -66q0 -43 23.5 -66.5t64.5 -23.5q42 0 65 23t23 67zM520 387h49l-8 174h-51l-41 -94q-2 -4 -2 -12l-6 12l-39 94h-53l-7 -174h50v100l41 -100h26l41 100v-100zM692 442l64 119h-49l-29 -55q-2 -3 -5 -10.5t-5 -10.5q-2 3 -5.5 10.5t-5.5 10.5 l-28 55h-49l65 -119v-55h47v55zM815 485v33h78v43h-125v-174h47v57h68v41h-68zM1264 387v174h-47v-98l-74 98h-41v-174h47v98l74 -98h41zM1434 518v43h-154v-43h55v-131h45v131h54zM2198 387h51l-8 174h-54l-39 -94q-1 -2 -2 -6.5t-2 -5.5q0 4 -4 12l-41 94h-51l-6 -174h47 v100l41 -100h27l41 100v-100zM1034 475q0 -49 -41 -49q-19 0 -30 13t-11 36q0 47 41 47t41 -47zM1974 475q0 -49 -41 -49q-19 0 -30 13t-11 36q0 47 41 47t41 -47zM1638 436q-10 0 -17 -7t-7 -17q0 -11 7 -19t17 -8q12 0 19.5 8t7.5 19t-7.5 17.5t-19.5 6.5z" />
<glyph unicode="&#xce;" d="M2501 1075h-2358v-923h2358v923zM221 997h2202v-768h-2202v768zM1692 801l14 33q-41 20 -80 20q-26 0 -41.5 -14.5t-15.5 -36.5q0 -40 49 -55q25 -6 32 -10t7 -11q0 -12 -17 -12q-22 0 -61 20l-16 -35q35 -24 82 -24q29 0 46 14t17 39q0 22 -10.5 34t-36.5 19 q-29 9 -37 13t-8 10q0 12 16 12q17 0 60 -16zM1974 764q0 44 -23 67t-65 23t-65 -23t-23 -67q0 -41 23.5 -64.5t64.5 -23.5t64.5 23.5t23.5 64.5zM426 774v35h78v43h-125v-174h47v55h68v41h-68zM684 852h-47v-90q0 -45 -35 -45q-31 0 -31 45v90h-47v-90q0 -86 78 -86 q82 0 82 86v90zM834 678v43h-78v131h-45v-174h123zM979 678v43h-78v131h-45v-174h123zM1165 678l66 174h-49l-37 -111l-6 -16q-4 12 -4 16l-37 111h-51l67 -174h51zM1376 678v43h-84v22h68v39h-68v27h80v43h-127v-174h131zM1399 852v-174h45v53h22q4 0 7.5 -1.5t6.5 -5 t5.5 -7t5 -9.5t3.5 -9.5t3.5 -10.5t3.5 -10h53q-1 3 -3.5 13.5t-5 16.5t-6.5 14.5t-9.5 15t-13.5 10.5q30 6 30 45q0 59 -76 59h-71zM1778 678v174h-47v-174h47zM2157 678v174h-48v-100l-73 100h-41v-174h45v98l74 -98h43zM1444 768v45h29q30 0 30 -22q0 -23 -28 -23h-31z M1927 764q0 -47 -41 -47t-41 47q0 49 41 49t41 -49zM2218 813q-10 0 -17.5 -7.5t-7.5 -17.5q0 -11 7.5 -18.5t17.5 -7.5q12 0 19.5 7.5t7.5 18.5t-7.5 18t-19.5 7zM2218 727q-10 0 -17.5 -7.5t-7.5 -17.5q0 -11 7.5 -18.5t17.5 -7.5q12 0 19.5 7.5t7.5 18.5t-7.5 18t-19.5 7 zM1081 475q0 43 -23.5 66.5t-64.5 23.5t-63.5 -23.5t-22.5 -66.5q0 -90 86 -90q42 0 65 23t23 67zM1569 510l14 35q-48 20 -78 20q-27 0 -42 -15t-15 -38q0 -41 49 -55q24 -6 30.5 -10t6.5 -11q0 -12 -14 -12q-26 0 -62 20l-18 -34q36 -25 82 -25q63 0 63 53 q0 22 -10.5 34.5t-36.5 21.5l-15 5q-27 11 -28 17q0 10 16 10q15 0 58 -16zM1839 403l-16 37q-32 -14 -56 -14q-19 0 -30 13t-11 36q0 47 43 47q23 0 50 -8l12 33q-27 18 -64 18q-41 0 -64.5 -23.5t-23.5 -66.5q0 -44 23 -67t63 -23q33 0 74 18zM2021 475q0 43 -23.5 66.5 t-64.5 23.5q-40 0 -64 -24t-24 -66q0 -43 23.5 -66.5t64.5 -23.5q42 0 65 23t23 67zM520 387h49l-8 174h-51l-41 -94q-2 -4 -2 -12l-6 12l-39 94h-53l-7 -174h50v100l41 -100h26l41 100v-100zM692 442l64 119h-49l-29 -55q-2 -3 -5 -10.5t-5 -10.5q-2 3 -5.5 10.5t-5.5 10.5 l-28 55h-49l65 -119v-55h47v55zM815 485v33h78v43h-125v-174h47v57h68v41h-68zM1264 387v174h-47v-98l-74 98h-41v-174h47v98l74 -98h41zM1434 518v43h-154v-43h55v-131h45v131h54zM2198 387h51l-8 174h-54l-39 -94q-1 -2 -2 -6.5t-2 -5.5q0 4 -4 12l-41 94h-51l-6 -174h47 v100l41 -100h27l41 100v-100zM1034 475q0 -49 -41 -49q-19 0 -30 13t-11 36q0 47 41 47t41 -47zM1974 475q0 -49 -41 -49q-19 0 -30 13t-11 36q0 47 41 47t41 -47zM1638 436q-10 0 -17 -7t-7 -17q0 -11 7 -19t17 -8q12 0 19.5 8t7.5 19t-7.5 17.5t-19.5 6.5z" />
<glyph unicode="&#xcf;" d="M2501 1075h-2358v-923h2358v923zM221 997h2202v-768h-2202v768zM1692 801l14 33q-41 20 -80 20q-26 0 -41.5 -14.5t-15.5 -36.5q0 -40 49 -55q25 -6 32 -10t7 -11q0 -12 -17 -12q-22 0 -61 20l-16 -35q35 -24 82 -24q29 0 46 14t17 39q0 22 -10.5 34t-36.5 19 q-29 9 -37 13t-8 10q0 12 16 12q17 0 60 -16zM1974 764q0 44 -23 67t-65 23t-65 -23t-23 -67q0 -41 23.5 -64.5t64.5 -23.5t64.5 23.5t23.5 64.5zM426 774v35h78v43h-125v-174h47v55h68v41h-68zM684 852h-47v-90q0 -45 -35 -45q-31 0 -31 45v90h-47v-90q0 -86 78 -86 q82 0 82 86v90zM834 678v43h-78v131h-45v-174h123zM979 678v43h-78v131h-45v-174h123zM1165 678l66 174h-49l-37 -111l-6 -16q-4 12 -4 16l-37 111h-51l67 -174h51zM1376 678v43h-84v22h68v39h-68v27h80v43h-127v-174h131zM1399 852v-174h45v53h22q4 0 7.5 -1.5t6.5 -5 t5.5 -7t5 -9.5t3.5 -9.5t3.5 -10.5t3.5 -10h53q-1 3 -3.5 13.5t-5 16.5t-6.5 14.5t-9.5 15t-13.5 10.5q30 6 30 45q0 59 -76 59h-71zM1778 678v174h-47v-174h47zM2157 678v174h-48v-100l-73 100h-41v-174h45v98l74 -98h43zM1444 768v45h29q30 0 30 -22q0 -23 -28 -23h-31z M1927 764q0 -47 -41 -47t-41 47q0 49 41 49t41 -49zM2218 813q-10 0 -17.5 -7.5t-7.5 -17.5q0 -11 7.5 -18.5t17.5 -7.5q12 0 19.5 7.5t7.5 18.5t-7.5 18t-19.5 7zM2218 727q-10 0 -17.5 -7.5t-7.5 -17.5q0 -11 7.5 -18.5t17.5 -7.5q12 0 19.5 7.5t7.5 18.5t-7.5 18t-19.5 7 zM1081 475q0 43 -23.5 66.5t-64.5 23.5t-63.5 -23.5t-22.5 -66.5q0 -90 86 -90q42 0 65 23t23 67zM1569 510l14 35q-48 20 -78 20q-27 0 -42 -15t-15 -38q0 -41 49 -55q24 -6 30.5 -10t6.5 -11q0 -12 -14 -12q-26 0 -62 20l-18 -34q36 -25 82 -25q63 0 63 53 q0 22 -10.5 34.5t-36.5 21.5l-15 5q-27 11 -28 17q0 10 16 10q15 0 58 -16zM1839 403l-16 37q-32 -14 -56 -14q-19 0 -30 13t-11 36q0 47 43 47q23 0 50 -8l12 33q-27 18 -64 18q-41 0 -64.5 -23.5t-23.5 -66.5q0 -44 23 -67t63 -23q33 0 74 18zM2021 475q0 43 -23.5 66.5 t-64.5 23.5q-40 0 -64 -24t-24 -66q0 -43 23.5 -66.5t64.5 -23.5q42 0 65 23t23 67zM520 387h49l-8 174h-51l-41 -94q-2 -4 -2 -12l-6 12l-39 94h-53l-7 -174h50v100l41 -100h26l41 100v-100zM692 442l64 119h-49l-29 -55q-2 -3 -5 -10.5t-5 -10.5q-2 3 -5.5 10.5t-5.5 10.5 l-28 55h-49l65 -119v-55h47v55zM815 485v33h78v43h-125v-174h47v57h68v41h-68zM1264 387v174h-47v-98l-74 98h-41v-174h47v98l74 -98h41zM1434 518v43h-154v-43h55v-131h45v131h54zM2198 387h51l-8 174h-54l-39 -94q-1 -2 -2 -6.5t-2 -5.5q0 4 -4 12l-41 94h-51l-6 -174h47 v100l41 -100h27l41 100v-100zM1034 475q0 -49 -41 -49q-19 0 -30 13t-11 36q0 47 41 47t41 -47zM1974 475q0 -49 -41 -49q-19 0 -30 13t-11 36q0 47 41 47t41 -47zM1638 436q-10 0 -17 -7t-7 -17q0 -11 7 -19t17 -8q12 0 19.5 8t7.5 19t-7.5 17.5t-19.5 6.5z" />
<glyph unicode="&#xd0;" d="M2501 1075h-2358v-923h2358v923zM221 997h2202v-768h-2202v768zM1692 801l14 33q-41 20 -80 20q-26 0 -41.5 -14.5t-15.5 -36.5q0 -40 49 -55q25 -6 32 -10t7 -11q0 -12 -17 -12q-22 0 -61 20l-16 -35q35 -24 82 -24q29 0 46 14t17 39q0 22 -10.5 34t-36.5 19 q-29 9 -37 13t-8 10q0 12 16 12q17 0 60 -16zM1974 764q0 44 -23 67t-65 23t-65 -23t-23 -67q0 -41 23.5 -64.5t64.5 -23.5t64.5 23.5t23.5 64.5zM426 774v35h78v43h-125v-174h47v55h68v41h-68zM684 852h-47v-90q0 -45 -35 -45q-31 0 -31 45v90h-47v-90q0 -86 78 -86 q82 0 82 86v90zM834 678v43h-78v131h-45v-174h123zM979 678v43h-78v131h-45v-174h123zM1165 678l66 174h-49l-37 -111l-6 -16q-4 12 -4 16l-37 111h-51l67 -174h51zM1376 678v43h-84v22h68v39h-68v27h80v43h-127v-174h131zM1399 852v-174h45v53h22q4 0 7.5 -1.5t6.5 -5 t5.5 -7t5 -9.5t3.5 -9.5t3.5 -10.5t3.5 -10h53q-1 3 -3.5 13.5t-5 16.5t-6.5 14.5t-9.5 15t-13.5 10.5q30 6 30 45q0 59 -76 59h-71zM1778 678v174h-47v-174h47zM2157 678v174h-48v-100l-73 100h-41v-174h45v98l74 -98h43zM1444 768v45h29q30 0 30 -22q0 -23 -28 -23h-31z M1927 764q0 -47 -41 -47t-41 47q0 49 41 49t41 -49zM2218 813q-10 0 -17.5 -7.5t-7.5 -17.5q0 -11 7.5 -18.5t17.5 -7.5q12 0 19.5 7.5t7.5 18.5t-7.5 18t-19.5 7zM2218 727q-10 0 -17.5 -7.5t-7.5 -17.5q0 -11 7.5 -18.5t17.5 -7.5q12 0 19.5 7.5t7.5 18.5t-7.5 18t-19.5 7 zM1081 475q0 43 -23.5 66.5t-64.5 23.5t-63.5 -23.5t-22.5 -66.5q0 -90 86 -90q42 0 65 23t23 67zM1569 510l14 35q-48 20 -78 20q-27 0 -42 -15t-15 -38q0 -41 49 -55q24 -6 30.5 -10t6.5 -11q0 -12 -14 -12q-26 0 -62 20l-18 -34q36 -25 82 -25q63 0 63 53 q0 22 -10.5 34.5t-36.5 21.5l-15 5q-27 11 -28 17q0 10 16 10q15 0 58 -16zM1839 403l-16 37q-32 -14 -56 -14q-19 0 -30 13t-11 36q0 47 43 47q23 0 50 -8l12 33q-27 18 -64 18q-41 0 -64.5 -23.5t-23.5 -66.5q0 -44 23 -67t63 -23q33 0 74 18zM2021 475q0 43 -23.5 66.5 t-64.5 23.5q-40 0 -64 -24t-24 -66q0 -43 23.5 -66.5t64.5 -23.5q42 0 65 23t23 67zM520 387h49l-8 174h-51l-41 -94q-2 -4 -2 -12l-6 12l-39 94h-53l-7 -174h50v100l41 -100h26l41 100v-100zM692 442l64 119h-49l-29 -55q-2 -3 -5 -10.5t-5 -10.5q-2 3 -5.5 10.5t-5.5 10.5 l-28 55h-49l65 -119v-55h47v55zM815 485v33h78v43h-125v-174h47v57h68v41h-68zM1264 387v174h-47v-98l-74 98h-41v-174h47v98l74 -98h41zM1434 518v43h-154v-43h55v-131h45v131h54zM2198 387h51l-8 174h-54l-39 -94q-1 -2 -2 -6.5t-2 -5.5q0 4 -4 12l-41 94h-51l-6 -174h47 v100l41 -100h27l41 100v-100zM1034 475q0 -49 -41 -49q-19 0 -30 13t-11 36q0 47 41 47t41 -47zM1974 475q0 -49 -41 -49q-19 0 -30 13t-11 36q0 47 41 47t41 -47zM1638 436q-10 0 -17 -7t-7 -17q0 -11 7 -19t17 -8q12 0 19.5 8t7.5 19t-7.5 17.5t-19.5 6.5z" />
<glyph unicode="&#xd1;" d="M2501 1075h-2358v-923h2358v923zM221 997h2202v-768h-2202v768zM1692 801l14 33q-41 20 -80 20q-26 0 -41.5 -14.5t-15.5 -36.5q0 -40 49 -55q25 -6 32 -10t7 -11q0 -12 -17 -12q-22 0 -61 20l-16 -35q35 -24 82 -24q29 0 46 14t17 39q0 22 -10.5 34t-36.5 19 q-29 9 -37 13t-8 10q0 12 16 12q17 0 60 -16zM1974 764q0 44 -23 67t-65 23t-65 -23t-23 -67q0 -41 23.5 -64.5t64.5 -23.5t64.5 23.5t23.5 64.5zM426 774v35h78v43h-125v-174h47v55h68v41h-68zM684 852h-47v-90q0 -45 -35 -45q-31 0 -31 45v90h-47v-90q0 -86 78 -86 q82 0 82 86v90zM834 678v43h-78v131h-45v-174h123zM979 678v43h-78v131h-45v-174h123zM1165 678l66 174h-49l-37 -111l-6 -16q-4 12 -4 16l-37 111h-51l67 -174h51zM1376 678v43h-84v22h68v39h-68v27h80v43h-127v-174h131zM1399 852v-174h45v53h22q4 0 7.5 -1.5t6.5 -5 t5.5 -7t5 -9.5t3.5 -9.5t3.5 -10.5t3.5 -10h53q-1 3 -3.5 13.5t-5 16.5t-6.5 14.5t-9.5 15t-13.5 10.5q30 6 30 45q0 59 -76 59h-71zM1778 678v174h-47v-174h47zM2157 678v174h-48v-100l-73 100h-41v-174h45v98l74 -98h43zM1444 768v45h29q30 0 30 -22q0 -23 -28 -23h-31z M1927 764q0 -47 -41 -47t-41 47q0 49 41 49t41 -49zM2218 813q-10 0 -17.5 -7.5t-7.5 -17.5q0 -11 7.5 -18.5t17.5 -7.5q12 0 19.5 7.5t7.5 18.5t-7.5 18t-19.5 7zM2218 727q-10 0 -17.5 -7.5t-7.5 -17.5q0 -11 7.5 -18.5t17.5 -7.5q12 0 19.5 7.5t7.5 18.5t-7.5 18t-19.5 7 zM1081 475q0 43 -23.5 66.5t-64.5 23.5t-63.5 -23.5t-22.5 -66.5q0 -90 86 -90q42 0 65 23t23 67zM1569 510l14 35q-48 20 -78 20q-27 0 -42 -15t-15 -38q0 -41 49 -55q24 -6 30.5 -10t6.5 -11q0 -12 -14 -12q-26 0 -62 20l-18 -34q36 -25 82 -25q63 0 63 53 q0 22 -10.5 34.5t-36.5 21.5l-15 5q-27 11 -28 17q0 10 16 10q15 0 58 -16zM1839 403l-16 37q-32 -14 -56 -14q-19 0 -30 13t-11 36q0 47 43 47q23 0 50 -8l12 33q-27 18 -64 18q-41 0 -64.5 -23.5t-23.5 -66.5q0 -44 23 -67t63 -23q33 0 74 18zM2021 475q0 43 -23.5 66.5 t-64.5 23.5q-40 0 -64 -24t-24 -66q0 -43 23.5 -66.5t64.5 -23.5q42 0 65 23t23 67zM520 387h49l-8 174h-51l-41 -94q-2 -4 -2 -12l-6 12l-39 94h-53l-7 -174h50v100l41 -100h26l41 100v-100zM692 442l64 119h-49l-29 -55q-2 -3 -5 -10.5t-5 -10.5q-2 3 -5.5 10.5t-5.5 10.5 l-28 55h-49l65 -119v-55h47v55zM815 485v33h78v43h-125v-174h47v57h68v41h-68zM1264 387v174h-47v-98l-74 98h-41v-174h47v98l74 -98h41zM1434 518v43h-154v-43h55v-131h45v131h54zM2198 387h51l-8 174h-54l-39 -94q-1 -2 -2 -6.5t-2 -5.5q0 4 -4 12l-41 94h-51l-6 -174h47 v100l41 -100h27l41 100v-100zM1034 475q0 -49 -41 -49q-19 0 -30 13t-11 36q0 47 41 47t41 -47zM1974 475q0 -49 -41 -49q-19 0 -30 13t-11 36q0 47 41 47t41 -47zM1638 436q-10 0 -17 -7t-7 -17q0 -11 7 -19t17 -8q12 0 19.5 8t7.5 19t-7.5 17.5t-19.5 6.5z" />
<glyph unicode="&#xd2;" d="M2501 1075h-2358v-923h2358v923zM221 997h2202v-768h-2202v768zM1692 801l14 33q-41 20 -80 20q-26 0 -41.5 -14.5t-15.5 -36.5q0 -40 49 -55q25 -6 32 -10t7 -11q0 -12 -17 -12q-22 0 -61 20l-16 -35q35 -24 82 -24q29 0 46 14t17 39q0 22 -10.5 34t-36.5 19 q-29 9 -37 13t-8 10q0 12 16 12q17 0 60 -16zM1974 764q0 44 -23 67t-65 23t-65 -23t-23 -67q0 -41 23.5 -64.5t64.5 -23.5t64.5 23.5t23.5 64.5zM426 774v35h78v43h-125v-174h47v55h68v41h-68zM684 852h-47v-90q0 -45 -35 -45q-31 0 -31 45v90h-47v-90q0 -86 78 -86 q82 0 82 86v90zM834 678v43h-78v131h-45v-174h123zM979 678v43h-78v131h-45v-174h123zM1165 678l66 174h-49l-37 -111l-6 -16q-4 12 -4 16l-37 111h-51l67 -174h51zM1376 678v43h-84v22h68v39h-68v27h80v43h-127v-174h131zM1399 852v-174h45v53h22q4 0 7.5 -1.5t6.5 -5 t5.5 -7t5 -9.5t3.5 -9.5t3.5 -10.5t3.5 -10h53q-1 3 -3.5 13.5t-5 16.5t-6.5 14.5t-9.5 15t-13.5 10.5q30 6 30 45q0 59 -76 59h-71zM1778 678v174h-47v-174h47zM2157 678v174h-48v-100l-73 100h-41v-174h45v98l74 -98h43zM1444 768v45h29q30 0 30 -22q0 -23 -28 -23h-31z M1927 764q0 -47 -41 -47t-41 47q0 49 41 49t41 -49zM2218 813q-10 0 -17.5 -7.5t-7.5 -17.5q0 -11 7.5 -18.5t17.5 -7.5q12 0 19.5 7.5t7.5 18.5t-7.5 18t-19.5 7zM2218 727q-10 0 -17.5 -7.5t-7.5 -17.5q0 -11 7.5 -18.5t17.5 -7.5q12 0 19.5 7.5t7.5 18.5t-7.5 18t-19.5 7 zM1081 475q0 43 -23.5 66.5t-64.5 23.5t-63.5 -23.5t-22.5 -66.5q0 -90 86 -90q42 0 65 23t23 67zM1569 510l14 35q-48 20 -78 20q-27 0 -42 -15t-15 -38q0 -41 49 -55q24 -6 30.5 -10t6.5 -11q0 -12 -14 -12q-26 0 -62 20l-18 -34q36 -25 82 -25q63 0 63 53 q0 22 -10.5 34.5t-36.5 21.5l-15 5q-27 11 -28 17q0 10 16 10q15 0 58 -16zM1839 403l-16 37q-32 -14 -56 -14q-19 0 -30 13t-11 36q0 47 43 47q23 0 50 -8l12 33q-27 18 -64 18q-41 0 -64.5 -23.5t-23.5 -66.5q0 -44 23 -67t63 -23q33 0 74 18zM2021 475q0 43 -23.5 66.5 t-64.5 23.5q-40 0 -64 -24t-24 -66q0 -43 23.5 -66.5t64.5 -23.5q42 0 65 23t23 67zM520 387h49l-8 174h-51l-41 -94q-2 -4 -2 -12l-6 12l-39 94h-53l-7 -174h50v100l41 -100h26l41 100v-100zM692 442l64 119h-49l-29 -55q-2 -3 -5 -10.5t-5 -10.5q-2 3 -5.5 10.5t-5.5 10.5 l-28 55h-49l65 -119v-55h47v55zM815 485v33h78v43h-125v-174h47v57h68v41h-68zM1264 387v174h-47v-98l-74 98h-41v-174h47v98l74 -98h41zM1434 518v43h-154v-43h55v-131h45v131h54zM2198 387h51l-8 174h-54l-39 -94q-1 -2 -2 -6.5t-2 -5.5q0 4 -4 12l-41 94h-51l-6 -174h47 v100l41 -100h27l41 100v-100zM1034 475q0 -49 -41 -49q-19 0 -30 13t-11 36q0 47 41 47t41 -47zM1974 475q0 -49 -41 -49q-19 0 -30 13t-11 36q0 47 41 47t41 -47zM1638 436q-10 0 -17 -7t-7 -17q0 -11 7 -19t17 -8q12 0 19.5 8t7.5 19t-7.5 17.5t-19.5 6.5z" />
<glyph unicode="&#xd3;" d="M2501 1075h-2358v-923h2358v923zM221 997h2202v-768h-2202v768zM1692 801l14 33q-41 20 -80 20q-26 0 -41.5 -14.5t-15.5 -36.5q0 -40 49 -55q25 -6 32 -10t7 -11q0 -12 -17 -12q-22 0 -61 20l-16 -35q35 -24 82 -24q29 0 46 14t17 39q0 22 -10.5 34t-36.5 19 q-29 9 -37 13t-8 10q0 12 16 12q17 0 60 -16zM1974 764q0 44 -23 67t-65 23t-65 -23t-23 -67q0 -41 23.5 -64.5t64.5 -23.5t64.5 23.5t23.5 64.5zM426 774v35h78v43h-125v-174h47v55h68v41h-68zM684 852h-47v-90q0 -45 -35 -45q-31 0 -31 45v90h-47v-90q0 -86 78 -86 q82 0 82 86v90zM834 678v43h-78v131h-45v-174h123zM979 678v43h-78v131h-45v-174h123zM1165 678l66 174h-49l-37 -111l-6 -16q-4 12 -4 16l-37 111h-51l67 -174h51zM1376 678v43h-84v22h68v39h-68v27h80v43h-127v-174h131zM1399 852v-174h45v53h22q4 0 7.5 -1.5t6.5 -5 t5.5 -7t5 -9.5t3.5 -9.5t3.5 -10.5t3.5 -10h53q-1 3 -3.5 13.5t-5 16.5t-6.5 14.5t-9.5 15t-13.5 10.5q30 6 30 45q0 59 -76 59h-71zM1778 678v174h-47v-174h47zM2157 678v174h-48v-100l-73 100h-41v-174h45v98l74 -98h43zM1444 768v45h29q30 0 30 -22q0 -23 -28 -23h-31z M1927 764q0 -47 -41 -47t-41 47q0 49 41 49t41 -49zM2218 813q-10 0 -17.5 -7.5t-7.5 -17.5q0 -11 7.5 -18.5t17.5 -7.5q12 0 19.5 7.5t7.5 18.5t-7.5 18t-19.5 7zM2218 727q-10 0 -17.5 -7.5t-7.5 -17.5q0 -11 7.5 -18.5t17.5 -7.5q12 0 19.5 7.5t7.5 18.5t-7.5 18t-19.5 7 zM1081 475q0 43 -23.5 66.5t-64.5 23.5t-63.5 -23.5t-22.5 -66.5q0 -90 86 -90q42 0 65 23t23 67zM1569 510l14 35q-48 20 -78 20q-27 0 -42 -15t-15 -38q0 -41 49 -55q24 -6 30.5 -10t6.5 -11q0 -12 -14 -12q-26 0 -62 20l-18 -34q36 -25 82 -25q63 0 63 53 q0 22 -10.5 34.5t-36.5 21.5l-15 5q-27 11 -28 17q0 10 16 10q15 0 58 -16zM1839 403l-16 37q-32 -14 -56 -14q-19 0 -30 13t-11 36q0 47 43 47q23 0 50 -8l12 33q-27 18 -64 18q-41 0 -64.5 -23.5t-23.5 -66.5q0 -44 23 -67t63 -23q33 0 74 18zM2021 475q0 43 -23.5 66.5 t-64.5 23.5q-40 0 -64 -24t-24 -66q0 -43 23.5 -66.5t64.5 -23.5q42 0 65 23t23 67zM520 387h49l-8 174h-51l-41 -94q-2 -4 -2 -12l-6 12l-39 94h-53l-7 -174h50v100l41 -100h26l41 100v-100zM692 442l64 119h-49l-29 -55q-2 -3 -5 -10.5t-5 -10.5q-2 3 -5.5 10.5t-5.5 10.5 l-28 55h-49l65 -119v-55h47v55zM815 485v33h78v43h-125v-174h47v57h68v41h-68zM1264 387v174h-47v-98l-74 98h-41v-174h47v98l74 -98h41zM1434 518v43h-154v-43h55v-131h45v131h54zM2198 387h51l-8 174h-54l-39 -94q-1 -2 -2 -6.5t-2 -5.5q0 4 -4 12l-41 94h-51l-6 -174h47 v100l41 -100h27l41 100v-100zM1034 475q0 -49 -41 -49q-19 0 -30 13t-11 36q0 47 41 47t41 -47zM1974 475q0 -49 -41 -49q-19 0 -30 13t-11 36q0 47 41 47t41 -47zM1638 436q-10 0 -17 -7t-7 -17q0 -11 7 -19t17 -8q12 0 19.5 8t7.5 19t-7.5 17.5t-19.5 6.5z" />
<glyph unicode="&#xd4;" d="M2501 1075h-2358v-923h2358v923zM221 997h2202v-768h-2202v768zM1692 801l14 33q-41 20 -80 20q-26 0 -41.5 -14.5t-15.5 -36.5q0 -40 49 -55q25 -6 32 -10t7 -11q0 -12 -17 -12q-22 0 -61 20l-16 -35q35 -24 82 -24q29 0 46 14t17 39q0 22 -10.5 34t-36.5 19 q-29 9 -37 13t-8 10q0 12 16 12q17 0 60 -16zM1974 764q0 44 -23 67t-65 23t-65 -23t-23 -67q0 -41 23.5 -64.5t64.5 -23.5t64.5 23.5t23.5 64.5zM426 774v35h78v43h-125v-174h47v55h68v41h-68zM684 852h-47v-90q0 -45 -35 -45q-31 0 -31 45v90h-47v-90q0 -86 78 -86 q82 0 82 86v90zM834 678v43h-78v131h-45v-174h123zM979 678v43h-78v131h-45v-174h123zM1165 678l66 174h-49l-37 -111l-6 -16q-4 12 -4 16l-37 111h-51l67 -174h51zM1376 678v43h-84v22h68v39h-68v27h80v43h-127v-174h131zM1399 852v-174h45v53h22q4 0 7.5 -1.5t6.5 -5 t5.5 -7t5 -9.5t3.5 -9.5t3.5 -10.5t3.5 -10h53q-1 3 -3.5 13.5t-5 16.5t-6.5 14.5t-9.5 15t-13.5 10.5q30 6 30 45q0 59 -76 59h-71zM1778 678v174h-47v-174h47zM2157 678v174h-48v-100l-73 100h-41v-174h45v98l74 -98h43zM1444 768v45h29q30 0 30 -22q0 -23 -28 -23h-31z M1927 764q0 -47 -41 -47t-41 47q0 49 41 49t41 -49zM2218 813q-10 0 -17.5 -7.5t-7.5 -17.5q0 -11 7.5 -18.5t17.5 -7.5q12 0 19.5 7.5t7.5 18.5t-7.5 18t-19.5 7zM2218 727q-10 0 -17.5 -7.5t-7.5 -17.5q0 -11 7.5 -18.5t17.5 -7.5q12 0 19.5 7.5t7.5 18.5t-7.5 18t-19.5 7 zM1081 475q0 43 -23.5 66.5t-64.5 23.5t-63.5 -23.5t-22.5 -66.5q0 -90 86 -90q42 0 65 23t23 67zM1569 510l14 35q-48 20 -78 20q-27 0 -42 -15t-15 -38q0 -41 49 -55q24 -6 30.5 -10t6.5 -11q0 -12 -14 -12q-26 0 -62 20l-18 -34q36 -25 82 -25q63 0 63 53 q0 22 -10.5 34.5t-36.5 21.5l-15 5q-27 11 -28 17q0 10 16 10q15 0 58 -16zM1839 403l-16 37q-32 -14 -56 -14q-19 0 -30 13t-11 36q0 47 43 47q23 0 50 -8l12 33q-27 18 -64 18q-41 0 -64.5 -23.5t-23.5 -66.5q0 -44 23 -67t63 -23q33 0 74 18zM2021 475q0 43 -23.5 66.5 t-64.5 23.5q-40 0 -64 -24t-24 -66q0 -43 23.5 -66.5t64.5 -23.5q42 0 65 23t23 67zM520 387h49l-8 174h-51l-41 -94q-2 -4 -2 -12l-6 12l-39 94h-53l-7 -174h50v100l41 -100h26l41 100v-100zM692 442l64 119h-49l-29 -55q-2 -3 -5 -10.5t-5 -10.5q-2 3 -5.5 10.5t-5.5 10.5 l-28 55h-49l65 -119v-55h47v55zM815 485v33h78v43h-125v-174h47v57h68v41h-68zM1264 387v174h-47v-98l-74 98h-41v-174h47v98l74 -98h41zM1434 518v43h-154v-43h55v-131h45v131h54zM2198 387h51l-8 174h-54l-39 -94q-1 -2 -2 -6.5t-2 -5.5q0 4 -4 12l-41 94h-51l-6 -174h47 v100l41 -100h27l41 100v-100zM1034 475q0 -49 -41 -49q-19 0 -30 13t-11 36q0 47 41 47t41 -47zM1974 475q0 -49 -41 -49q-19 0 -30 13t-11 36q0 47 41 47t41 -47zM1638 436q-10 0 -17 -7t-7 -17q0 -11 7 -19t17 -8q12 0 19.5 8t7.5 19t-7.5 17.5t-19.5 6.5z" />
<glyph unicode="&#xd5;" d="M2501 1075h-2358v-923h2358v923zM221 997h2202v-768h-2202v768zM1692 801l14 33q-41 20 -80 20q-26 0 -41.5 -14.5t-15.5 -36.5q0 -40 49 -55q25 -6 32 -10t7 -11q0 -12 -17 -12q-22 0 -61 20l-16 -35q35 -24 82 -24q29 0 46 14t17 39q0 22 -10.5 34t-36.5 19 q-29 9 -37 13t-8 10q0 12 16 12q17 0 60 -16zM1974 764q0 44 -23 67t-65 23t-65 -23t-23 -67q0 -41 23.5 -64.5t64.5 -23.5t64.5 23.5t23.5 64.5zM426 774v35h78v43h-125v-174h47v55h68v41h-68zM684 852h-47v-90q0 -45 -35 -45q-31 0 -31 45v90h-47v-90q0 -86 78 -86 q82 0 82 86v90zM834 678v43h-78v131h-45v-174h123zM979 678v43h-78v131h-45v-174h123zM1165 678l66 174h-49l-37 -111l-6 -16q-4 12 -4 16l-37 111h-51l67 -174h51zM1376 678v43h-84v22h68v39h-68v27h80v43h-127v-174h131zM1399 852v-174h45v53h22q4 0 7.5 -1.5t6.5 -5 t5.5 -7t5 -9.5t3.5 -9.5t3.5 -10.5t3.5 -10h53q-1 3 -3.5 13.5t-5 16.5t-6.5 14.5t-9.5 15t-13.5 10.5q30 6 30 45q0 59 -76 59h-71zM1778 678v174h-47v-174h47zM2157 678v174h-48v-100l-73 100h-41v-174h45v98l74 -98h43zM1444 768v45h29q30 0 30 -22q0 -23 -28 -23h-31z M1927 764q0 -47 -41 -47t-41 47q0 49 41 49t41 -49zM2218 813q-10 0 -17.5 -7.5t-7.5 -17.5q0 -11 7.5 -18.5t17.5 -7.5q12 0 19.5 7.5t7.5 18.5t-7.5 18t-19.5 7zM2218 727q-10 0 -17.5 -7.5t-7.5 -17.5q0 -11 7.5 -18.5t17.5 -7.5q12 0 19.5 7.5t7.5 18.5t-7.5 18t-19.5 7 zM1081 475q0 43 -23.5 66.5t-64.5 23.5t-63.5 -23.5t-22.5 -66.5q0 -90 86 -90q42 0 65 23t23 67zM1569 510l14 35q-48 20 -78 20q-27 0 -42 -15t-15 -38q0 -41 49 -55q24 -6 30.5 -10t6.5 -11q0 -12 -14 -12q-26 0 -62 20l-18 -34q36 -25 82 -25q63 0 63 53 q0 22 -10.5 34.5t-36.5 21.5l-15 5q-27 11 -28 17q0 10 16 10q15 0 58 -16zM1839 403l-16 37q-32 -14 -56 -14q-19 0 -30 13t-11 36q0 47 43 47q23 0 50 -8l12 33q-27 18 -64 18q-41 0 -64.5 -23.5t-23.5 -66.5q0 -44 23 -67t63 -23q33 0 74 18zM2021 475q0 43 -23.5 66.5 t-64.5 23.5q-40 0 -64 -24t-24 -66q0 -43 23.5 -66.5t64.5 -23.5q42 0 65 23t23 67zM520 387h49l-8 174h-51l-41 -94q-2 -4 -2 -12l-6 12l-39 94h-53l-7 -174h50v100l41 -100h26l41 100v-100zM692 442l64 119h-49l-29 -55q-2 -3 -5 -10.5t-5 -10.5q-2 3 -5.5 10.5t-5.5 10.5 l-28 55h-49l65 -119v-55h47v55zM815 485v33h78v43h-125v-174h47v57h68v41h-68zM1264 387v174h-47v-98l-74 98h-41v-174h47v98l74 -98h41zM1434 518v43h-154v-43h55v-131h45v131h54zM2198 387h51l-8 174h-54l-39 -94q-1 -2 -2 -6.5t-2 -5.5q0 4 -4 12l-41 94h-51l-6 -174h47 v100l41 -100h27l41 100v-100zM1034 475q0 -49 -41 -49q-19 0 -30 13t-11 36q0 47 41 47t41 -47zM1974 475q0 -49 -41 -49q-19 0 -30 13t-11 36q0 47 41 47t41 -47zM1638 436q-10 0 -17 -7t-7 -17q0 -11 7 -19t17 -8q12 0 19.5 8t7.5 19t-7.5 17.5t-19.5 6.5z" />
<glyph unicode="&#xd6;" d="M2501 1075h-2358v-923h2358v923zM221 997h2202v-768h-2202v768zM1692 801l14 33q-41 20 -80 20q-26 0 -41.5 -14.5t-15.5 -36.5q0 -40 49 -55q25 -6 32 -10t7 -11q0 -12 -17 -12q-22 0 -61 20l-16 -35q35 -24 82 -24q29 0 46 14t17 39q0 22 -10.5 34t-36.5 19 q-29 9 -37 13t-8 10q0 12 16 12q17 0 60 -16zM1974 764q0 44 -23 67t-65 23t-65 -23t-23 -67q0 -41 23.5 -64.5t64.5 -23.5t64.5 23.5t23.5 64.5zM426 774v35h78v43h-125v-174h47v55h68v41h-68zM684 852h-47v-90q0 -45 -35 -45q-31 0 -31 45v90h-47v-90q0 -86 78 -86 q82 0 82 86v90zM834 678v43h-78v131h-45v-174h123zM979 678v43h-78v131h-45v-174h123zM1165 678l66 174h-49l-37 -111l-6 -16q-4 12 -4 16l-37 111h-51l67 -174h51zM1376 678v43h-84v22h68v39h-68v27h80v43h-127v-174h131zM1399 852v-174h45v53h22q4 0 7.5 -1.5t6.5 -5 t5.5 -7t5 -9.5t3.5 -9.5t3.5 -10.5t3.5 -10h53q-1 3 -3.5 13.5t-5 16.5t-6.5 14.5t-9.5 15t-13.5 10.5q30 6 30 45q0 59 -76 59h-71zM1778 678v174h-47v-174h47zM2157 678v174h-48v-100l-73 100h-41v-174h45v98l74 -98h43zM1444 768v45h29q30 0 30 -22q0 -23 -28 -23h-31z M1927 764q0 -47 -41 -47t-41 47q0 49 41 49t41 -49zM2218 813q-10 0 -17.5 -7.5t-7.5 -17.5q0 -11 7.5 -18.5t17.5 -7.5q12 0 19.5 7.5t7.5 18.5t-7.5 18t-19.5 7zM2218 727q-10 0 -17.5 -7.5t-7.5 -17.5q0 -11 7.5 -18.5t17.5 -7.5q12 0 19.5 7.5t7.5 18.5t-7.5 18t-19.5 7 zM1081 475q0 43 -23.5 66.5t-64.5 23.5t-63.5 -23.5t-22.5 -66.5q0 -90 86 -90q42 0 65 23t23 67zM1569 510l14 35q-48 20 -78 20q-27 0 -42 -15t-15 -38q0 -41 49 -55q24 -6 30.5 -10t6.5 -11q0 -12 -14 -12q-26 0 -62 20l-18 -34q36 -25 82 -25q63 0 63 53 q0 22 -10.5 34.5t-36.5 21.5l-15 5q-27 11 -28 17q0 10 16 10q15 0 58 -16zM1839 403l-16 37q-32 -14 -56 -14q-19 0 -30 13t-11 36q0 47 43 47q23 0 50 -8l12 33q-27 18 -64 18q-41 0 -64.5 -23.5t-23.5 -66.5q0 -44 23 -67t63 -23q33 0 74 18zM2021 475q0 43 -23.5 66.5 t-64.5 23.5q-40 0 -64 -24t-24 -66q0 -43 23.5 -66.5t64.5 -23.5q42 0 65 23t23 67zM520 387h49l-8 174h-51l-41 -94q-2 -4 -2 -12l-6 12l-39 94h-53l-7 -174h50v100l41 -100h26l41 100v-100zM692 442l64 119h-49l-29 -55q-2 -3 -5 -10.5t-5 -10.5q-2 3 -5.5 10.5t-5.5 10.5 l-28 55h-49l65 -119v-55h47v55zM815 485v33h78v43h-125v-174h47v57h68v41h-68zM1264 387v174h-47v-98l-74 98h-41v-174h47v98l74 -98h41zM1434 518v43h-154v-43h55v-131h45v131h54zM2198 387h51l-8 174h-54l-39 -94q-1 -2 -2 -6.5t-2 -5.5q0 4 -4 12l-41 94h-51l-6 -174h47 v100l41 -100h27l41 100v-100zM1034 475q0 -49 -41 -49q-19 0 -30 13t-11 36q0 47 41 47t41 -47zM1974 475q0 -49 -41 -49q-19 0 -30 13t-11 36q0 47 41 47t41 -47zM1638 436q-10 0 -17 -7t-7 -17q0 -11 7 -19t17 -8q12 0 19.5 8t7.5 19t-7.5 17.5t-19.5 6.5z" />
<glyph unicode="&#xd8;" d="M2501 1075h-2358v-923h2358v923zM221 997h2202v-768h-2202v768zM1692 801l14 33q-41 20 -80 20q-26 0 -41.5 -14.5t-15.5 -36.5q0 -40 49 -55q25 -6 32 -10t7 -11q0 -12 -17 -12q-22 0 -61 20l-16 -35q35 -24 82 -24q29 0 46 14t17 39q0 22 -10.5 34t-36.5 19 q-29 9 -37 13t-8 10q0 12 16 12q17 0 60 -16zM1974 764q0 44 -23 67t-65 23t-65 -23t-23 -67q0 -41 23.5 -64.5t64.5 -23.5t64.5 23.5t23.5 64.5zM426 774v35h78v43h-125v-174h47v55h68v41h-68zM684 852h-47v-90q0 -45 -35 -45q-31 0 -31 45v90h-47v-90q0 -86 78 -86 q82 0 82 86v90zM834 678v43h-78v131h-45v-174h123zM979 678v43h-78v131h-45v-174h123zM1165 678l66 174h-49l-37 -111l-6 -16q-4 12 -4 16l-37 111h-51l67 -174h51zM1376 678v43h-84v22h68v39h-68v27h80v43h-127v-174h131zM1399 852v-174h45v53h22q4 0 7.5 -1.5t6.5 -5 t5.5 -7t5 -9.5t3.5 -9.5t3.5 -10.5t3.5 -10h53q-1 3 -3.5 13.5t-5 16.5t-6.5 14.5t-9.5 15t-13.5 10.5q30 6 30 45q0 59 -76 59h-71zM1778 678v174h-47v-174h47zM2157 678v174h-48v-100l-73 100h-41v-174h45v98l74 -98h43zM1444 768v45h29q30 0 30 -22q0 -23 -28 -23h-31z M1927 764q0 -47 -41 -47t-41 47q0 49 41 49t41 -49zM2218 813q-10 0 -17.5 -7.5t-7.5 -17.5q0 -11 7.5 -18.5t17.5 -7.5q12 0 19.5 7.5t7.5 18.5t-7.5 18t-19.5 7zM2218 727q-10 0 -17.5 -7.5t-7.5 -17.5q0 -11 7.5 -18.5t17.5 -7.5q12 0 19.5 7.5t7.5 18.5t-7.5 18t-19.5 7 zM1081 475q0 43 -23.5 66.5t-64.5 23.5t-63.5 -23.5t-22.5 -66.5q0 -90 86 -90q42 0 65 23t23 67zM1569 510l14 35q-48 20 -78 20q-27 0 -42 -15t-15 -38q0 -41 49 -55q24 -6 30.5 -10t6.5 -11q0 -12 -14 -12q-26 0 -62 20l-18 -34q36 -25 82 -25q63 0 63 53 q0 22 -10.5 34.5t-36.5 21.5l-15 5q-27 11 -28 17q0 10 16 10q15 0 58 -16zM1839 403l-16 37q-32 -14 -56 -14q-19 0 -30 13t-11 36q0 47 43 47q23 0 50 -8l12 33q-27 18 -64 18q-41 0 -64.5 -23.5t-23.5 -66.5q0 -44 23 -67t63 -23q33 0 74 18zM2021 475q0 43 -23.5 66.5 t-64.5 23.5q-40 0 -64 -24t-24 -66q0 -43 23.5 -66.5t64.5 -23.5q42 0 65 23t23 67zM520 387h49l-8 174h-51l-41 -94q-2 -4 -2 -12l-6 12l-39 94h-53l-7 -174h50v100l41 -100h26l41 100v-100zM692 442l64 119h-49l-29 -55q-2 -3 -5 -10.5t-5 -10.5q-2 3 -5.5 10.5t-5.5 10.5 l-28 55h-49l65 -119v-55h47v55zM815 485v33h78v43h-125v-174h47v57h68v41h-68zM1264 387v174h-47v-98l-74 98h-41v-174h47v98l74 -98h41zM1434 518v43h-154v-43h55v-131h45v131h54zM2198 387h51l-8 174h-54l-39 -94q-1 -2 -2 -6.5t-2 -5.5q0 4 -4 12l-41 94h-51l-6 -174h47 v100l41 -100h27l41 100v-100zM1034 475q0 -49 -41 -49q-19 0 -30 13t-11 36q0 47 41 47t41 -47zM1974 475q0 -49 -41 -49q-19 0 -30 13t-11 36q0 47 41 47t41 -47zM1638 436q-10 0 -17 -7t-7 -17q0 -11 7 -19t17 -8q12 0 19.5 8t7.5 19t-7.5 17.5t-19.5 6.5z" />
<glyph unicode="&#xd9;" d="M2501 1075h-2358v-923h2358v923zM221 997h2202v-768h-2202v768zM1692 801l14 33q-41 20 -80 20q-26 0 -41.5 -14.5t-15.5 -36.5q0 -40 49 -55q25 -6 32 -10t7 -11q0 -12 -17 -12q-22 0 -61 20l-16 -35q35 -24 82 -24q29 0 46 14t17 39q0 22 -10.5 34t-36.5 19 q-29 9 -37 13t-8 10q0 12 16 12q17 0 60 -16zM1974 764q0 44 -23 67t-65 23t-65 -23t-23 -67q0 -41 23.5 -64.5t64.5 -23.5t64.5 23.5t23.5 64.5zM426 774v35h78v43h-125v-174h47v55h68v41h-68zM684 852h-47v-90q0 -45 -35 -45q-31 0 -31 45v90h-47v-90q0 -86 78 -86 q82 0 82 86v90zM834 678v43h-78v131h-45v-174h123zM979 678v43h-78v131h-45v-174h123zM1165 678l66 174h-49l-37 -111l-6 -16q-4 12 -4 16l-37 111h-51l67 -174h51zM1376 678v43h-84v22h68v39h-68v27h80v43h-127v-174h131zM1399 852v-174h45v53h22q4 0 7.5 -1.5t6.5 -5 t5.5 -7t5 -9.5t3.5 -9.5t3.5 -10.5t3.5 -10h53q-1 3 -3.5 13.5t-5 16.5t-6.5 14.5t-9.5 15t-13.5 10.5q30 6 30 45q0 59 -76 59h-71zM1778 678v174h-47v-174h47zM2157 678v174h-48v-100l-73 100h-41v-174h45v98l74 -98h43zM1444 768v45h29q30 0 30 -22q0 -23 -28 -23h-31z M1927 764q0 -47 -41 -47t-41 47q0 49 41 49t41 -49zM2218 813q-10 0 -17.5 -7.5t-7.5 -17.5q0 -11 7.5 -18.5t17.5 -7.5q12 0 19.5 7.5t7.5 18.5t-7.5 18t-19.5 7zM2218 727q-10 0 -17.5 -7.5t-7.5 -17.5q0 -11 7.5 -18.5t17.5 -7.5q12 0 19.5 7.5t7.5 18.5t-7.5 18t-19.5 7 zM1081 475q0 43 -23.5 66.5t-64.5 23.5t-63.5 -23.5t-22.5 -66.5q0 -90 86 -90q42 0 65 23t23 67zM1569 510l14 35q-48 20 -78 20q-27 0 -42 -15t-15 -38q0 -41 49 -55q24 -6 30.5 -10t6.5 -11q0 -12 -14 -12q-26 0 -62 20l-18 -34q36 -25 82 -25q63 0 63 53 q0 22 -10.5 34.5t-36.5 21.5l-15 5q-27 11 -28 17q0 10 16 10q15 0 58 -16zM1839 403l-16 37q-32 -14 -56 -14q-19 0 -30 13t-11 36q0 47 43 47q23 0 50 -8l12 33q-27 18 -64 18q-41 0 -64.5 -23.5t-23.5 -66.5q0 -44 23 -67t63 -23q33 0 74 18zM2021 475q0 43 -23.5 66.5 t-64.5 23.5q-40 0 -64 -24t-24 -66q0 -43 23.5 -66.5t64.5 -23.5q42 0 65 23t23 67zM520 387h49l-8 174h-51l-41 -94q-2 -4 -2 -12l-6 12l-39 94h-53l-7 -174h50v100l41 -100h26l41 100v-100zM692 442l64 119h-49l-29 -55q-2 -3 -5 -10.5t-5 -10.5q-2 3 -5.5 10.5t-5.5 10.5 l-28 55h-49l65 -119v-55h47v55zM815 485v33h78v43h-125v-174h47v57h68v41h-68zM1264 387v174h-47v-98l-74 98h-41v-174h47v98l74 -98h41zM1434 518v43h-154v-43h55v-131h45v131h54zM2198 387h51l-8 174h-54l-39 -94q-1 -2 -2 -6.5t-2 -5.5q0 4 -4 12l-41 94h-51l-6 -174h47 v100l41 -100h27l41 100v-100zM1034 475q0 -49 -41 -49q-19 0 -30 13t-11 36q0 47 41 47t41 -47zM1974 475q0 -49 -41 -49q-19 0 -30 13t-11 36q0 47 41 47t41 -47zM1638 436q-10 0 -17 -7t-7 -17q0 -11 7 -19t17 -8q12 0 19.5 8t7.5 19t-7.5 17.5t-19.5 6.5z" />
<glyph unicode="&#xda;" d="M2501 1075h-2358v-923h2358v923zM221 997h2202v-768h-2202v768zM1692 801l14 33q-41 20 -80 20q-26 0 -41.5 -14.5t-15.5 -36.5q0 -40 49 -55q25 -6 32 -10t7 -11q0 -12 -17 -12q-22 0 -61 20l-16 -35q35 -24 82 -24q29 0 46 14t17 39q0 22 -10.5 34t-36.5 19 q-29 9 -37 13t-8 10q0 12 16 12q17 0 60 -16zM1974 764q0 44 -23 67t-65 23t-65 -23t-23 -67q0 -41 23.5 -64.5t64.5 -23.5t64.5 23.5t23.5 64.5zM426 774v35h78v43h-125v-174h47v55h68v41h-68zM684 852h-47v-90q0 -45 -35 -45q-31 0 -31 45v90h-47v-90q0 -86 78 -86 q82 0 82 86v90zM834 678v43h-78v131h-45v-174h123zM979 678v43h-78v131h-45v-174h123zM1165 678l66 174h-49l-37 -111l-6 -16q-4 12 -4 16l-37 111h-51l67 -174h51zM1376 678v43h-84v22h68v39h-68v27h80v43h-127v-174h131zM1399 852v-174h45v53h22q4 0 7.5 -1.5t6.5 -5 t5.5 -7t5 -9.5t3.5 -9.5t3.5 -10.5t3.5 -10h53q-1 3 -3.5 13.5t-5 16.5t-6.5 14.5t-9.5 15t-13.5 10.5q30 6 30 45q0 59 -76 59h-71zM1778 678v174h-47v-174h47zM2157 678v174h-48v-100l-73 100h-41v-174h45v98l74 -98h43zM1444 768v45h29q30 0 30 -22q0 -23 -28 -23h-31z M1927 764q0 -47 -41 -47t-41 47q0 49 41 49t41 -49zM2218 813q-10 0 -17.5 -7.5t-7.5 -17.5q0 -11 7.5 -18.5t17.5 -7.5q12 0 19.5 7.5t7.5 18.5t-7.5 18t-19.5 7zM2218 727q-10 0 -17.5 -7.5t-7.5 -17.5q0 -11 7.5 -18.5t17.5 -7.5q12 0 19.5 7.5t7.5 18.5t-7.5 18t-19.5 7 zM1081 475q0 43 -23.5 66.5t-64.5 23.5t-63.5 -23.5t-22.5 -66.5q0 -90 86 -90q42 0 65 23t23 67zM1569 510l14 35q-48 20 -78 20q-27 0 -42 -15t-15 -38q0 -41 49 -55q24 -6 30.5 -10t6.5 -11q0 -12 -14 -12q-26 0 -62 20l-18 -34q36 -25 82 -25q63 0 63 53 q0 22 -10.5 34.5t-36.5 21.5l-15 5q-27 11 -28 17q0 10 16 10q15 0 58 -16zM1839 403l-16 37q-32 -14 -56 -14q-19 0 -30 13t-11 36q0 47 43 47q23 0 50 -8l12 33q-27 18 -64 18q-41 0 -64.5 -23.5t-23.5 -66.5q0 -44 23 -67t63 -23q33 0 74 18zM2021 475q0 43 -23.5 66.5 t-64.5 23.5q-40 0 -64 -24t-24 -66q0 -43 23.5 -66.5t64.5 -23.5q42 0 65 23t23 67zM520 387h49l-8 174h-51l-41 -94q-2 -4 -2 -12l-6 12l-39 94h-53l-7 -174h50v100l41 -100h26l41 100v-100zM692 442l64 119h-49l-29 -55q-2 -3 -5 -10.5t-5 -10.5q-2 3 -5.5 10.5t-5.5 10.5 l-28 55h-49l65 -119v-55h47v55zM815 485v33h78v43h-125v-174h47v57h68v41h-68zM1264 387v174h-47v-98l-74 98h-41v-174h47v98l74 -98h41zM1434 518v43h-154v-43h55v-131h45v131h54zM2198 387h51l-8 174h-54l-39 -94q-1 -2 -2 -6.5t-2 -5.5q0 4 -4 12l-41 94h-51l-6 -174h47 v100l41 -100h27l41 100v-100zM1034 475q0 -49 -41 -49q-19 0 -30 13t-11 36q0 47 41 47t41 -47zM1974 475q0 -49 -41 -49q-19 0 -30 13t-11 36q0 47 41 47t41 -47zM1638 436q-10 0 -17 -7t-7 -17q0 -11 7 -19t17 -8q12 0 19.5 8t7.5 19t-7.5 17.5t-19.5 6.5z" />
<glyph unicode="&#xdb;" d="M2501 1075h-2358v-923h2358v923zM221 997h2202v-768h-2202v768zM1692 801l14 33q-41 20 -80 20q-26 0 -41.5 -14.5t-15.5 -36.5q0 -40 49 -55q25 -6 32 -10t7 -11q0 -12 -17 -12q-22 0 -61 20l-16 -35q35 -24 82 -24q29 0 46 14t17 39q0 22 -10.5 34t-36.5 19 q-29 9 -37 13t-8 10q0 12 16 12q17 0 60 -16zM1974 764q0 44 -23 67t-65 23t-65 -23t-23 -67q0 -41 23.5 -64.5t64.5 -23.5t64.5 23.5t23.5 64.5zM426 774v35h78v43h-125v-174h47v55h68v41h-68zM684 852h-47v-90q0 -45 -35 -45q-31 0 -31 45v90h-47v-90q0 -86 78 -86 q82 0 82 86v90zM834 678v43h-78v131h-45v-174h123zM979 678v43h-78v131h-45v-174h123zM1165 678l66 174h-49l-37 -111l-6 -16q-4 12 -4 16l-37 111h-51l67 -174h51zM1376 678v43h-84v22h68v39h-68v27h80v43h-127v-174h131zM1399 852v-174h45v53h22q4 0 7.5 -1.5t6.5 -5 t5.5 -7t5 -9.5t3.5 -9.5t3.5 -10.5t3.5 -10h53q-1 3 -3.5 13.5t-5 16.5t-6.5 14.5t-9.5 15t-13.5 10.5q30 6 30 45q0 59 -76 59h-71zM1778 678v174h-47v-174h47zM2157 678v174h-48v-100l-73 100h-41v-174h45v98l74 -98h43zM1444 768v45h29q30 0 30 -22q0 -23 -28 -23h-31z M1927 764q0 -47 -41 -47t-41 47q0 49 41 49t41 -49zM2218 813q-10 0 -17.5 -7.5t-7.5 -17.5q0 -11 7.5 -18.5t17.5 -7.5q12 0 19.5 7.5t7.5 18.5t-7.5 18t-19.5 7zM2218 727q-10 0 -17.5 -7.5t-7.5 -17.5q0 -11 7.5 -18.5t17.5 -7.5q12 0 19.5 7.5t7.5 18.5t-7.5 18t-19.5 7 zM1081 475q0 43 -23.5 66.5t-64.5 23.5t-63.5 -23.5t-22.5 -66.5q0 -90 86 -90q42 0 65 23t23 67zM1569 510l14 35q-48 20 -78 20q-27 0 -42 -15t-15 -38q0 -41 49 -55q24 -6 30.5 -10t6.5 -11q0 -12 -14 -12q-26 0 -62 20l-18 -34q36 -25 82 -25q63 0 63 53 q0 22 -10.5 34.5t-36.5 21.5l-15 5q-27 11 -28 17q0 10 16 10q15 0 58 -16zM1839 403l-16 37q-32 -14 -56 -14q-19 0 -30 13t-11 36q0 47 43 47q23 0 50 -8l12 33q-27 18 -64 18q-41 0 -64.5 -23.5t-23.5 -66.5q0 -44 23 -67t63 -23q33 0 74 18zM2021 475q0 43 -23.5 66.5 t-64.5 23.5q-40 0 -64 -24t-24 -66q0 -43 23.5 -66.5t64.5 -23.5q42 0 65 23t23 67zM520 387h49l-8 174h-51l-41 -94q-2 -4 -2 -12l-6 12l-39 94h-53l-7 -174h50v100l41 -100h26l41 100v-100zM692 442l64 119h-49l-29 -55q-2 -3 -5 -10.5t-5 -10.5q-2 3 -5.5 10.5t-5.5 10.5 l-28 55h-49l65 -119v-55h47v55zM815 485v33h78v43h-125v-174h47v57h68v41h-68zM1264 387v174h-47v-98l-74 98h-41v-174h47v98l74 -98h41zM1434 518v43h-154v-43h55v-131h45v131h54zM2198 387h51l-8 174h-54l-39 -94q-1 -2 -2 -6.5t-2 -5.5q0 4 -4 12l-41 94h-51l-6 -174h47 v100l41 -100h27l41 100v-100zM1034 475q0 -49 -41 -49q-19 0 -30 13t-11 36q0 47 41 47t41 -47zM1974 475q0 -49 -41 -49q-19 0 -30 13t-11 36q0 47 41 47t41 -47zM1638 436q-10 0 -17 -7t-7 -17q0 -11 7 -19t17 -8q12 0 19.5 8t7.5 19t-7.5 17.5t-19.5 6.5z" />
<glyph unicode="&#xdc;" d="M2501 1075h-2358v-923h2358v923zM221 997h2202v-768h-2202v768zM1692 801l14 33q-41 20 -80 20q-26 0 -41.5 -14.5t-15.5 -36.5q0 -40 49 -55q25 -6 32 -10t7 -11q0 -12 -17 -12q-22 0 -61 20l-16 -35q35 -24 82 -24q29 0 46 14t17 39q0 22 -10.5 34t-36.5 19 q-29 9 -37 13t-8 10q0 12 16 12q17 0 60 -16zM1974 764q0 44 -23 67t-65 23t-65 -23t-23 -67q0 -41 23.5 -64.5t64.5 -23.5t64.5 23.5t23.5 64.5zM426 774v35h78v43h-125v-174h47v55h68v41h-68zM684 852h-47v-90q0 -45 -35 -45q-31 0 -31 45v90h-47v-90q0 -86 78 -86 q82 0 82 86v90zM834 678v43h-78v131h-45v-174h123zM979 678v43h-78v131h-45v-174h123zM1165 678l66 174h-49l-37 -111l-6 -16q-4 12 -4 16l-37 111h-51l67 -174h51zM1376 678v43h-84v22h68v39h-68v27h80v43h-127v-174h131zM1399 852v-174h45v53h22q4 0 7.5 -1.5t6.5 -5 t5.5 -7t5 -9.5t3.5 -9.5t3.5 -10.5t3.5 -10h53q-1 3 -3.5 13.5t-5 16.5t-6.5 14.5t-9.5 15t-13.5 10.5q30 6 30 45q0 59 -76 59h-71zM1778 678v174h-47v-174h47zM2157 678v174h-48v-100l-73 100h-41v-174h45v98l74 -98h43zM1444 768v45h29q30 0 30 -22q0 -23 -28 -23h-31z M1927 764q0 -47 -41 -47t-41 47q0 49 41 49t41 -49zM2218 813q-10 0 -17.5 -7.5t-7.5 -17.5q0 -11 7.5 -18.5t17.5 -7.5q12 0 19.5 7.5t7.5 18.5t-7.5 18t-19.5 7zM2218 727q-10 0 -17.5 -7.5t-7.5 -17.5q0 -11 7.5 -18.5t17.5 -7.5q12 0 19.5 7.5t7.5 18.5t-7.5 18t-19.5 7 zM1081 475q0 43 -23.5 66.5t-64.5 23.5t-63.5 -23.5t-22.5 -66.5q0 -90 86 -90q42 0 65 23t23 67zM1569 510l14 35q-48 20 -78 20q-27 0 -42 -15t-15 -38q0 -41 49 -55q24 -6 30.5 -10t6.5 -11q0 -12 -14 -12q-26 0 -62 20l-18 -34q36 -25 82 -25q63 0 63 53 q0 22 -10.5 34.5t-36.5 21.5l-15 5q-27 11 -28 17q0 10 16 10q15 0 58 -16zM1839 403l-16 37q-32 -14 -56 -14q-19 0 -30 13t-11 36q0 47 43 47q23 0 50 -8l12 33q-27 18 -64 18q-41 0 -64.5 -23.5t-23.5 -66.5q0 -44 23 -67t63 -23q33 0 74 18zM2021 475q0 43 -23.5 66.5 t-64.5 23.5q-40 0 -64 -24t-24 -66q0 -43 23.5 -66.5t64.5 -23.5q42 0 65 23t23 67zM520 387h49l-8 174h-51l-41 -94q-2 -4 -2 -12l-6 12l-39 94h-53l-7 -174h50v100l41 -100h26l41 100v-100zM692 442l64 119h-49l-29 -55q-2 -3 -5 -10.5t-5 -10.5q-2 3 -5.5 10.5t-5.5 10.5 l-28 55h-49l65 -119v-55h47v55zM815 485v33h78v43h-125v-174h47v57h68v41h-68zM1264 387v174h-47v-98l-74 98h-41v-174h47v98l74 -98h41zM1434 518v43h-154v-43h55v-131h45v131h54zM2198 387h51l-8 174h-54l-39 -94q-1 -2 -2 -6.5t-2 -5.5q0 4 -4 12l-41 94h-51l-6 -174h47 v100l41 -100h27l41 100v-100zM1034 475q0 -49 -41 -49q-19 0 -30 13t-11 36q0 47 41 47t41 -47zM1974 475q0 -49 -41 -49q-19 0 -30 13t-11 36q0 47 41 47t41 -47zM1638 436q-10 0 -17 -7t-7 -17q0 -11 7 -19t17 -8q12 0 19.5 8t7.5 19t-7.5 17.5t-19.5 6.5z" />
<glyph unicode="&#xdd;" d="M2501 1075h-2358v-923h2358v923zM221 997h2202v-768h-2202v768zM1692 801l14 33q-41 20 -80 20q-26 0 -41.5 -14.5t-15.5 -36.5q0 -40 49 -55q25 -6 32 -10t7 -11q0 -12 -17 -12q-22 0 -61 20l-16 -35q35 -24 82 -24q29 0 46 14t17 39q0 22 -10.5 34t-36.5 19 q-29 9 -37 13t-8 10q0 12 16 12q17 0 60 -16zM1974 764q0 44 -23 67t-65 23t-65 -23t-23 -67q0 -41 23.5 -64.5t64.5 -23.5t64.5 23.5t23.5 64.5zM426 774v35h78v43h-125v-174h47v55h68v41h-68zM684 852h-47v-90q0 -45 -35 -45q-31 0 -31 45v90h-47v-90q0 -86 78 -86 q82 0 82 86v90zM834 678v43h-78v131h-45v-174h123zM979 678v43h-78v131h-45v-174h123zM1165 678l66 174h-49l-37 -111l-6 -16q-4 12 -4 16l-37 111h-51l67 -174h51zM1376 678v43h-84v22h68v39h-68v27h80v43h-127v-174h131zM1399 852v-174h45v53h22q4 0 7.5 -1.5t6.5 -5 t5.5 -7t5 -9.5t3.5 -9.5t3.5 -10.5t3.5 -10h53q-1 3 -3.5 13.5t-5 16.5t-6.5 14.5t-9.5 15t-13.5 10.5q30 6 30 45q0 59 -76 59h-71zM1778 678v174h-47v-174h47zM2157 678v174h-48v-100l-73 100h-41v-174h45v98l74 -98h43zM1444 768v45h29q30 0 30 -22q0 -23 -28 -23h-31z M1927 764q0 -47 -41 -47t-41 47q0 49 41 49t41 -49zM2218 813q-10 0 -17.5 -7.5t-7.5 -17.5q0 -11 7.5 -18.5t17.5 -7.5q12 0 19.5 7.5t7.5 18.5t-7.5 18t-19.5 7zM2218 727q-10 0 -17.5 -7.5t-7.5 -17.5q0 -11 7.5 -18.5t17.5 -7.5q12 0 19.5 7.5t7.5 18.5t-7.5 18t-19.5 7 zM1081 475q0 43 -23.5 66.5t-64.5 23.5t-63.5 -23.5t-22.5 -66.5q0 -90 86 -90q42 0 65 23t23 67zM1569 510l14 35q-48 20 -78 20q-27 0 -42 -15t-15 -38q0 -41 49 -55q24 -6 30.5 -10t6.5 -11q0 -12 -14 -12q-26 0 -62 20l-18 -34q36 -25 82 -25q63 0 63 53 q0 22 -10.5 34.5t-36.5 21.5l-15 5q-27 11 -28 17q0 10 16 10q15 0 58 -16zM1839 403l-16 37q-32 -14 -56 -14q-19 0 -30 13t-11 36q0 47 43 47q23 0 50 -8l12 33q-27 18 -64 18q-41 0 -64.5 -23.5t-23.5 -66.5q0 -44 23 -67t63 -23q33 0 74 18zM2021 475q0 43 -23.5 66.5 t-64.5 23.5q-40 0 -64 -24t-24 -66q0 -43 23.5 -66.5t64.5 -23.5q42 0 65 23t23 67zM520 387h49l-8 174h-51l-41 -94q-2 -4 -2 -12l-6 12l-39 94h-53l-7 -174h50v100l41 -100h26l41 100v-100zM692 442l64 119h-49l-29 -55q-2 -3 -5 -10.5t-5 -10.5q-2 3 -5.5 10.5t-5.5 10.5 l-28 55h-49l65 -119v-55h47v55zM815 485v33h78v43h-125v-174h47v57h68v41h-68zM1264 387v174h-47v-98l-74 98h-41v-174h47v98l74 -98h41zM1434 518v43h-154v-43h55v-131h45v131h54zM2198 387h51l-8 174h-54l-39 -94q-1 -2 -2 -6.5t-2 -5.5q0 4 -4 12l-41 94h-51l-6 -174h47 v100l41 -100h27l41 100v-100zM1034 475q0 -49 -41 -49q-19 0 -30 13t-11 36q0 47 41 47t41 -47zM1974 475q0 -49 -41 -49q-19 0 -30 13t-11 36q0 47 41 47t41 -47zM1638 436q-10 0 -17 -7t-7 -17q0 -11 7 -19t17 -8q12 0 19.5 8t7.5 19t-7.5 17.5t-19.5 6.5z" />
<glyph unicode="&#xde;" d="M2501 1075h-2358v-923h2358v923zM221 997h2202v-768h-2202v768zM1692 801l14 33q-41 20 -80 20q-26 0 -41.5 -14.5t-15.5 -36.5q0 -40 49 -55q25 -6 32 -10t7 -11q0 -12 -17 -12q-22 0 -61 20l-16 -35q35 -24 82 -24q29 0 46 14t17 39q0 22 -10.5 34t-36.5 19 q-29 9 -37 13t-8 10q0 12 16 12q17 0 60 -16zM1974 764q0 44 -23 67t-65 23t-65 -23t-23 -67q0 -41 23.5 -64.5t64.5 -23.5t64.5 23.5t23.5 64.5zM426 774v35h78v43h-125v-174h47v55h68v41h-68zM684 852h-47v-90q0 -45 -35 -45q-31 0 -31 45v90h-47v-90q0 -86 78 -86 q82 0 82 86v90zM834 678v43h-78v131h-45v-174h123zM979 678v43h-78v131h-45v-174h123zM1165 678l66 174h-49l-37 -111l-6 -16q-4 12 -4 16l-37 111h-51l67 -174h51zM1376 678v43h-84v22h68v39h-68v27h80v43h-127v-174h131zM1399 852v-174h45v53h22q4 0 7.5 -1.5t6.5 -5 t5.5 -7t5 -9.5t3.5 -9.5t3.5 -10.5t3.5 -10h53q-1 3 -3.5 13.5t-5 16.5t-6.5 14.5t-9.5 15t-13.5 10.5q30 6 30 45q0 59 -76 59h-71zM1778 678v174h-47v-174h47zM2157 678v174h-48v-100l-73 100h-41v-174h45v98l74 -98h43zM1444 768v45h29q30 0 30 -22q0 -23 -28 -23h-31z M1927 764q0 -47 -41 -47t-41 47q0 49 41 49t41 -49zM2218 813q-10 0 -17.5 -7.5t-7.5 -17.5q0 -11 7.5 -18.5t17.5 -7.5q12 0 19.5 7.5t7.5 18.5t-7.5 18t-19.5 7zM2218 727q-10 0 -17.5 -7.5t-7.5 -17.5q0 -11 7.5 -18.5t17.5 -7.5q12 0 19.5 7.5t7.5 18.5t-7.5 18t-19.5 7 zM1081 475q0 43 -23.5 66.5t-64.5 23.5t-63.5 -23.5t-22.5 -66.5q0 -90 86 -90q42 0 65 23t23 67zM1569 510l14 35q-48 20 -78 20q-27 0 -42 -15t-15 -38q0 -41 49 -55q24 -6 30.5 -10t6.5 -11q0 -12 -14 -12q-26 0 -62 20l-18 -34q36 -25 82 -25q63 0 63 53 q0 22 -10.5 34.5t-36.5 21.5l-15 5q-27 11 -28 17q0 10 16 10q15 0 58 -16zM1839 403l-16 37q-32 -14 -56 -14q-19 0 -30 13t-11 36q0 47 43 47q23 0 50 -8l12 33q-27 18 -64 18q-41 0 -64.5 -23.5t-23.5 -66.5q0 -44 23 -67t63 -23q33 0 74 18zM2021 475q0 43 -23.5 66.5 t-64.5 23.5q-40 0 -64 -24t-24 -66q0 -43 23.5 -66.5t64.5 -23.5q42 0 65 23t23 67zM520 387h49l-8 174h-51l-41 -94q-2 -4 -2 -12l-6 12l-39 94h-53l-7 -174h50v100l41 -100h26l41 100v-100zM692 442l64 119h-49l-29 -55q-2 -3 -5 -10.5t-5 -10.5q-2 3 -5.5 10.5t-5.5 10.5 l-28 55h-49l65 -119v-55h47v55zM815 485v33h78v43h-125v-174h47v57h68v41h-68zM1264 387v174h-47v-98l-74 98h-41v-174h47v98l74 -98h41zM1434 518v43h-154v-43h55v-131h45v131h54zM2198 387h51l-8 174h-54l-39 -94q-1 -2 -2 -6.5t-2 -5.5q0 4 -4 12l-41 94h-51l-6 -174h47 v100l41 -100h27l41 100v-100zM1034 475q0 -49 -41 -49q-19 0 -30 13t-11 36q0 47 41 47t41 -47zM1974 475q0 -49 -41 -49q-19 0 -30 13t-11 36q0 47 41 47t41 -47zM1638 436q-10 0 -17 -7t-7 -17q0 -11 7 -19t17 -8q12 0 19.5 8t7.5 19t-7.5 17.5t-19.5 6.5z" />
<glyph unicode="&#xdf;" d="M2501 1075h-2358v-923h2358v923zM221 997h2202v-768h-2202v768zM1692 801l14 33q-41 20 -80 20q-26 0 -41.5 -14.5t-15.5 -36.5q0 -40 49 -55q25 -6 32 -10t7 -11q0 -12 -17 -12q-22 0 -61 20l-16 -35q35 -24 82 -24q29 0 46 14t17 39q0 22 -10.5 34t-36.5 19 q-29 9 -37 13t-8 10q0 12 16 12q17 0 60 -16zM1974 764q0 44 -23 67t-65 23t-65 -23t-23 -67q0 -41 23.5 -64.5t64.5 -23.5t64.5 23.5t23.5 64.5zM426 774v35h78v43h-125v-174h47v55h68v41h-68zM684 852h-47v-90q0 -45 -35 -45q-31 0 -31 45v90h-47v-90q0 -86 78 -86 q82 0 82 86v90zM834 678v43h-78v131h-45v-174h123zM979 678v43h-78v131h-45v-174h123zM1165 678l66 174h-49l-37 -111l-6 -16q-4 12 -4 16l-37 111h-51l67 -174h51zM1376 678v43h-84v22h68v39h-68v27h80v43h-127v-174h131zM1399 852v-174h45v53h22q4 0 7.5 -1.5t6.5 -5 t5.5 -7t5 -9.5t3.5 -9.5t3.5 -10.5t3.5 -10h53q-1 3 -3.5 13.5t-5 16.5t-6.5 14.5t-9.5 15t-13.5 10.5q30 6 30 45q0 59 -76 59h-71zM1778 678v174h-47v-174h47zM2157 678v174h-48v-100l-73 100h-41v-174h45v98l74 -98h43zM1444 768v45h29q30 0 30 -22q0 -23 -28 -23h-31z M1927 764q0 -47 -41 -47t-41 47q0 49 41 49t41 -49zM2218 813q-10 0 -17.5 -7.5t-7.5 -17.5q0 -11 7.5 -18.5t17.5 -7.5q12 0 19.5 7.5t7.5 18.5t-7.5 18t-19.5 7zM2218 727q-10 0 -17.5 -7.5t-7.5 -17.5q0 -11 7.5 -18.5t17.5 -7.5q12 0 19.5 7.5t7.5 18.5t-7.5 18t-19.5 7 zM1081 475q0 43 -23.5 66.5t-64.5 23.5t-63.5 -23.5t-22.5 -66.5q0 -90 86 -90q42 0 65 23t23 67zM1569 510l14 35q-48 20 -78 20q-27 0 -42 -15t-15 -38q0 -41 49 -55q24 -6 30.5 -10t6.5 -11q0 -12 -14 -12q-26 0 -62 20l-18 -34q36 -25 82 -25q63 0 63 53 q0 22 -10.5 34.5t-36.5 21.5l-15 5q-27 11 -28 17q0 10 16 10q15 0 58 -16zM1839 403l-16 37q-32 -14 -56 -14q-19 0 -30 13t-11 36q0 47 43 47q23 0 50 -8l12 33q-27 18 -64 18q-41 0 -64.5 -23.5t-23.5 -66.5q0 -44 23 -67t63 -23q33 0 74 18zM2021 475q0 43 -23.5 66.5 t-64.5 23.5q-40 0 -64 -24t-24 -66q0 -43 23.5 -66.5t64.5 -23.5q42 0 65 23t23 67zM520 387h49l-8 174h-51l-41 -94q-2 -4 -2 -12l-6 12l-39 94h-53l-7 -174h50v100l41 -100h26l41 100v-100zM692 442l64 119h-49l-29 -55q-2 -3 -5 -10.5t-5 -10.5q-2 3 -5.5 10.5t-5.5 10.5 l-28 55h-49l65 -119v-55h47v55zM815 485v33h78v43h-125v-174h47v57h68v41h-68zM1264 387v174h-47v-98l-74 98h-41v-174h47v98l74 -98h41zM1434 518v43h-154v-43h55v-131h45v131h54zM2198 387h51l-8 174h-54l-39 -94q-1 -2 -2 -6.5t-2 -5.5q0 4 -4 12l-41 94h-51l-6 -174h47 v100l41 -100h27l41 100v-100zM1034 475q0 -49 -41 -49q-19 0 -30 13t-11 36q0 47 41 47t41 -47zM1974 475q0 -49 -41 -49q-19 0 -30 13t-11 36q0 47 41 47t41 -47zM1638 436q-10 0 -17 -7t-7 -17q0 -11 7 -19t17 -8q12 0 19.5 8t7.5 19t-7.5 17.5t-19.5 6.5z" />
<glyph unicode="&#xe0;" d="M2501 1075h-2358v-923h2358v923zM221 997h2202v-768h-2202v768zM1692 801l14 33q-41 20 -80 20q-26 0 -41.5 -14.5t-15.5 -36.5q0 -40 49 -55q25 -6 32 -10t7 -11q0 -12 -17 -12q-22 0 -61 20l-16 -35q35 -24 82 -24q29 0 46 14t17 39q0 22 -10.5 34t-36.5 19 q-29 9 -37 13t-8 10q0 12 16 12q17 0 60 -16zM1974 764q0 44 -23 67t-65 23t-65 -23t-23 -67q0 -41 23.5 -64.5t64.5 -23.5t64.5 23.5t23.5 64.5zM426 774v35h78v43h-125v-174h47v55h68v41h-68zM684 852h-47v-90q0 -45 -35 -45q-31 0 -31 45v90h-47v-90q0 -86 78 -86 q82 0 82 86v90zM834 678v43h-78v131h-45v-174h123zM979 678v43h-78v131h-45v-174h123zM1165 678l66 174h-49l-37 -111l-6 -16q-4 12 -4 16l-37 111h-51l67 -174h51zM1376 678v43h-84v22h68v39h-68v27h80v43h-127v-174h131zM1399 852v-174h45v53h22q4 0 7.5 -1.5t6.5 -5 t5.5 -7t5 -9.5t3.5 -9.5t3.5 -10.5t3.5 -10h53q-1 3 -3.5 13.5t-5 16.5t-6.5 14.5t-9.5 15t-13.5 10.5q30 6 30 45q0 59 -76 59h-71zM1778 678v174h-47v-174h47zM2157 678v174h-48v-100l-73 100h-41v-174h45v98l74 -98h43zM1444 768v45h29q30 0 30 -22q0 -23 -28 -23h-31z M1927 764q0 -47 -41 -47t-41 47q0 49 41 49t41 -49zM2218 813q-10 0 -17.5 -7.5t-7.5 -17.5q0 -11 7.5 -18.5t17.5 -7.5q12 0 19.5 7.5t7.5 18.5t-7.5 18t-19.5 7zM2218 727q-10 0 -17.5 -7.5t-7.5 -17.5q0 -11 7.5 -18.5t17.5 -7.5q12 0 19.5 7.5t7.5 18.5t-7.5 18t-19.5 7 zM1081 475q0 43 -23.5 66.5t-64.5 23.5t-63.5 -23.5t-22.5 -66.5q0 -90 86 -90q42 0 65 23t23 67zM1569 510l14 35q-48 20 -78 20q-27 0 -42 -15t-15 -38q0 -41 49 -55q24 -6 30.5 -10t6.5 -11q0 -12 -14 -12q-26 0 -62 20l-18 -34q36 -25 82 -25q63 0 63 53 q0 22 -10.5 34.5t-36.5 21.5l-15 5q-27 11 -28 17q0 10 16 10q15 0 58 -16zM1839 403l-16 37q-32 -14 -56 -14q-19 0 -30 13t-11 36q0 47 43 47q23 0 50 -8l12 33q-27 18 -64 18q-41 0 -64.5 -23.5t-23.5 -66.5q0 -44 23 -67t63 -23q33 0 74 18zM2021 475q0 43 -23.5 66.5 t-64.5 23.5q-40 0 -64 -24t-24 -66q0 -43 23.5 -66.5t64.5 -23.5q42 0 65 23t23 67zM520 387h49l-8 174h-51l-41 -94q-2 -4 -2 -12l-6 12l-39 94h-53l-7 -174h50v100l41 -100h26l41 100v-100zM692 442l64 119h-49l-29 -55q-2 -3 -5 -10.5t-5 -10.5q-2 3 -5.5 10.5t-5.5 10.5 l-28 55h-49l65 -119v-55h47v55zM815 485v33h78v43h-125v-174h47v57h68v41h-68zM1264 387v174h-47v-98l-74 98h-41v-174h47v98l74 -98h41zM1434 518v43h-154v-43h55v-131h45v131h54zM2198 387h51l-8 174h-54l-39 -94q-1 -2 -2 -6.5t-2 -5.5q0 4 -4 12l-41 94h-51l-6 -174h47 v100l41 -100h27l41 100v-100zM1034 475q0 -49 -41 -49q-19 0 -30 13t-11 36q0 47 41 47t41 -47zM1974 475q0 -49 -41 -49q-19 0 -30 13t-11 36q0 47 41 47t41 -47zM1638 436q-10 0 -17 -7t-7 -17q0 -11 7 -19t17 -8q12 0 19.5 8t7.5 19t-7.5 17.5t-19.5 6.5z" />
<glyph unicode="&#xe1;" d="M2501 1075h-2358v-923h2358v923zM221 997h2202v-768h-2202v768zM1692 801l14 33q-41 20 -80 20q-26 0 -41.5 -14.5t-15.5 -36.5q0 -40 49 -55q25 -6 32 -10t7 -11q0 -12 -17 -12q-22 0 -61 20l-16 -35q35 -24 82 -24q29 0 46 14t17 39q0 22 -10.5 34t-36.5 19 q-29 9 -37 13t-8 10q0 12 16 12q17 0 60 -16zM1974 764q0 44 -23 67t-65 23t-65 -23t-23 -67q0 -41 23.5 -64.5t64.5 -23.5t64.5 23.5t23.5 64.5zM426 774v35h78v43h-125v-174h47v55h68v41h-68zM684 852h-47v-90q0 -45 -35 -45q-31 0 -31 45v90h-47v-90q0 -86 78 -86 q82 0 82 86v90zM834 678v43h-78v131h-45v-174h123zM979 678v43h-78v131h-45v-174h123zM1165 678l66 174h-49l-37 -111l-6 -16q-4 12 -4 16l-37 111h-51l67 -174h51zM1376 678v43h-84v22h68v39h-68v27h80v43h-127v-174h131zM1399 852v-174h45v53h22q4 0 7.5 -1.5t6.5 -5 t5.5 -7t5 -9.5t3.5 -9.5t3.5 -10.5t3.5 -10h53q-1 3 -3.5 13.5t-5 16.5t-6.5 14.5t-9.5 15t-13.5 10.5q30 6 30 45q0 59 -76 59h-71zM1778 678v174h-47v-174h47zM2157 678v174h-48v-100l-73 100h-41v-174h45v98l74 -98h43zM1444 768v45h29q30 0 30 -22q0 -23 -28 -23h-31z M1927 764q0 -47 -41 -47t-41 47q0 49 41 49t41 -49zM2218 813q-10 0 -17.5 -7.5t-7.5 -17.5q0 -11 7.5 -18.5t17.5 -7.5q12 0 19.5 7.5t7.5 18.5t-7.5 18t-19.5 7zM2218 727q-10 0 -17.5 -7.5t-7.5 -17.5q0 -11 7.5 -18.5t17.5 -7.5q12 0 19.5 7.5t7.5 18.5t-7.5 18t-19.5 7 zM1081 475q0 43 -23.5 66.5t-64.5 23.5t-63.5 -23.5t-22.5 -66.5q0 -90 86 -90q42 0 65 23t23 67zM1569 510l14 35q-48 20 -78 20q-27 0 -42 -15t-15 -38q0 -41 49 -55q24 -6 30.5 -10t6.5 -11q0 -12 -14 -12q-26 0 -62 20l-18 -34q36 -25 82 -25q63 0 63 53 q0 22 -10.5 34.5t-36.5 21.5l-15 5q-27 11 -28 17q0 10 16 10q15 0 58 -16zM1839 403l-16 37q-32 -14 -56 -14q-19 0 -30 13t-11 36q0 47 43 47q23 0 50 -8l12 33q-27 18 -64 18q-41 0 -64.5 -23.5t-23.5 -66.5q0 -44 23 -67t63 -23q33 0 74 18zM2021 475q0 43 -23.5 66.5 t-64.5 23.5q-40 0 -64 -24t-24 -66q0 -43 23.5 -66.5t64.5 -23.5q42 0 65 23t23 67zM520 387h49l-8 174h-51l-41 -94q-2 -4 -2 -12l-6 12l-39 94h-53l-7 -174h50v100l41 -100h26l41 100v-100zM692 442l64 119h-49l-29 -55q-2 -3 -5 -10.5t-5 -10.5q-2 3 -5.5 10.5t-5.5 10.5 l-28 55h-49l65 -119v-55h47v55zM815 485v33h78v43h-125v-174h47v57h68v41h-68zM1264 387v174h-47v-98l-74 98h-41v-174h47v98l74 -98h41zM1434 518v43h-154v-43h55v-131h45v131h54zM2198 387h51l-8 174h-54l-39 -94q-1 -2 -2 -6.5t-2 -5.5q0 4 -4 12l-41 94h-51l-6 -174h47 v100l41 -100h27l41 100v-100zM1034 475q0 -49 -41 -49q-19 0 -30 13t-11 36q0 47 41 47t41 -47zM1974 475q0 -49 -41 -49q-19 0 -30 13t-11 36q0 47 41 47t41 -47zM1638 436q-10 0 -17 -7t-7 -17q0 -11 7 -19t17 -8q12 0 19.5 8t7.5 19t-7.5 17.5t-19.5 6.5z" />
<glyph unicode="&#xe2;" d="M2501 1075h-2358v-923h2358v923zM221 997h2202v-768h-2202v768zM1692 801l14 33q-41 20 -80 20q-26 0 -41.5 -14.5t-15.5 -36.5q0 -40 49 -55q25 -6 32 -10t7 -11q0 -12 -17 -12q-22 0 -61 20l-16 -35q35 -24 82 -24q29 0 46 14t17 39q0 22 -10.5 34t-36.5 19 q-29 9 -37 13t-8 10q0 12 16 12q17 0 60 -16zM1974 764q0 44 -23 67t-65 23t-65 -23t-23 -67q0 -41 23.5 -64.5t64.5 -23.5t64.5 23.5t23.5 64.5zM426 774v35h78v43h-125v-174h47v55h68v41h-68zM684 852h-47v-90q0 -45 -35 -45q-31 0 -31 45v90h-47v-90q0 -86 78 -86 q82 0 82 86v90zM834 678v43h-78v131h-45v-174h123zM979 678v43h-78v131h-45v-174h123zM1165 678l66 174h-49l-37 -111l-6 -16q-4 12 -4 16l-37 111h-51l67 -174h51zM1376 678v43h-84v22h68v39h-68v27h80v43h-127v-174h131zM1399 852v-174h45v53h22q4 0 7.5 -1.5t6.5 -5 t5.5 -7t5 -9.5t3.5 -9.5t3.5 -10.5t3.5 -10h53q-1 3 -3.5 13.5t-5 16.5t-6.5 14.5t-9.5 15t-13.5 10.5q30 6 30 45q0 59 -76 59h-71zM1778 678v174h-47v-174h47zM2157 678v174h-48v-100l-73 100h-41v-174h45v98l74 -98h43zM1444 768v45h29q30 0 30 -22q0 -23 -28 -23h-31z M1927 764q0 -47 -41 -47t-41 47q0 49 41 49t41 -49zM2218 813q-10 0 -17.5 -7.5t-7.5 -17.5q0 -11 7.5 -18.5t17.5 -7.5q12 0 19.5 7.5t7.5 18.5t-7.5 18t-19.5 7zM2218 727q-10 0 -17.5 -7.5t-7.5 -17.5q0 -11 7.5 -18.5t17.5 -7.5q12 0 19.5 7.5t7.5 18.5t-7.5 18t-19.5 7 zM1081 475q0 43 -23.5 66.5t-64.5 23.5t-63.5 -23.5t-22.5 -66.5q0 -90 86 -90q42 0 65 23t23 67zM1569 510l14 35q-48 20 -78 20q-27 0 -42 -15t-15 -38q0 -41 49 -55q24 -6 30.5 -10t6.5 -11q0 -12 -14 -12q-26 0 -62 20l-18 -34q36 -25 82 -25q63 0 63 53 q0 22 -10.5 34.5t-36.5 21.5l-15 5q-27 11 -28 17q0 10 16 10q15 0 58 -16zM1839 403l-16 37q-32 -14 -56 -14q-19 0 -30 13t-11 36q0 47 43 47q23 0 50 -8l12 33q-27 18 -64 18q-41 0 -64.5 -23.5t-23.5 -66.5q0 -44 23 -67t63 -23q33 0 74 18zM2021 475q0 43 -23.5 66.5 t-64.5 23.5q-40 0 -64 -24t-24 -66q0 -43 23.5 -66.5t64.5 -23.5q42 0 65 23t23 67zM520 387h49l-8 174h-51l-41 -94q-2 -4 -2 -12l-6 12l-39 94h-53l-7 -174h50v100l41 -100h26l41 100v-100zM692 442l64 119h-49l-29 -55q-2 -3 -5 -10.5t-5 -10.5q-2 3 -5.5 10.5t-5.5 10.5 l-28 55h-49l65 -119v-55h47v55zM815 485v33h78v43h-125v-174h47v57h68v41h-68zM1264 387v174h-47v-98l-74 98h-41v-174h47v98l74 -98h41zM1434 518v43h-154v-43h55v-131h45v131h54zM2198 387h51l-8 174h-54l-39 -94q-1 -2 -2 -6.5t-2 -5.5q0 4 -4 12l-41 94h-51l-6 -174h47 v100l41 -100h27l41 100v-100zM1034 475q0 -49 -41 -49q-19 0 -30 13t-11 36q0 47 41 47t41 -47zM1974 475q0 -49 -41 -49q-19 0 -30 13t-11 36q0 47 41 47t41 -47zM1638 436q-10 0 -17 -7t-7 -17q0 -11 7 -19t17 -8q12 0 19.5 8t7.5 19t-7.5 17.5t-19.5 6.5z" />
<glyph unicode="&#xe3;" d="M2501 1075h-2358v-923h2358v923zM221 997h2202v-768h-2202v768zM1692 801l14 33q-41 20 -80 20q-26 0 -41.5 -14.5t-15.5 -36.5q0 -40 49 -55q25 -6 32 -10t7 -11q0 -12 -17 -12q-22 0 -61 20l-16 -35q35 -24 82 -24q29 0 46 14t17 39q0 22 -10.5 34t-36.5 19 q-29 9 -37 13t-8 10q0 12 16 12q17 0 60 -16zM1974 764q0 44 -23 67t-65 23t-65 -23t-23 -67q0 -41 23.5 -64.5t64.5 -23.5t64.5 23.5t23.5 64.5zM426 774v35h78v43h-125v-174h47v55h68v41h-68zM684 852h-47v-90q0 -45 -35 -45q-31 0 -31 45v90h-47v-90q0 -86 78 -86 q82 0 82 86v90zM834 678v43h-78v131h-45v-174h123zM979 678v43h-78v131h-45v-174h123zM1165 678l66 174h-49l-37 -111l-6 -16q-4 12 -4 16l-37 111h-51l67 -174h51zM1376 678v43h-84v22h68v39h-68v27h80v43h-127v-174h131zM1399 852v-174h45v53h22q4 0 7.5 -1.5t6.5 -5 t5.5 -7t5 -9.5t3.5 -9.5t3.5 -10.5t3.5 -10h53q-1 3 -3.5 13.5t-5 16.5t-6.5 14.5t-9.5 15t-13.5 10.5q30 6 30 45q0 59 -76 59h-71zM1778 678v174h-47v-174h47zM2157 678v174h-48v-100l-73 100h-41v-174h45v98l74 -98h43zM1444 768v45h29q30 0 30 -22q0 -23 -28 -23h-31z M1927 764q0 -47 -41 -47t-41 47q0 49 41 49t41 -49zM2218 813q-10 0 -17.5 -7.5t-7.5 -17.5q0 -11 7.5 -18.5t17.5 -7.5q12 0 19.5 7.5t7.5 18.5t-7.5 18t-19.5 7zM2218 727q-10 0 -17.5 -7.5t-7.5 -17.5q0 -11 7.5 -18.5t17.5 -7.5q12 0 19.5 7.5t7.5 18.5t-7.5 18t-19.5 7 zM1081 475q0 43 -23.5 66.5t-64.5 23.5t-63.5 -23.5t-22.5 -66.5q0 -90 86 -90q42 0 65 23t23 67zM1569 510l14 35q-48 20 -78 20q-27 0 -42 -15t-15 -38q0 -41 49 -55q24 -6 30.5 -10t6.5 -11q0 -12 -14 -12q-26 0 -62 20l-18 -34q36 -25 82 -25q63 0 63 53 q0 22 -10.5 34.5t-36.5 21.5l-15 5q-27 11 -28 17q0 10 16 10q15 0 58 -16zM1839 403l-16 37q-32 -14 -56 -14q-19 0 -30 13t-11 36q0 47 43 47q23 0 50 -8l12 33q-27 18 -64 18q-41 0 -64.5 -23.5t-23.5 -66.5q0 -44 23 -67t63 -23q33 0 74 18zM2021 475q0 43 -23.5 66.5 t-64.5 23.5q-40 0 -64 -24t-24 -66q0 -43 23.5 -66.5t64.5 -23.5q42 0 65 23t23 67zM520 387h49l-8 174h-51l-41 -94q-2 -4 -2 -12l-6 12l-39 94h-53l-7 -174h50v100l41 -100h26l41 100v-100zM692 442l64 119h-49l-29 -55q-2 -3 -5 -10.5t-5 -10.5q-2 3 -5.5 10.5t-5.5 10.5 l-28 55h-49l65 -119v-55h47v55zM815 485v33h78v43h-125v-174h47v57h68v41h-68zM1264 387v174h-47v-98l-74 98h-41v-174h47v98l74 -98h41zM1434 518v43h-154v-43h55v-131h45v131h54zM2198 387h51l-8 174h-54l-39 -94q-1 -2 -2 -6.5t-2 -5.5q0 4 -4 12l-41 94h-51l-6 -174h47 v100l41 -100h27l41 100v-100zM1034 475q0 -49 -41 -49q-19 0 -30 13t-11 36q0 47 41 47t41 -47zM1974 475q0 -49 -41 -49q-19 0 -30 13t-11 36q0 47 41 47t41 -47zM1638 436q-10 0 -17 -7t-7 -17q0 -11 7 -19t17 -8q12 0 19.5 8t7.5 19t-7.5 17.5t-19.5 6.5z" />
<glyph unicode="&#xe4;" d="M2501 1075h-2358v-923h2358v923zM221 997h2202v-768h-2202v768zM1692 801l14 33q-41 20 -80 20q-26 0 -41.5 -14.5t-15.5 -36.5q0 -40 49 -55q25 -6 32 -10t7 -11q0 -12 -17 -12q-22 0 -61 20l-16 -35q35 -24 82 -24q29 0 46 14t17 39q0 22 -10.5 34t-36.5 19 q-29 9 -37 13t-8 10q0 12 16 12q17 0 60 -16zM1974 764q0 44 -23 67t-65 23t-65 -23t-23 -67q0 -41 23.5 -64.5t64.5 -23.5t64.5 23.5t23.5 64.5zM426 774v35h78v43h-125v-174h47v55h68v41h-68zM684 852h-47v-90q0 -45 -35 -45q-31 0 -31 45v90h-47v-90q0 -86 78 -86 q82 0 82 86v90zM834 678v43h-78v131h-45v-174h123zM979 678v43h-78v131h-45v-174h123zM1165 678l66 174h-49l-37 -111l-6 -16q-4 12 -4 16l-37 111h-51l67 -174h51zM1376 678v43h-84v22h68v39h-68v27h80v43h-127v-174h131zM1399 852v-174h45v53h22q4 0 7.5 -1.5t6.5 -5 t5.5 -7t5 -9.5t3.5 -9.5t3.5 -10.5t3.5 -10h53q-1 3 -3.5 13.5t-5 16.5t-6.5 14.5t-9.5 15t-13.5 10.5q30 6 30 45q0 59 -76 59h-71zM1778 678v174h-47v-174h47zM2157 678v174h-48v-100l-73 100h-41v-174h45v98l74 -98h43zM1444 768v45h29q30 0 30 -22q0 -23 -28 -23h-31z M1927 764q0 -47 -41 -47t-41 47q0 49 41 49t41 -49zM2218 813q-10 0 -17.5 -7.5t-7.5 -17.5q0 -11 7.5 -18.5t17.5 -7.5q12 0 19.5 7.5t7.5 18.5t-7.5 18t-19.5 7zM2218 727q-10 0 -17.5 -7.5t-7.5 -17.5q0 -11 7.5 -18.5t17.5 -7.5q12 0 19.5 7.5t7.5 18.5t-7.5 18t-19.5 7 zM1081 475q0 43 -23.5 66.5t-64.5 23.5t-63.5 -23.5t-22.5 -66.5q0 -90 86 -90q42 0 65 23t23 67zM1569 510l14 35q-48 20 -78 20q-27 0 -42 -15t-15 -38q0 -41 49 -55q24 -6 30.5 -10t6.5 -11q0 -12 -14 -12q-26 0 -62 20l-18 -34q36 -25 82 -25q63 0 63 53 q0 22 -10.5 34.5t-36.5 21.5l-15 5q-27 11 -28 17q0 10 16 10q15 0 58 -16zM1839 403l-16 37q-32 -14 -56 -14q-19 0 -30 13t-11 36q0 47 43 47q23 0 50 -8l12 33q-27 18 -64 18q-41 0 -64.5 -23.5t-23.5 -66.5q0 -44 23 -67t63 -23q33 0 74 18zM2021 475q0 43 -23.5 66.5 t-64.5 23.5q-40 0 -64 -24t-24 -66q0 -43 23.5 -66.5t64.5 -23.5q42 0 65 23t23 67zM520 387h49l-8 174h-51l-41 -94q-2 -4 -2 -12l-6 12l-39 94h-53l-7 -174h50v100l41 -100h26l41 100v-100zM692 442l64 119h-49l-29 -55q-2 -3 -5 -10.5t-5 -10.5q-2 3 -5.5 10.5t-5.5 10.5 l-28 55h-49l65 -119v-55h47v55zM815 485v33h78v43h-125v-174h47v57h68v41h-68zM1264 387v174h-47v-98l-74 98h-41v-174h47v98l74 -98h41zM1434 518v43h-154v-43h55v-131h45v131h54zM2198 387h51l-8 174h-54l-39 -94q-1 -2 -2 -6.5t-2 -5.5q0 4 -4 12l-41 94h-51l-6 -174h47 v100l41 -100h27l41 100v-100zM1034 475q0 -49 -41 -49q-19 0 -30 13t-11 36q0 47 41 47t41 -47zM1974 475q0 -49 -41 -49q-19 0 -30 13t-11 36q0 47 41 47t41 -47zM1638 436q-10 0 -17 -7t-7 -17q0 -11 7 -19t17 -8q12 0 19.5 8t7.5 19t-7.5 17.5t-19.5 6.5z" />
<glyph unicode="&#xe5;" d="M2501 1075h-2358v-923h2358v923zM221 997h2202v-768h-2202v768zM1692 801l14 33q-41 20 -80 20q-26 0 -41.5 -14.5t-15.5 -36.5q0 -40 49 -55q25 -6 32 -10t7 -11q0 -12 -17 -12q-22 0 -61 20l-16 -35q35 -24 82 -24q29 0 46 14t17 39q0 22 -10.5 34t-36.5 19 q-29 9 -37 13t-8 10q0 12 16 12q17 0 60 -16zM1974 764q0 44 -23 67t-65 23t-65 -23t-23 -67q0 -41 23.5 -64.5t64.5 -23.5t64.5 23.5t23.5 64.5zM426 774v35h78v43h-125v-174h47v55h68v41h-68zM684 852h-47v-90q0 -45 -35 -45q-31 0 -31 45v90h-47v-90q0 -86 78 -86 q82 0 82 86v90zM834 678v43h-78v131h-45v-174h123zM979 678v43h-78v131h-45v-174h123zM1165 678l66 174h-49l-37 -111l-6 -16q-4 12 -4 16l-37 111h-51l67 -174h51zM1376 678v43h-84v22h68v39h-68v27h80v43h-127v-174h131zM1399 852v-174h45v53h22q4 0 7.5 -1.5t6.5 -5 t5.5 -7t5 -9.5t3.5 -9.5t3.5 -10.5t3.5 -10h53q-1 3 -3.5 13.5t-5 16.5t-6.5 14.5t-9.5 15t-13.5 10.5q30 6 30 45q0 59 -76 59h-71zM1778 678v174h-47v-174h47zM2157 678v174h-48v-100l-73 100h-41v-174h45v98l74 -98h43zM1444 768v45h29q30 0 30 -22q0 -23 -28 -23h-31z M1927 764q0 -47 -41 -47t-41 47q0 49 41 49t41 -49zM2218 813q-10 0 -17.5 -7.5t-7.5 -17.5q0 -11 7.5 -18.5t17.5 -7.5q12 0 19.5 7.5t7.5 18.5t-7.5 18t-19.5 7zM2218 727q-10 0 -17.5 -7.5t-7.5 -17.5q0 -11 7.5 -18.5t17.5 -7.5q12 0 19.5 7.5t7.5 18.5t-7.5 18t-19.5 7 zM1081 475q0 43 -23.5 66.5t-64.5 23.5t-63.5 -23.5t-22.5 -66.5q0 -90 86 -90q42 0 65 23t23 67zM1569 510l14 35q-48 20 -78 20q-27 0 -42 -15t-15 -38q0 -41 49 -55q24 -6 30.5 -10t6.5 -11q0 -12 -14 -12q-26 0 -62 20l-18 -34q36 -25 82 -25q63 0 63 53 q0 22 -10.5 34.5t-36.5 21.5l-15 5q-27 11 -28 17q0 10 16 10q15 0 58 -16zM1839 403l-16 37q-32 -14 -56 -14q-19 0 -30 13t-11 36q0 47 43 47q23 0 50 -8l12 33q-27 18 -64 18q-41 0 -64.5 -23.5t-23.5 -66.5q0 -44 23 -67t63 -23q33 0 74 18zM2021 475q0 43 -23.5 66.5 t-64.5 23.5q-40 0 -64 -24t-24 -66q0 -43 23.5 -66.5t64.5 -23.5q42 0 65 23t23 67zM520 387h49l-8 174h-51l-41 -94q-2 -4 -2 -12l-6 12l-39 94h-53l-7 -174h50v100l41 -100h26l41 100v-100zM692 442l64 119h-49l-29 -55q-2 -3 -5 -10.5t-5 -10.5q-2 3 -5.5 10.5t-5.5 10.5 l-28 55h-49l65 -119v-55h47v55zM815 485v33h78v43h-125v-174h47v57h68v41h-68zM1264 387v174h-47v-98l-74 98h-41v-174h47v98l74 -98h41zM1434 518v43h-154v-43h55v-131h45v131h54zM2198 387h51l-8 174h-54l-39 -94q-1 -2 -2 -6.5t-2 -5.5q0 4 -4 12l-41 94h-51l-6 -174h47 v100l41 -100h27l41 100v-100zM1034 475q0 -49 -41 -49q-19 0 -30 13t-11 36q0 47 41 47t41 -47zM1974 475q0 -49 -41 -49q-19 0 -30 13t-11 36q0 47 41 47t41 -47zM1638 436q-10 0 -17 -7t-7 -17q0 -11 7 -19t17 -8q12 0 19.5 8t7.5 19t-7.5 17.5t-19.5 6.5z" />
<glyph unicode="&#xe6;" d="M2501 1075h-2358v-923h2358v923zM221 997h2202v-768h-2202v768zM1692 801l14 33q-41 20 -80 20q-26 0 -41.5 -14.5t-15.5 -36.5q0 -40 49 -55q25 -6 32 -10t7 -11q0 -12 -17 -12q-22 0 -61 20l-16 -35q35 -24 82 -24q29 0 46 14t17 39q0 22 -10.5 34t-36.5 19 q-29 9 -37 13t-8 10q0 12 16 12q17 0 60 -16zM1974 764q0 44 -23 67t-65 23t-65 -23t-23 -67q0 -41 23.5 -64.5t64.5 -23.5t64.5 23.5t23.5 64.5zM426 774v35h78v43h-125v-174h47v55h68v41h-68zM684 852h-47v-90q0 -45 -35 -45q-31 0 -31 45v90h-47v-90q0 -86 78 -86 q82 0 82 86v90zM834 678v43h-78v131h-45v-174h123zM979 678v43h-78v131h-45v-174h123zM1165 678l66 174h-49l-37 -111l-6 -16q-4 12 -4 16l-37 111h-51l67 -174h51zM1376 678v43h-84v22h68v39h-68v27h80v43h-127v-174h131zM1399 852v-174h45v53h22q4 0 7.5 -1.5t6.5 -5 t5.5 -7t5 -9.5t3.5 -9.5t3.5 -10.5t3.5 -10h53q-1 3 -3.5 13.5t-5 16.5t-6.5 14.5t-9.5 15t-13.5 10.5q30 6 30 45q0 59 -76 59h-71zM1778 678v174h-47v-174h47zM2157 678v174h-48v-100l-73 100h-41v-174h45v98l74 -98h43zM1444 768v45h29q30 0 30 -22q0 -23 -28 -23h-31z M1927 764q0 -47 -41 -47t-41 47q0 49 41 49t41 -49zM2218 813q-10 0 -17.5 -7.5t-7.5 -17.5q0 -11 7.5 -18.5t17.5 -7.5q12 0 19.5 7.5t7.5 18.5t-7.5 18t-19.5 7zM2218 727q-10 0 -17.5 -7.5t-7.5 -17.5q0 -11 7.5 -18.5t17.5 -7.5q12 0 19.5 7.5t7.5 18.5t-7.5 18t-19.5 7 zM1081 475q0 43 -23.5 66.5t-64.5 23.5t-63.5 -23.5t-22.5 -66.5q0 -90 86 -90q42 0 65 23t23 67zM1569 510l14 35q-48 20 -78 20q-27 0 -42 -15t-15 -38q0 -41 49 -55q24 -6 30.5 -10t6.5 -11q0 -12 -14 -12q-26 0 -62 20l-18 -34q36 -25 82 -25q63 0 63 53 q0 22 -10.5 34.5t-36.5 21.5l-15 5q-27 11 -28 17q0 10 16 10q15 0 58 -16zM1839 403l-16 37q-32 -14 -56 -14q-19 0 -30 13t-11 36q0 47 43 47q23 0 50 -8l12 33q-27 18 -64 18q-41 0 -64.5 -23.5t-23.5 -66.5q0 -44 23 -67t63 -23q33 0 74 18zM2021 475q0 43 -23.5 66.5 t-64.5 23.5q-40 0 -64 -24t-24 -66q0 -43 23.5 -66.5t64.5 -23.5q42 0 65 23t23 67zM520 387h49l-8 174h-51l-41 -94q-2 -4 -2 -12l-6 12l-39 94h-53l-7 -174h50v100l41 -100h26l41 100v-100zM692 442l64 119h-49l-29 -55q-2 -3 -5 -10.5t-5 -10.5q-2 3 -5.5 10.5t-5.5 10.5 l-28 55h-49l65 -119v-55h47v55zM815 485v33h78v43h-125v-174h47v57h68v41h-68zM1264 387v174h-47v-98l-74 98h-41v-174h47v98l74 -98h41zM1434 518v43h-154v-43h55v-131h45v131h54zM2198 387h51l-8 174h-54l-39 -94q-1 -2 -2 -6.5t-2 -5.5q0 4 -4 12l-41 94h-51l-6 -174h47 v100l41 -100h27l41 100v-100zM1034 475q0 -49 -41 -49q-19 0 -30 13t-11 36q0 47 41 47t41 -47zM1974 475q0 -49 -41 -49q-19 0 -30 13t-11 36q0 47 41 47t41 -47zM1638 436q-10 0 -17 -7t-7 -17q0 -11 7 -19t17 -8q12 0 19.5 8t7.5 19t-7.5 17.5t-19.5 6.5z" />
<glyph unicode="&#xe7;" d="M2501 1075h-2358v-923h2358v923zM221 997h2202v-768h-2202v768zM1692 801l14 33q-41 20 -80 20q-26 0 -41.5 -14.5t-15.5 -36.5q0 -40 49 -55q25 -6 32 -10t7 -11q0 -12 -17 -12q-22 0 -61 20l-16 -35q35 -24 82 -24q29 0 46 14t17 39q0 22 -10.5 34t-36.5 19 q-29 9 -37 13t-8 10q0 12 16 12q17 0 60 -16zM1974 764q0 44 -23 67t-65 23t-65 -23t-23 -67q0 -41 23.5 -64.5t64.5 -23.5t64.5 23.5t23.5 64.5zM426 774v35h78v43h-125v-174h47v55h68v41h-68zM684 852h-47v-90q0 -45 -35 -45q-31 0 -31 45v90h-47v-90q0 -86 78 -86 q82 0 82 86v90zM834 678v43h-78v131h-45v-174h123zM979 678v43h-78v131h-45v-174h123zM1165 678l66 174h-49l-37 -111l-6 -16q-4 12 -4 16l-37 111h-51l67 -174h51zM1376 678v43h-84v22h68v39h-68v27h80v43h-127v-174h131zM1399 852v-174h45v53h22q4 0 7.5 -1.5t6.5 -5 t5.5 -7t5 -9.5t3.5 -9.5t3.5 -10.5t3.5 -10h53q-1 3 -3.5 13.5t-5 16.5t-6.5 14.5t-9.5 15t-13.5 10.5q30 6 30 45q0 59 -76 59h-71zM1778 678v174h-47v-174h47zM2157 678v174h-48v-100l-73 100h-41v-174h45v98l74 -98h43zM1444 768v45h29q30 0 30 -22q0 -23 -28 -23h-31z M1927 764q0 -47 -41 -47t-41 47q0 49 41 49t41 -49zM2218 813q-10 0 -17.5 -7.5t-7.5 -17.5q0 -11 7.5 -18.5t17.5 -7.5q12 0 19.5 7.5t7.5 18.5t-7.5 18t-19.5 7zM2218 727q-10 0 -17.5 -7.5t-7.5 -17.5q0 -11 7.5 -18.5t17.5 -7.5q12 0 19.5 7.5t7.5 18.5t-7.5 18t-19.5 7 zM1081 475q0 43 -23.5 66.5t-64.5 23.5t-63.5 -23.5t-22.5 -66.5q0 -90 86 -90q42 0 65 23t23 67zM1569 510l14 35q-48 20 -78 20q-27 0 -42 -15t-15 -38q0 -41 49 -55q24 -6 30.5 -10t6.5 -11q0 -12 -14 -12q-26 0 -62 20l-18 -34q36 -25 82 -25q63 0 63 53 q0 22 -10.5 34.5t-36.5 21.5l-15 5q-27 11 -28 17q0 10 16 10q15 0 58 -16zM1839 403l-16 37q-32 -14 -56 -14q-19 0 -30 13t-11 36q0 47 43 47q23 0 50 -8l12 33q-27 18 -64 18q-41 0 -64.5 -23.5t-23.5 -66.5q0 -44 23 -67t63 -23q33 0 74 18zM2021 475q0 43 -23.5 66.5 t-64.5 23.5q-40 0 -64 -24t-24 -66q0 -43 23.5 -66.5t64.5 -23.5q42 0 65 23t23 67zM520 387h49l-8 174h-51l-41 -94q-2 -4 -2 -12l-6 12l-39 94h-53l-7 -174h50v100l41 -100h26l41 100v-100zM692 442l64 119h-49l-29 -55q-2 -3 -5 -10.5t-5 -10.5q-2 3 -5.5 10.5t-5.5 10.5 l-28 55h-49l65 -119v-55h47v55zM815 485v33h78v43h-125v-174h47v57h68v41h-68zM1264 387v174h-47v-98l-74 98h-41v-174h47v98l74 -98h41zM1434 518v43h-154v-43h55v-131h45v131h54zM2198 387h51l-8 174h-54l-39 -94q-1 -2 -2 -6.5t-2 -5.5q0 4 -4 12l-41 94h-51l-6 -174h47 v100l41 -100h27l41 100v-100zM1034 475q0 -49 -41 -49q-19 0 -30 13t-11 36q0 47 41 47t41 -47zM1974 475q0 -49 -41 -49q-19 0 -30 13t-11 36q0 47 41 47t41 -47zM1638 436q-10 0 -17 -7t-7 -17q0 -11 7 -19t17 -8q12 0 19.5 8t7.5 19t-7.5 17.5t-19.5 6.5z" />
<glyph unicode="&#xe8;" d="M2501 1075h-2358v-923h2358v923zM221 997h2202v-768h-2202v768zM1692 801l14 33q-41 20 -80 20q-26 0 -41.5 -14.5t-15.5 -36.5q0 -40 49 -55q25 -6 32 -10t7 -11q0 -12 -17 -12q-22 0 -61 20l-16 -35q35 -24 82 -24q29 0 46 14t17 39q0 22 -10.5 34t-36.5 19 q-29 9 -37 13t-8 10q0 12 16 12q17 0 60 -16zM1974 764q0 44 -23 67t-65 23t-65 -23t-23 -67q0 -41 23.5 -64.5t64.5 -23.5t64.5 23.5t23.5 64.5zM426 774v35h78v43h-125v-174h47v55h68v41h-68zM684 852h-47v-90q0 -45 -35 -45q-31 0 -31 45v90h-47v-90q0 -86 78 -86 q82 0 82 86v90zM834 678v43h-78v131h-45v-174h123zM979 678v43h-78v131h-45v-174h123zM1165 678l66 174h-49l-37 -111l-6 -16q-4 12 -4 16l-37 111h-51l67 -174h51zM1376 678v43h-84v22h68v39h-68v27h80v43h-127v-174h131zM1399 852v-174h45v53h22q4 0 7.5 -1.5t6.5 -5 t5.5 -7t5 -9.5t3.5 -9.5t3.5 -10.5t3.5 -10h53q-1 3 -3.5 13.5t-5 16.5t-6.5 14.5t-9.5 15t-13.5 10.5q30 6 30 45q0 59 -76 59h-71zM1778 678v174h-47v-174h47zM2157 678v174h-48v-100l-73 100h-41v-174h45v98l74 -98h43zM1444 768v45h29q30 0 30 -22q0 -23 -28 -23h-31z M1927 764q0 -47 -41 -47t-41 47q0 49 41 49t41 -49zM2218 813q-10 0 -17.5 -7.5t-7.5 -17.5q0 -11 7.5 -18.5t17.5 -7.5q12 0 19.5 7.5t7.5 18.5t-7.5 18t-19.5 7zM2218 727q-10 0 -17.5 -7.5t-7.5 -17.5q0 -11 7.5 -18.5t17.5 -7.5q12 0 19.5 7.5t7.5 18.5t-7.5 18t-19.5 7 zM1081 475q0 43 -23.5 66.5t-64.5 23.5t-63.5 -23.5t-22.5 -66.5q0 -90 86 -90q42 0 65 23t23 67zM1569 510l14 35q-48 20 -78 20q-27 0 -42 -15t-15 -38q0 -41 49 -55q24 -6 30.5 -10t6.5 -11q0 -12 -14 -12q-26 0 -62 20l-18 -34q36 -25 82 -25q63 0 63 53 q0 22 -10.5 34.5t-36.5 21.5l-15 5q-27 11 -28 17q0 10 16 10q15 0 58 -16zM1839 403l-16 37q-32 -14 -56 -14q-19 0 -30 13t-11 36q0 47 43 47q23 0 50 -8l12 33q-27 18 -64 18q-41 0 -64.5 -23.5t-23.5 -66.5q0 -44 23 -67t63 -23q33 0 74 18zM2021 475q0 43 -23.5 66.5 t-64.5 23.5q-40 0 -64 -24t-24 -66q0 -43 23.5 -66.5t64.5 -23.5q42 0 65 23t23 67zM520 387h49l-8 174h-51l-41 -94q-2 -4 -2 -12l-6 12l-39 94h-53l-7 -174h50v100l41 -100h26l41 100v-100zM692 442l64 119h-49l-29 -55q-2 -3 -5 -10.5t-5 -10.5q-2 3 -5.5 10.5t-5.5 10.5 l-28 55h-49l65 -119v-55h47v55zM815 485v33h78v43h-125v-174h47v57h68v41h-68zM1264 387v174h-47v-98l-74 98h-41v-174h47v98l74 -98h41zM1434 518v43h-154v-43h55v-131h45v131h54zM2198 387h51l-8 174h-54l-39 -94q-1 -2 -2 -6.5t-2 -5.5q0 4 -4 12l-41 94h-51l-6 -174h47 v100l41 -100h27l41 100v-100zM1034 475q0 -49 -41 -49q-19 0 -30 13t-11 36q0 47 41 47t41 -47zM1974 475q0 -49 -41 -49q-19 0 -30 13t-11 36q0 47 41 47t41 -47zM1638 436q-10 0 -17 -7t-7 -17q0 -11 7 -19t17 -8q12 0 19.5 8t7.5 19t-7.5 17.5t-19.5 6.5z" />
<glyph unicode="&#xe9;" d="M2501 1075h-2358v-923h2358v923zM221 997h2202v-768h-2202v768zM1692 801l14 33q-41 20 -80 20q-26 0 -41.5 -14.5t-15.5 -36.5q0 -40 49 -55q25 -6 32 -10t7 -11q0 -12 -17 -12q-22 0 -61 20l-16 -35q35 -24 82 -24q29 0 46 14t17 39q0 22 -10.5 34t-36.5 19 q-29 9 -37 13t-8 10q0 12 16 12q17 0 60 -16zM1974 764q0 44 -23 67t-65 23t-65 -23t-23 -67q0 -41 23.5 -64.5t64.5 -23.5t64.5 23.5t23.5 64.5zM426 774v35h78v43h-125v-174h47v55h68v41h-68zM684 852h-47v-90q0 -45 -35 -45q-31 0 -31 45v90h-47v-90q0 -86 78 -86 q82 0 82 86v90zM834 678v43h-78v131h-45v-174h123zM979 678v43h-78v131h-45v-174h123zM1165 678l66 174h-49l-37 -111l-6 -16q-4 12 -4 16l-37 111h-51l67 -174h51zM1376 678v43h-84v22h68v39h-68v27h80v43h-127v-174h131zM1399 852v-174h45v53h22q4 0 7.5 -1.5t6.5 -5 t5.5 -7t5 -9.5t3.5 -9.5t3.5 -10.5t3.5 -10h53q-1 3 -3.5 13.5t-5 16.5t-6.5 14.5t-9.5 15t-13.5 10.5q30 6 30 45q0 59 -76 59h-71zM1778 678v174h-47v-174h47zM2157 678v174h-48v-100l-73 100h-41v-174h45v98l74 -98h43zM1444 768v45h29q30 0 30 -22q0 -23 -28 -23h-31z M1927 764q0 -47 -41 -47t-41 47q0 49 41 49t41 -49zM2218 813q-10 0 -17.5 -7.5t-7.5 -17.5q0 -11 7.5 -18.5t17.5 -7.5q12 0 19.5 7.5t7.5 18.5t-7.5 18t-19.5 7zM2218 727q-10 0 -17.5 -7.5t-7.5 -17.5q0 -11 7.5 -18.5t17.5 -7.5q12 0 19.5 7.5t7.5 18.5t-7.5 18t-19.5 7 zM1081 475q0 43 -23.5 66.5t-64.5 23.5t-63.5 -23.5t-22.5 -66.5q0 -90 86 -90q42 0 65 23t23 67zM1569 510l14 35q-48 20 -78 20q-27 0 -42 -15t-15 -38q0 -41 49 -55q24 -6 30.5 -10t6.5 -11q0 -12 -14 -12q-26 0 -62 20l-18 -34q36 -25 82 -25q63 0 63 53 q0 22 -10.5 34.5t-36.5 21.5l-15 5q-27 11 -28 17q0 10 16 10q15 0 58 -16zM1839 403l-16 37q-32 -14 -56 -14q-19 0 -30 13t-11 36q0 47 43 47q23 0 50 -8l12 33q-27 18 -64 18q-41 0 -64.5 -23.5t-23.5 -66.5q0 -44 23 -67t63 -23q33 0 74 18zM2021 475q0 43 -23.5 66.5 t-64.5 23.5q-40 0 -64 -24t-24 -66q0 -43 23.5 -66.5t64.5 -23.5q42 0 65 23t23 67zM520 387h49l-8 174h-51l-41 -94q-2 -4 -2 -12l-6 12l-39 94h-53l-7 -174h50v100l41 -100h26l41 100v-100zM692 442l64 119h-49l-29 -55q-2 -3 -5 -10.5t-5 -10.5q-2 3 -5.5 10.5t-5.5 10.5 l-28 55h-49l65 -119v-55h47v55zM815 485v33h78v43h-125v-174h47v57h68v41h-68zM1264 387v174h-47v-98l-74 98h-41v-174h47v98l74 -98h41zM1434 518v43h-154v-43h55v-131h45v131h54zM2198 387h51l-8 174h-54l-39 -94q-1 -2 -2 -6.5t-2 -5.5q0 4 -4 12l-41 94h-51l-6 -174h47 v100l41 -100h27l41 100v-100zM1034 475q0 -49 -41 -49q-19 0 -30 13t-11 36q0 47 41 47t41 -47zM1974 475q0 -49 -41 -49q-19 0 -30 13t-11 36q0 47 41 47t41 -47zM1638 436q-10 0 -17 -7t-7 -17q0 -11 7 -19t17 -8q12 0 19.5 8t7.5 19t-7.5 17.5t-19.5 6.5z" />
<glyph unicode="&#xea;" d="M2501 1075h-2358v-923h2358v923zM221 997h2202v-768h-2202v768zM1692 801l14 33q-41 20 -80 20q-26 0 -41.5 -14.5t-15.5 -36.5q0 -40 49 -55q25 -6 32 -10t7 -11q0 -12 -17 -12q-22 0 -61 20l-16 -35q35 -24 82 -24q29 0 46 14t17 39q0 22 -10.5 34t-36.5 19 q-29 9 -37 13t-8 10q0 12 16 12q17 0 60 -16zM1974 764q0 44 -23 67t-65 23t-65 -23t-23 -67q0 -41 23.5 -64.5t64.5 -23.5t64.5 23.5t23.5 64.5zM426 774v35h78v43h-125v-174h47v55h68v41h-68zM684 852h-47v-90q0 -45 -35 -45q-31 0 -31 45v90h-47v-90q0 -86 78 -86 q82 0 82 86v90zM834 678v43h-78v131h-45v-174h123zM979 678v43h-78v131h-45v-174h123zM1165 678l66 174h-49l-37 -111l-6 -16q-4 12 -4 16l-37 111h-51l67 -174h51zM1376 678v43h-84v22h68v39h-68v27h80v43h-127v-174h131zM1399 852v-174h45v53h22q4 0 7.5 -1.5t6.5 -5 t5.5 -7t5 -9.5t3.5 -9.5t3.5 -10.5t3.5 -10h53q-1 3 -3.5 13.5t-5 16.5t-6.5 14.5t-9.5 15t-13.5 10.5q30 6 30 45q0 59 -76 59h-71zM1778 678v174h-47v-174h47zM2157 678v174h-48v-100l-73 100h-41v-174h45v98l74 -98h43zM1444 768v45h29q30 0 30 -22q0 -23 -28 -23h-31z M1927 764q0 -47 -41 -47t-41 47q0 49 41 49t41 -49zM2218 813q-10 0 -17.5 -7.5t-7.5 -17.5q0 -11 7.5 -18.5t17.5 -7.5q12 0 19.5 7.5t7.5 18.5t-7.5 18t-19.5 7zM2218 727q-10 0 -17.5 -7.5t-7.5 -17.5q0 -11 7.5 -18.5t17.5 -7.5q12 0 19.5 7.5t7.5 18.5t-7.5 18t-19.5 7 zM1081 475q0 43 -23.5 66.5t-64.5 23.5t-63.5 -23.5t-22.5 -66.5q0 -90 86 -90q42 0 65 23t23 67zM1569 510l14 35q-48 20 -78 20q-27 0 -42 -15t-15 -38q0 -41 49 -55q24 -6 30.5 -10t6.5 -11q0 -12 -14 -12q-26 0 -62 20l-18 -34q36 -25 82 -25q63 0 63 53 q0 22 -10.5 34.5t-36.5 21.5l-15 5q-27 11 -28 17q0 10 16 10q15 0 58 -16zM1839 403l-16 37q-32 -14 -56 -14q-19 0 -30 13t-11 36q0 47 43 47q23 0 50 -8l12 33q-27 18 -64 18q-41 0 -64.5 -23.5t-23.5 -66.5q0 -44 23 -67t63 -23q33 0 74 18zM2021 475q0 43 -23.5 66.5 t-64.5 23.5q-40 0 -64 -24t-24 -66q0 -43 23.5 -66.5t64.5 -23.5q42 0 65 23t23 67zM520 387h49l-8 174h-51l-41 -94q-2 -4 -2 -12l-6 12l-39 94h-53l-7 -174h50v100l41 -100h26l41 100v-100zM692 442l64 119h-49l-29 -55q-2 -3 -5 -10.5t-5 -10.5q-2 3 -5.5 10.5t-5.5 10.5 l-28 55h-49l65 -119v-55h47v55zM815 485v33h78v43h-125v-174h47v57h68v41h-68zM1264 387v174h-47v-98l-74 98h-41v-174h47v98l74 -98h41zM1434 518v43h-154v-43h55v-131h45v131h54zM2198 387h51l-8 174h-54l-39 -94q-1 -2 -2 -6.5t-2 -5.5q0 4 -4 12l-41 94h-51l-6 -174h47 v100l41 -100h27l41 100v-100zM1034 475q0 -49 -41 -49q-19 0 -30 13t-11 36q0 47 41 47t41 -47zM1974 475q0 -49 -41 -49q-19 0 -30 13t-11 36q0 47 41 47t41 -47zM1638 436q-10 0 -17 -7t-7 -17q0 -11 7 -19t17 -8q12 0 19.5 8t7.5 19t-7.5 17.5t-19.5 6.5z" />
<glyph unicode="&#xeb;" d="M2501 1075h-2358v-923h2358v923zM221 997h2202v-768h-2202v768zM1692 801l14 33q-41 20 -80 20q-26 0 -41.5 -14.5t-15.5 -36.5q0 -40 49 -55q25 -6 32 -10t7 -11q0 -12 -17 -12q-22 0 -61 20l-16 -35q35 -24 82 -24q29 0 46 14t17 39q0 22 -10.5 34t-36.5 19 q-29 9 -37 13t-8 10q0 12 16 12q17 0 60 -16zM1974 764q0 44 -23 67t-65 23t-65 -23t-23 -67q0 -41 23.5 -64.5t64.5 -23.5t64.5 23.5t23.5 64.5zM426 774v35h78v43h-125v-174h47v55h68v41h-68zM684 852h-47v-90q0 -45 -35 -45q-31 0 -31 45v90h-47v-90q0 -86 78 -86 q82 0 82 86v90zM834 678v43h-78v131h-45v-174h123zM979 678v43h-78v131h-45v-174h123zM1165 678l66 174h-49l-37 -111l-6 -16q-4 12 -4 16l-37 111h-51l67 -174h51zM1376 678v43h-84v22h68v39h-68v27h80v43h-127v-174h131zM1399 852v-174h45v53h22q4 0 7.5 -1.5t6.5 -5 t5.5 -7t5 -9.5t3.5 -9.5t3.5 -10.5t3.5 -10h53q-1 3 -3.5 13.5t-5 16.5t-6.5 14.5t-9.5 15t-13.5 10.5q30 6 30 45q0 59 -76 59h-71zM1778 678v174h-47v-174h47zM2157 678v174h-48v-100l-73 100h-41v-174h45v98l74 -98h43zM1444 768v45h29q30 0 30 -22q0 -23 -28 -23h-31z M1927 764q0 -47 -41 -47t-41 47q0 49 41 49t41 -49zM2218 813q-10 0 -17.5 -7.5t-7.5 -17.5q0 -11 7.5 -18.5t17.5 -7.5q12 0 19.5 7.5t7.5 18.5t-7.5 18t-19.5 7zM2218 727q-10 0 -17.5 -7.5t-7.5 -17.5q0 -11 7.5 -18.5t17.5 -7.5q12 0 19.5 7.5t7.5 18.5t-7.5 18t-19.5 7 zM1081 475q0 43 -23.5 66.5t-64.5 23.5t-63.5 -23.5t-22.5 -66.5q0 -90 86 -90q42 0 65 23t23 67zM1569 510l14 35q-48 20 -78 20q-27 0 -42 -15t-15 -38q0 -41 49 -55q24 -6 30.5 -10t6.5 -11q0 -12 -14 -12q-26 0 -62 20l-18 -34q36 -25 82 -25q63 0 63 53 q0 22 -10.5 34.5t-36.5 21.5l-15 5q-27 11 -28 17q0 10 16 10q15 0 58 -16zM1839 403l-16 37q-32 -14 -56 -14q-19 0 -30 13t-11 36q0 47 43 47q23 0 50 -8l12 33q-27 18 -64 18q-41 0 -64.5 -23.5t-23.5 -66.5q0 -44 23 -67t63 -23q33 0 74 18zM2021 475q0 43 -23.5 66.5 t-64.5 23.5q-40 0 -64 -24t-24 -66q0 -43 23.5 -66.5t64.5 -23.5q42 0 65 23t23 67zM520 387h49l-8 174h-51l-41 -94q-2 -4 -2 -12l-6 12l-39 94h-53l-7 -174h50v100l41 -100h26l41 100v-100zM692 442l64 119h-49l-29 -55q-2 -3 -5 -10.5t-5 -10.5q-2 3 -5.5 10.5t-5.5 10.5 l-28 55h-49l65 -119v-55h47v55zM815 485v33h78v43h-125v-174h47v57h68v41h-68zM1264 387v174h-47v-98l-74 98h-41v-174h47v98l74 -98h41zM1434 518v43h-154v-43h55v-131h45v131h54zM2198 387h51l-8 174h-54l-39 -94q-1 -2 -2 -6.5t-2 -5.5q0 4 -4 12l-41 94h-51l-6 -174h47 v100l41 -100h27l41 100v-100zM1034 475q0 -49 -41 -49q-19 0 -30 13t-11 36q0 47 41 47t41 -47zM1974 475q0 -49 -41 -49q-19 0 -30 13t-11 36q0 47 41 47t41 -47zM1638 436q-10 0 -17 -7t-7 -17q0 -11 7 -19t17 -8q12 0 19.5 8t7.5 19t-7.5 17.5t-19.5 6.5z" />
</font>
</defs>
</svg>
